<svg width="124" height="123" viewBox="0 0 124 123" fill="none" xmlns="http://www.w3.org/2000/svg">
<circle cx="62.5" cy="61.5" r="61.5" fill="#D7E0FF"/>
<defs>
<linearGradient id="paint0_linear_676_7" x1="63.086" y1="61.5129" x2="63.086" y2="106.423" gradientUnits="userSpaceOnUse">
<stop stop-color="#00DDB5"/>
<stop offset="1" stop-color="#00BE9C"/>
</linearGradient>
</defs>
<path d="M71.4024 88.6792C76.1147 88.6792 85.4048 92.2755 84.8662 106.661" stroke="black" stroke-width="4.49542" stroke-linecap="round"/>
<path d="M43.9805 66.2596C40.3133 69.219 30.8252 72.2544 22.2103 60.7213" stroke="black" stroke-width="4.49542" stroke-linecap="round"/>
<path d="M54.7695 88.6792C50.0571 88.6792 40.7671 92.2755 41.3056 106.661" stroke="black" stroke-width="4.49542" stroke-linecap="round"/>
<rect width="14.8349" height="8.99085" rx="4.49542" transform="matrix(-1 0 0 1 95.6777 103.514)" fill="#00DDB5"/>
<rect width="14.8349" height="8.99085" rx="4.49542" transform="matrix(-1 0 0 1 43.531 103.514)" fill="#00DDB5"/>
<circle cx="20.844" cy="56.7615" r="5.84405" fill="#00BB99"/>
<path d="M24.2006 76.8723C24.2006 72.6124 27.0041 69.911 33.4418 68.0408C35.2164 67.521 37.2256 66.2069 38.9579 64.4972C42.7771 60.7279 38.9116 56.0923 33.5456 56.0923V56.0923C27.9386 56.0923 24.2006 52.1441 24.2006 46.3257V37.2864C24.2006 31.3641 27.9386 27.5198 33.5456 27.5198H42.579C47.563 27.5198 47.3554 19 52.3393 19H74.5596C79.3359 19 79.3359 27.5198 84.3198 27.5198H92.6265C98.2335 27.5198 101.971 31.3641 101.971 37.2864V46.3257C101.971 52.1441 98.2335 56.0923 92.6265 56.0923V56.0923C87.3135 56.0923 83.3917 60.6156 87.1266 64.3942C88.8661 66.154 90.9202 67.5106 92.7303 68.0408C99.2718 69.911 101.971 72.5085 101.971 76.8723V88.1973C101.971 94.1196 98.1296 97.9639 92.6265 97.6522C85.4893 97.2391 79.0558 95.5853 73.6495 92.9005C67.3973 89.7956 59.0463 89.7507 52.787 92.8412C47.2787 95.561 40.7351 97.2361 33.5456 97.6522C28.0424 97.9639 24.2006 94.1196 24.2006 88.1973V76.8723Z" fill="url(#paint0_linear_676_7)"/>
<path d="M64.8453 54.7079C64.5529 55.5981 65.0376 56.5567 65.9278 56.8491C66.818 57.1414 67.7766 56.6567 68.069 55.7665L64.8453 54.7079ZM68.069 55.7665C68.6809 53.903 70.056 51.2303 72.1112 49.318C74.1084 47.4597 76.6505 46.3819 79.8794 47.2879L80.7961 44.021C76.1624 42.7208 72.4396 44.3777 69.7999 46.8339C67.2181 49.2362 65.5841 52.4579 64.8453 54.7079L68.069 55.7665Z" fill="white"/>
<circle cx="74.8913" cy="58.1549" r="10.4471" transform="rotate(180 74.8913 58.1549)" fill="white"/>
<path d="M40.5699 54.7079C40.2775 55.5981 40.7622 56.5567 41.6524 56.8491C42.5426 57.1414 43.5012 56.6567 43.7936 55.7665L40.5699 54.7079ZM43.7936 55.7665C44.4055 53.903 45.7807 51.2303 47.8358 49.318C49.833 47.4597 52.3751 46.3819 55.604 47.2879L56.5207 44.021C51.887 42.7208 48.1642 44.3777 45.5245 46.8339C42.9427 49.2362 41.3087 52.4579 40.5699 54.7079L43.7936 55.7665Z" fill="white"/>
<circle cx="50.6159" cy="58.1549" r="10.4471" transform="rotate(180 50.6159 58.1549)" fill="white"/>
<ellipse cx="6.51836" cy="7.64222" rx="6.51836" ry="7.64222" transform="matrix(-1 0 0 1 58.8843 50)" fill="black"/>
<ellipse cx="6.51836" cy="7.64222" rx="6.51836" ry="7.64222" transform="matrix(-1 0 0 1 80.0366 50)" fill="black"/>
<path d="M66.991 68C66.991 68 64.5298 69.7982 62.4955 69.7982C60.4613 69.7982 58.0001 68 58.0001 68" stroke="black" stroke-width="3.1468" stroke-linecap="round"/>
<path d="M94.3623 69.9763C99.0616 69.626 108.059 65.3489 106.452 51.0434" stroke="black" stroke-width="4.49542" stroke-linecap="round"/>
<circle cx="5.84405" cy="5.84405" r="5.84405" transform="matrix(-0.729367 0.684122 0.684122 0.729367 105.004 38.96)" fill="#00BB99"/>
<path d="M26.7341 27.6286C27.5967 27.6507 28.0282 28.6816 27.4386 29.3116L14.8478 42.7646C14.3522 43.2941 13.4753 43.1364 13.1952 42.4674L7.36629 28.5421C7.08623 27.873 7.58929 27.1377 8.31437 27.1563L26.7341 27.6286Z" fill="#5076FF"/>
<rect x="3.6897" y="26.8809" width="4" height="32" rx="1" transform="rotate(-22.7135 3.6897 26.8809)" fill="#5076FF"/>

</svg>
