<svg width="147" height="123" viewBox="0 0 147 123" fill="none" xmlns="http://www.w3.org/2000/svg">
<circle cx="74.5" cy="61.5" r="61.5" fill="#D7E0FF"/>
<defs>
<linearGradient id="paint0_linear_676_12" x1="74.0858" y1="59.5129" x2="74.0858" y2="104.423" gradientUnits="userSpaceOnUse">
<stop stop-color="#00DDB5"/>
<stop offset="1" stop-color="#00BE9C"/>
</linearGradient>
</defs>
<path d="M82.4024 86.6792C87.1147 86.6792 96.4048 90.2755 95.8662 104.661" stroke="black" stroke-width="4.49542" stroke-linecap="round"/>
<path d="M54.9805 64.2596C51.3133 67.219 41.8252 70.2544 33.2103 58.7213" stroke="black" stroke-width="4.49542" stroke-linecap="round"/>
<path d="M65.7695 86.6792C61.0571 86.6792 51.7671 90.2755 52.3056 104.661" stroke="black" stroke-width="4.49542" stroke-linecap="round"/>
<rect width="14.8349" height="8.99085" rx="4.49542" transform="matrix(-1 0 0 1 106.678 101.514)" fill="#00DDB5"/>
<rect width="14.8349" height="8.99085" rx="4.49542" transform="matrix(-1 0 0 1 54.5312 101.514)" fill="#00DDB5"/>
<circle cx="31.844" cy="54.7615" r="5.84405" fill="#00BB99"/>
<path d="M35.2004 74.8723C35.2004 70.6124 38.0039 67.911 44.4415 66.0408C46.2161 65.521 48.2253 64.2069 49.9576 62.4972C53.7768 58.7279 49.9113 54.0923 44.5453 54.0923V54.0923C38.9384 54.0923 35.2004 50.1441 35.2004 44.3257V35.2864C35.2004 29.3641 38.9384 25.5198 44.5453 25.5198H53.5788C58.5628 25.5198 58.3551 17 63.3391 17H85.5593C90.3356 17 90.3356 25.5198 95.3196 25.5198H103.626C109.233 25.5198 112.971 29.3641 112.971 35.2864V44.3257C112.971 50.1441 109.233 54.0923 103.626 54.0923V54.0923C98.3132 54.0923 94.3914 58.6156 98.1264 62.3942C99.8658 64.154 101.92 65.5106 103.73 66.0408C110.272 67.911 112.971 70.5085 112.971 74.8723V86.1973C112.971 92.1196 109.129 95.9639 103.626 95.6522C96.4891 95.2391 90.0555 93.5853 84.6493 90.9005C78.3971 87.7956 70.0461 87.7507 63.7868 90.8412C58.2784 93.561 51.7349 95.2361 44.5453 95.6522C39.0422 95.9639 35.2004 92.1196 35.2004 86.1973V74.8723Z" fill="url(#paint0_linear_676_12)"/>
<path d="M75.8453 52.7079C75.5529 53.5981 76.0376 54.5567 76.9278 54.8491C77.818 55.1414 78.7766 54.6567 79.069 53.7665L75.8453 52.7079ZM79.069 53.7665C79.6809 51.903 81.056 49.2303 83.1112 47.318C85.1084 45.4597 87.6505 44.3819 90.8794 45.2879L91.7961 42.021C87.1624 40.7208 83.4396 42.3777 80.7999 44.8339C78.2181 47.2362 76.5841 50.4579 75.8453 52.7079L79.069 53.7665Z" fill="white"/>
<circle cx="85.8913" cy="56.1549" r="10.4471" transform="rotate(180 85.8913 56.1549)" fill="white"/>
<path d="M51.5699 52.7079C51.2775 53.5981 51.7622 54.5567 52.6524 54.8491C53.5426 55.1414 54.5012 54.6567 54.7936 53.7665L51.5699 52.7079ZM54.7936 53.7665C55.4055 51.903 56.7807 49.2303 58.8358 47.318C60.833 45.4597 63.3751 44.3819 66.604 45.2879L67.5207 42.021C62.887 40.7208 59.1642 42.3777 56.5245 44.8339C53.9427 47.2362 52.3087 50.4579 51.5699 52.7079L54.7936 53.7665Z" fill="white"/>
<circle cx="61.6159" cy="56.1549" r="10.4471" transform="rotate(180 61.6159 56.1549)" fill="white"/>
<path d="M80.4365 56.9043C80.4365 56.9043 82.8977 55.1061 84.9319 55.1061C86.9662 55.1061 89.4274 56.9043 89.4274 56.9043" stroke="black" stroke-width="3.1468" stroke-linecap="round"/>
<path d="M59 56.7979C59 56.7979 61.4612 54.9997 63.4954 54.9997C65.5297 54.9997 67.9908 56.7979 67.9908 56.7979" stroke="black" stroke-width="3.1468" stroke-linecap="round"/>
<path d="M78.9912 66C78.9912 66 76.53 67.7982 74.4958 67.7982C72.4616 67.7982 70.0004 66 70.0004 66" stroke="black" stroke-width="3.1468" stroke-linecap="round"/>
<path d="M105.363 67.9763C110.062 67.626 119.059 63.3489 117.452 49.0434" stroke="black" stroke-width="4.49542" stroke-linecap="round"/>
<circle cx="5.84405" cy="5.84405" r="5.84405" transform="matrix(-0.729367 0.684122 0.684122 0.729367 116.004 36.96)" fill="#00BB99"/>
<path d="M19.9122 15.5033C20.8841 12.5121 25.1159 12.5121 26.0878 15.5033V15.5033C26.5225 16.841 27.7691 17.7467 29.1756 17.7467V17.7467C32.3208 17.7467 33.6285 21.7714 31.084 23.6201V23.6201C29.946 24.4468 29.4699 25.9123 29.9045 27.25V27.25C30.8765 30.2412 27.4529 32.7286 24.9084 30.8799V30.8799C23.7704 30.0532 22.2296 30.0532 21.0916 30.8799V30.8799C18.5471 32.7286 15.1235 30.2412 16.0955 27.25V27.25C16.5301 25.9123 16.054 24.4468 14.916 23.6201V23.6201C12.3715 21.7714 13.6792 17.7467 16.8244 17.7467V17.7467C18.2309 17.7467 19.4775 16.841 19.9122 15.5033V15.5033Z" fill="#5076FF"/>
<path d="M7.36528 36.0312C7.87982 34.4476 10.1202 34.4476 10.6347 36.0312V36.0312C10.8648 36.7394 11.5248 37.2188 12.2694 37.2188V37.2188C13.9345 37.2188 14.6268 39.3496 13.2798 40.3283V40.3283C12.6773 40.766 12.4252 41.5418 12.6553 42.25V42.25C13.1699 43.8336 11.3574 45.1504 10.0103 44.1717V44.1717C9.40788 43.734 8.59212 43.734 7.98969 44.1717V44.1717C6.6426 45.1504 4.83011 43.8336 5.34465 42.25V42.25C5.57476 41.5418 5.32268 40.766 4.72025 40.3283V40.3283C3.37316 39.3496 4.06547 37.2188 5.73056 37.2188V37.2188C6.47521 37.2188 7.13517 36.7394 7.36528 36.0312V36.0312Z" fill="#FFA5A5"/>
<path d="M138.138 38.1926C138.567 36.873 140.433 36.873 140.862 38.1926V38.1926C141.054 38.7828 141.604 39.1824 142.225 39.1824V39.1824C143.612 39.1824 144.189 40.958 143.066 41.7736V41.7736C142.564 42.1383 142.354 42.7848 142.546 43.375V43.375C142.975 44.6947 141.464 45.792 140.342 44.9764V44.9764C139.84 44.6117 139.16 44.6117 138.658 44.9764V44.9764C137.536 45.792 136.025 44.6947 136.454 43.375V43.375C136.646 42.7848 136.436 42.1383 135.934 41.7736V41.7736C134.811 40.958 135.388 39.1824 136.775 39.1824V39.1824C137.396 39.1824 137.946 38.7828 138.138 38.1926V38.1926Z" fill="#FFE072"/>

</svg>
