<svg width="123" height="123" viewBox="0 0 123 123" fill="none" xmlns="http://www.w3.org/2000/svg">
<circle cx="61.5" cy="61.5" r="61.5" fill="#D7E0FF"/>
<defs>
<linearGradient id="paint0_linear_676_8" x1="61.086" y1="60.5129" x2="61.086" y2="105.423" gradientUnits="userSpaceOnUse">
<stop stop-color="#00DDB5"/>
<stop offset="1" stop-color="#00BE9C"/>
</linearGradient>
</defs>
<path d="M69.4024 87.6792C74.1147 87.6792 83.4048 91.2755 82.8662 105.661" stroke="black" stroke-width="4.49542" stroke-linecap="round"/>
<path d="M38.9805 63.4694C35.3133 60.51 25.8252 57.4746 17.2103 69.0077" stroke="black" stroke-width="4.49542" stroke-linecap="round"/>
<path d="M47.8924 90.1106C43.3598 88.8217 33.4403 89.7399 30.0237 103.724" stroke="black" stroke-width="4.49542" stroke-linecap="round"/>
<rect width="14.8349" height="8.99085" rx="4.49542" transform="matrix(-1 0 0 1 93.6777 102.514)" fill="#00DDB5"/>
<rect width="14.8349" height="8.99085" rx="4.49542" transform="matrix(-0.961867 -0.273517 -0.273517 0.961867 33.0251 101.305)" fill="#00DDB5"/>
<circle cx="5.84405" cy="5.84405" r="5.84405" transform="matrix(1 0 0 -1 10 78.8105)" fill="#00BB99"/>
<path d="M22.2006 75.8723C22.2006 71.6124 25.0041 68.911 31.4418 67.0408C33.2164 66.521 35.2256 65.2069 36.9579 63.4972C40.7771 59.7279 36.9116 55.0923 31.5456 55.0923V55.0923C25.9386 55.0923 22.2006 51.1441 22.2006 45.3257V36.2864C22.2006 30.3641 25.9386 26.5198 31.5456 26.5198H40.579C45.563 26.5198 45.3554 18 50.3393 18H72.5596C77.3359 18 77.3359 26.5198 82.3198 26.5198H90.6265C96.2335 26.5198 99.9714 30.3641 99.9714 36.2864V45.3257C99.9714 51.1441 96.2335 55.0923 90.6265 55.0923V55.0923C85.3135 55.0923 81.3917 59.6156 85.1266 63.3942C86.8661 65.154 88.9202 66.5106 90.7303 67.0408C97.2718 68.911 99.9714 71.5085 99.9714 75.8723V87.1973C99.9714 93.1196 96.1296 96.9639 90.6265 96.6522C83.4893 96.2391 77.0558 94.5853 71.6495 91.9005C65.3973 88.7956 57.0463 88.7507 50.787 91.8412C45.2787 94.561 38.7351 96.2361 31.5456 96.6522C26.0424 96.9639 22.2006 93.1196 22.2006 87.1973V75.8723Z" fill="url(#paint0_linear_676_8)"/>
<path d="M62.8453 53.7079C62.5529 54.5981 63.0376 55.5567 63.9278 55.8491C64.818 56.1414 65.7766 55.6567 66.069 54.7665L62.8453 53.7079ZM66.069 54.7665C66.6809 52.903 68.056 50.2303 70.1112 48.318C72.1084 46.4597 74.6505 45.3819 77.8794 46.2879L78.7961 43.021C74.1624 41.7208 70.4396 43.3777 67.7999 45.8339C65.2181 48.2362 63.5841 51.4579 62.8453 53.7079L66.069 54.7665Z" fill="white"/>
<circle cx="72.8913" cy="57.1549" r="10.4471" transform="rotate(180 72.8913 57.1549)" fill="white"/>
<path d="M38.5699 53.7079C38.2775 54.5981 38.7622 55.5567 39.6524 55.8491C40.5426 56.1414 41.5012 55.6567 41.7936 54.7665L38.5699 53.7079ZM41.7936 54.7665C42.4055 52.903 43.7807 50.2303 45.8358 48.318C47.833 46.4597 50.3751 45.3819 53.604 46.2879L54.5207 43.021C49.887 41.7208 46.1642 43.3777 43.5245 45.8339C40.9427 48.2362 39.3087 51.4579 38.5699 53.7079L41.7936 54.7665Z" fill="white"/>
<circle cx="48.6159" cy="57.1549" r="10.4471" transform="rotate(180 48.6159 57.1549)" fill="white"/>
<path d="M67.4365 57.9043C67.4365 57.9043 69.8977 56.1061 71.9319 56.1061C73.9662 56.1061 76.4274 57.9043 76.4274 57.9043" stroke="black" stroke-width="3.1468" stroke-linecap="round"/>
<path d="M92.3623 68.9763C97.0616 68.626 106.059 64.3489 104.452 50.0434" stroke="black" stroke-width="4.49542" stroke-linecap="round"/>
<circle cx="5.84405" cy="5.84405" r="5.84405" transform="matrix(-0.729367 0.684122 0.684122 0.729367 103.004 37.96)" fill="#00BB99"/>
<ellipse cx="3.01958" cy="4.21983" rx="3.01958" ry="4.21983" transform="matrix(-0.977675 0.210123 0.210123 0.977675 100.904 38)" fill="#00BB99"/>
<mask id="mask0_676_8" style="mask-type:alpha" maskUnits="userSpaceOnUse" x="57" y="58" width="8" height="10">
<ellipse cx="4" cy="4.8" rx="4" ry="4.8" transform="matrix(1 8.74228e-08 8.74228e-08 -1 57 67.6001)" fill="black"/>
</mask>
<g mask="url(#mask0_676_8)">
<rect x="71.3999" y="70.8003" width="22.4" height="8" transform="rotate(-180 71.3999 70.8003)" fill="black"/>
</g>
<ellipse cx="6.51836" cy="7.64222" rx="6.51836" ry="7.64222" transform="matrix(-1 0 0 1 58.0366 49)" fill="black"/>
</svg>
