<svg width="123" height="123" viewBox="0 0 123 123" fill="none" xmlns="http://www.w3.org/2000/svg">
<circle cx="61.5" cy="61.5" r="61.5" fill="#D7E0FF"/>
<defs>
<linearGradient id="paint0_linear_676_10" x1="62.0863" y1="61.0129" x2="62.0863" y2="105.923" gradientUnits="userSpaceOnUse">
<stop stop-color="#00DDB5"/>
<stop offset="1" stop-color="#00BE9C"/>
</linearGradient>
</defs>
<path d="M67.8299 86.4995C72.5372 86.7171 81.6513 90.7384 80.4493 105.084" stroke="black" stroke-width="4.49542" stroke-linecap="round"/>
<path d="M39.9805 63.9694C36.3133 61.01 26.8252 57.9746 18.2103 69.5077" stroke="black" stroke-width="4.49542" stroke-linecap="round"/>
<path d="M56.1764 85.4997C51.4959 86.0464 42.6859 90.6964 44.8899 104.922" stroke="black" stroke-width="4.49542" stroke-linecap="round"/>
<rect width="14.8349" height="8.99085" rx="4.49542" transform="matrix(-0.998934 -0.0461609 -0.0461609 0.998934 91.3945 102.438)" fill="#00DDB5"/>
<rect width="14.8349" height="8.99085" rx="4.49542" transform="matrix(-0.993246 0.116028 0.116028 0.993246 46.7349 101.537)" fill="#00DDB5"/>
<circle cx="5.84405" cy="5.84405" r="5.84405" transform="matrix(1 0 0 -1 11 79.3105)" fill="#00BB99"/>
<path d="M23.2009 76.3723C23.2009 72.1124 26.0044 69.411 32.442 67.5408C34.2166 67.021 36.2258 65.7069 37.9581 63.9972C41.7773 60.2279 37.9118 55.5923 32.5458 55.5923V55.5923C26.9389 55.5923 23.2009 51.6441 23.2009 45.8257V36.7864C23.2009 30.8641 26.9389 27.0198 32.5458 27.0198H41.5793C46.5633 27.0198 46.3556 18.5 51.3396 18.5H73.5598C78.3361 18.5 78.3361 27.0198 83.3201 27.0198H91.6267C97.2337 27.0198 100.972 30.8641 100.972 36.7864V45.8257C100.972 51.6441 97.2337 55.5923 91.6267 55.5923V55.5923C86.3137 55.5923 82.3919 60.1156 86.1269 63.8942C87.8663 65.654 89.9204 67.0106 91.7306 67.5408C98.272 69.411 100.972 72.0085 100.972 76.3723V87.6973C100.972 93.6196 97.1299 97.4639 91.6267 97.1522C84.4895 96.7391 78.056 95.0853 72.6498 92.4005C66.3976 89.2956 58.0466 89.2507 51.7872 92.3412C46.2789 95.061 39.7354 96.7361 32.5458 97.1522C27.0427 97.4639 23.2009 93.6196 23.2009 87.6973V76.3723Z" fill="url(#paint0_linear_676_10)"/>
<path d="M63.8453 54.2079C63.5529 55.0981 64.0376 56.0567 64.9278 56.3491C65.818 56.6414 66.7766 56.1567 67.069 55.2665L63.8453 54.2079ZM67.069 55.2665C67.6809 53.403 69.056 50.7303 71.1112 48.818C73.1084 46.9597 75.6505 45.8819 78.8794 46.7879L79.7961 43.521C75.1624 42.2208 71.4396 43.8777 68.7999 46.3339C66.2181 48.7362 64.5841 51.9579 63.8453 54.2079L67.069 55.2665Z" fill="white"/>
<circle cx="73.8913" cy="57.6549" r="10.4471" transform="rotate(180 73.8913 57.6549)" fill="white"/>
<path d="M39.5699 54.2079C39.2775 55.0981 39.7622 56.0567 40.6524 56.3491C41.5426 56.6414 42.5012 56.1567 42.7936 55.2665L39.5699 54.2079ZM42.7936 55.2665C43.4055 53.403 44.7807 50.7303 46.8358 48.818C48.833 46.9597 51.3751 45.8819 54.604 46.7879L55.5207 43.521C50.887 42.2208 47.1642 43.8777 44.5245 46.3339C41.9427 48.7362 40.3087 51.9579 39.5699 54.2079L42.7936 55.2665Z" fill="white"/>
<circle cx="49.6159" cy="57.6549" r="10.4471" transform="rotate(180 49.6159 57.6549)" fill="white"/>
<ellipse cx="49.5" cy="67.9995" rx="3.5" ry="3.5" transform="rotate(180 49.5 67.9995)" fill="white"/>
<path d="M86.3367 60.5002C91.036 60.8506 100.033 65.1277 98.4263 79.4332" stroke="black" stroke-width="4.49542" stroke-linecap="round"/>
<circle cx="96.7136" cy="83.2561" r="5.84405" transform="rotate(-136.833 96.7136 83.2561)" fill="#00BB99"/>
<path d="M46 54.5L56 57.5" stroke="black" stroke-width="3.15" stroke-linecap="round"/>
<path d="M78 54.5L68 57.5" stroke="black" stroke-width="3.15" stroke-linecap="round"/>
<path d="M46 60.5L56 57.5" stroke="black" stroke-width="3.15" stroke-linecap="round"/>
<path d="M78 60.5L68 57.5" stroke="black" stroke-width="3.15" stroke-linecap="round"/>
<path d="M59 68.5H64" stroke="black" stroke-width="3.15" stroke-linecap="round"/>
<path d="M80 15L80 33.5" stroke="#5076FF" stroke-width="3.15" stroke-linecap="round"/>
<path d="M85 19.5L85 38" stroke="#5076FF" stroke-width="3.15" stroke-linecap="round"/>
<path d="M90 23.5L90 42" stroke="#5076FF" stroke-width="3.15" stroke-linecap="round"/>
</svg>
