<svg width="151" height="123" viewBox="0 0 151 123" fill="none" xmlns="http://www.w3.org/2000/svg">
<circle cx="89.5" cy="61.5" r="61.5" fill="#D7E0FF"/>
<defs>
<linearGradient id="paint0_linear_676_11" x1="89.0863" y1="60.5129" x2="89.0863" y2="105.423" gradientUnits="userSpaceOnUse">
<stop stop-color="#00DDB5"/>
<stop offset="1" stop-color="#00BE9C"/>
</linearGradient>
</defs>
<path d="M116.242 75.8455C114.411 71.5038 114.113 61.5464 127.576 56.4506" stroke="black" stroke-width="4.49542" stroke-linecap="round"/>
<circle cx="131.759" cy="56.2309" r="5.84405" transform="rotate(106.027 131.759 56.2309)" fill="#00BB99"/>
<path d="M94.8299 85.9995C99.5372 86.2171 108.651 90.2384 107.449 104.584" stroke="black" stroke-width="4.49542" stroke-linecap="round"/>
<path d="M64.7594 75.2206C65.7475 70.613 64.1793 60.7754 50.0008 58.2854" stroke="black" stroke-width="4.49542" stroke-linecap="round"/>
<path d="M83.1764 84.9997C78.4959 85.5464 69.6859 90.1964 71.8899 104.422" stroke="black" stroke-width="4.49542" stroke-linecap="round"/>
<rect width="14.8349" height="8.99085" rx="4.49542" transform="matrix(-0.998934 -0.0461609 -0.0461609 0.998934 118.395 101.938)" fill="#00DDB5"/>
<rect width="14.8349" height="8.99085" rx="4.49542" transform="matrix(-0.993246 0.116028 0.116028 0.993246 73.7349 101.037)" fill="#00DDB5"/>
<circle cx="5.84405" cy="5.84405" r="5.84405" transform="matrix(0.45085 0.8926 0.8926 -0.45085 38 56.2695)" fill="#00BB99"/>
<path d="M50.2009 75.8723C50.2009 71.6124 53.0044 68.911 59.442 67.0408C61.2166 66.521 63.2258 65.2069 64.9581 63.4972C68.7773 59.7279 64.9118 55.0923 59.5458 55.0923V55.0923C53.9389 55.0923 50.2009 51.1441 50.2009 45.3257V36.2864C50.2009 30.3641 53.9389 26.5198 59.5458 26.5198H68.5793C73.5633 26.5198 73.3556 18 78.3396 18H100.56C105.336 18 105.336 26.5198 110.32 26.5198H118.627C124.234 26.5198 127.972 30.3641 127.972 36.2864V45.3257C127.972 51.1441 124.234 55.0923 118.627 55.0923V55.0923C113.314 55.0923 109.392 59.6156 113.127 63.3942C114.866 65.154 116.92 66.5106 118.731 67.0408C125.272 68.911 127.972 71.5085 127.972 75.8723V87.1973C127.972 93.1196 124.13 96.9639 118.627 96.6522C111.49 96.2391 105.056 94.5853 99.6498 91.9005C93.3976 88.7956 85.0466 88.7507 78.7872 91.8412C73.2789 94.561 66.7354 96.2361 59.5458 96.6522C54.0427 96.9639 50.2009 93.1196 50.2009 87.1973V75.8723Z" fill="url(#paint0_linear_676_11)"/>
<path d="M90.8453 53.7079C90.5529 54.5981 91.0376 55.5567 91.9278 55.8491C92.818 56.1414 93.7766 55.6567 94.069 54.7665L90.8453 53.7079ZM94.069 54.7665C94.6809 52.903 96.056 50.2303 98.1112 48.318C100.108 46.4597 102.651 45.3819 105.879 46.2879L106.796 43.021C102.162 41.7208 98.4396 43.3777 95.7999 45.8339C93.2181 48.2362 91.5841 51.4579 90.8453 53.7079L94.069 54.7665Z" fill="white"/>
<circle cx="100.891" cy="57.1549" r="10.4471" transform="rotate(180 100.891 57.1549)" fill="white"/>
<path d="M66.5704 53.7079C66.278 54.5981 66.7627 55.5567 67.6529 55.8491C68.5431 56.1414 69.5017 55.6567 69.7941 54.7665L66.5704 53.7079ZM69.7941 54.7665C70.406 52.903 71.7811 50.2303 73.8363 48.318C75.8335 46.4597 78.3756 45.3819 81.6045 46.2879L82.5211 43.021C77.8875 41.7208 74.1647 43.3777 71.525 45.8339C68.9432 48.2362 67.3092 51.4579 66.5704 53.7079L69.7941 54.7665Z" fill="white"/>
<circle cx="76.6164" cy="57.1549" r="10.4471" transform="rotate(180 76.6164 57.1549)" fill="white"/>
<mask id="mask0_676_11" style="mask-type:alpha" maskUnits="userSpaceOnUse" x="85" y="64" width="8" height="10">
<ellipse cx="4" cy="4.8" rx="4" ry="4.8" transform="matrix(-1 0 0 1 93 64)" fill="black"/>
</mask>
<g mask="url(#mask0_676_11)">
<rect x="78.6001" y="60.7998" width="22.4" height="8" fill="black"/>
</g>
<ellipse cx="6.51836" cy="7.64222" rx="6.51836" ry="7.64222" transform="matrix(-1 0 0 1 85.0366 49)" fill="black"/>
<ellipse cx="6.51836" cy="7.64222" rx="6.51836" ry="7.64222" transform="matrix(-1 0 0 1 106.037 49)" fill="black"/>
<path d="M119 43C119 46.3137 117.881 49 116.5 49C115.119 49 114 46.3137 114 43" stroke="white" stroke-linecap="round"/>
<path d="M112 33C112 36.3137 110.881 39 109.5 39C108.119 39 107 36.3137 107 33" stroke="white" stroke-linecap="round"/>
<line x1="41.8042" y1="21.3819" x2="16.3821" y2="46.804" stroke="#FF6262" stroke-width="5.70527" stroke-linecap="round"/>
<line x1="42.5253" y1="46.8101" x2="17.1032" y2="21.388" stroke="#FF6262" stroke-width="5.70527" stroke-linecap="round"/>
</svg>
