<svg width="128" height="120" viewBox="0 0 128 120" fill="none" xmlns="http://www.w3.org/2000/svg">
<rect width="128" height="120" rx="60" fill="#D7E0FF"/>
<defs>
<linearGradient id="paint0_linear_676_14" x1="64.1084" y1="59.3545" x2="64.1084" y2="96.7025" gradientUnits="userSpaceOnUse">
<stop stop-color="#00DDB5"/>
<stop offset="1" stop-color="#00BE9C"/>
</linearGradient>
</defs>
<path d="M71.0248 81.9463C74.9437 81.9463 82.6694 84.9371 82.2216 96.9002" stroke="black" stroke-width="4.95488" stroke-linecap="round"/>
<path d="M42.2197 73.0433C39.17 70.5823 31.2795 68.0579 24.1151 77.649" stroke="black" stroke-width="4.95488" stroke-linecap="round"/>
<path d="M57.1922 81.9463C53.2734 81.9463 45.5476 84.9371 45.9955 96.9002" stroke="black" stroke-width="4.95488" stroke-linecap="round"/>
<rect width="12.337" height="7.47696" rx="3.73848" transform="matrix(-1 0 0 1 91.2124 94.2842)" fill="#00DDB5"/>
<rect width="12.337" height="7.47696" rx="3.73848" transform="matrix(-1 0 0 1 47.8462 94.2842)" fill="#00DDB5"/>
<circle cx="4.86002" cy="4.86002" r="4.86002" transform="matrix(1 0 0 -1 18.1191 85.8027)" fill="#00BB99"/>
<path d="M31.7706 72.1277C31.7706 68.5851 34.102 66.3385 39.4557 64.7833C40.9315 64.351 42.6024 63.2582 44.043 61.8364C47.2191 58.7017 44.0045 54.8467 39.542 54.8467C34.8792 54.8467 31.7706 51.5633 31.7706 46.7246V39.2073C31.7706 34.2822 34.8792 31.0852 39.542 31.0852H47.0544C51.1992 31.0852 51.0265 24 55.1713 24H73.65C77.6221 24 77.6221 31.0852 81.7669 31.0852H88.6748C93.3377 31.0852 96.4463 34.2822 96.4463 39.2073V46.7246C96.4463 51.5633 93.3377 54.8467 88.6748 54.8467C84.2565 54.8467 80.995 58.6083 84.101 61.7507C85.5476 63.2142 87.2559 64.3424 88.7612 64.7833C94.2012 66.3385 96.4463 68.4987 96.4463 72.1277V81.5459C96.4463 86.471 93.2514 89.6679 88.6748 89.4087C84.1114 89.1446 79.8939 88.2705 76.1447 86.8658C68.9396 84.1664 59.4953 84.1123 52.2908 86.8132C48.4615 88.2487 44.1622 89.1413 39.542 89.4087C34.9655 89.6679 31.7706 86.471 31.7706 81.5459V72.1277Z" fill="url(#paint0_linear_676_14)"/>
<path d="M66.9121 66.6182C66.9121 66.6182 64.8653 65.1228 63.1736 65.1228C61.4819 65.1228 59.4351 66.6182 59.4351 66.6182" stroke="black" stroke-width="3.46842" stroke-linecap="round"/>
<path d="M45.1191 53.9998C46.1191 55.5 48.147 57.5 52.6191 57.5C56.6191 57.5 59.1191 55 60.1191 53.9998" stroke="black" stroke-width="3" stroke-linecap="round"/>
<path d="M68.1191 53.9998C69.1191 55.5 71.147 57.5 75.6191 57.5C79.6191 57.5 82.1191 55 83.1191 53.9998" stroke="black" stroke-width="3" stroke-linecap="round"/>
<path d="M97.2934 73.0265C98.5048 69.2996 98.0486 61.0277 86.5329 57.7557" stroke="black" stroke-width="4.95488" stroke-linecap="round"/>
<circle cx="4.86002" cy="4.86002" r="4.86002" transform="matrix(0.356692 0.934222 0.934222 -0.356692 76.7778 55.0625)" fill="#00BB99"/>
<path d="M35.2991 55.996C35.2991 56.252 35.2311 56.456 35.0951 56.608C34.9591 56.76 34.7751 56.836 34.5431 56.836H29.8751C29.6511 56.836 29.4671 56.76 29.3231 56.608C29.1871 56.456 29.1191 56.252 29.1191 55.996V55.804C29.1191 55.548 29.1591 55.284 29.2391 55.012C29.3271 54.732 29.4391 54.492 29.5751 54.292L31.2671 51.736H29.8751C29.6511 51.736 29.4671 51.66 29.3231 51.508C29.1871 51.356 29.1191 51.152 29.1191 50.896V49.84C29.1191 49.584 29.1871 49.38 29.3231 49.228C29.4671 49.076 29.6511 49 29.8751 49H34.4711C34.7031 49 34.8871 49.076 35.0231 49.228C35.1591 49.38 35.2271 49.584 35.2271 49.84V50.032C35.2271 50.288 35.1831 50.556 35.0951 50.836C35.0151 51.108 34.9071 51.344 34.7711 51.544L33.0791 54.1H34.5431C34.7751 54.1 34.9591 54.176 35.0951 54.328C35.2311 54.48 35.2991 54.684 35.2991 54.94V55.996Z" fill="black"/>
<path d="M27.1191 45.8208C27.1191 46.1802 27.0311 46.4666 26.8551 46.6799C26.679 46.8933 26.4408 47 26.1405 47H20.0978C19.8078 47 19.5696 46.8933 19.3832 46.6799C19.2072 46.4666 19.1191 46.1802 19.1191 45.8208V45.5513C19.1191 45.1919 19.1709 44.8213 19.2745 44.4395C19.3884 44.0465 19.5334 43.7095 19.7094 43.4288L21.8997 39.8407H20.0978C19.8078 39.8407 19.5696 39.734 19.3832 39.5207C19.2072 39.3073 19.1191 39.0209 19.1191 38.6616V37.1792C19.1191 36.8198 19.2072 36.5334 19.3832 36.3201C19.5696 36.1067 19.8078 36 20.0978 36H26.0473C26.3476 36 26.5858 36.1067 26.7619 36.3201C26.9379 36.5334 27.0259 36.8198 27.0259 37.1792V37.4487C27.0259 37.8081 26.969 38.1843 26.8551 38.5773C26.7515 38.9592 26.6117 39.2905 26.4356 39.5712L24.2454 43.1593H26.1405C26.4408 43.1593 26.679 43.266 26.8551 43.4793C27.0311 43.6927 27.1191 43.9791 27.1191 44.3384V45.8208Z" fill="black"/>
</svg>
