<svg width="157" height="120" viewBox="0 0 157 120" fill="none" xmlns="http://www.w3.org/2000/svg">
<rect width="128" height="120" rx="60" fill="#D7E0FF"/>
<defs>
<linearGradient id="paint0_linear_676_18" x1="63.0863" y1="56.0793" x2="63.0863" y2="100.989" gradientUnits="userSpaceOnUse">
<stop stop-color="#00DDB5"/>
<stop offset="1" stop-color="#00BE9C"/>
</linearGradient>
</defs>
<path d="M71.4024 83.2461C76.1147 83.2461 85.4048 86.8424 84.8662 101.228" stroke="black" stroke-width="4.49542" stroke-linecap="round"/>
<path d="M54.7695 83.2461C50.0571 83.2461 40.7671 86.8424 41.3056 101.228" stroke="black" stroke-width="4.49542" stroke-linecap="round"/>
<rect width="14.8349" height="8.99085" rx="4.49542" transform="matrix(-1 0 0 1 95.6777 98.0801)" fill="#00DDB5"/>
<rect width="14.8349" height="8.99085" rx="4.49542" transform="matrix(-1 0 0 1 43.5312 98.0801)" fill="#00DDB5"/>
<path d="M38.9805 62.4694C35.3133 59.51 25.8252 56.4746 17.2103 68.0077" stroke="black" stroke-width="4.49542" stroke-linecap="round"/>
<circle cx="5.84405" cy="5.84405" r="5.84405" transform="matrix(1 0 0 -1 10 77.8105)" fill="#00BB99"/>
<path d="M24.2009 71.4387C24.2009 67.1788 27.0044 64.4774 33.442 62.6072C35.2166 62.0874 37.2258 60.7733 38.9581 59.0636C42.7773 55.2943 38.9118 50.6587 33.5458 50.6587V50.6587C27.9389 50.6587 24.2009 46.7105 24.2009 40.8921V31.8528C24.2009 25.9305 27.9389 22.0862 33.5458 22.0862H42.5793C47.5633 22.0862 47.3556 13.5664 52.3396 13.5664H74.5598C79.3361 13.5664 79.3361 22.0862 84.3201 22.0862H92.6267C98.2337 22.0862 101.972 25.9305 101.972 31.8528V40.8921C101.972 46.7105 98.2337 50.6587 92.6267 50.6587V50.6587C87.3137 50.6587 83.3919 55.182 87.1269 58.9606C88.8663 60.7204 90.9204 62.077 92.7306 62.6072C99.272 64.4774 101.972 67.0749 101.972 71.4387V82.7638C101.972 88.686 98.1299 92.5304 92.6267 92.2187C85.4895 91.8055 79.056 90.1517 73.6498 87.4669C67.3976 84.362 59.0466 84.3171 52.7872 87.4076C47.2789 90.1274 40.7354 91.8025 33.5458 92.2187C28.0427 92.5304 24.2009 88.686 24.2009 82.7638V71.4387Z" fill="url(#paint0_linear_676_18)"/>
<path d="M64.8453 49.2743C64.5529 50.1645 65.0376 51.1231 65.9278 51.4155C66.818 51.7078 67.7766 51.2231 68.069 50.3329L64.8453 49.2743ZM68.069 50.3329C68.6809 48.4694 70.056 45.7967 72.1112 43.8844C74.1084 42.0261 76.6505 40.9483 79.8794 41.8543L80.7961 38.5874C76.1624 37.2872 72.4396 38.9441 69.7999 41.4003C67.2181 43.8026 65.5841 47.0243 64.8453 49.2743L68.069 50.3329Z" fill="white"/>
<circle cx="74.8913" cy="52.7218" r="10.4471" transform="rotate(180 74.8913 52.7218)" fill="white"/>
<path d="M40.5704 49.2743C40.278 50.1645 40.7627 51.1231 41.6529 51.4155C42.5431 51.7078 43.5017 51.2231 43.7941 50.3329L40.5704 49.2743ZM43.7941 50.3329C44.406 48.4694 45.7811 45.7967 47.8363 43.8844C49.8335 42.0261 52.3756 40.9483 55.6045 41.8543L56.5211 38.5874C51.8875 37.2872 48.1647 38.9441 45.525 41.4003C42.9432 43.8026 41.3092 47.0243 40.5704 49.2743L43.7941 50.3329Z" fill="white"/>
<circle cx="50.6164" cy="52.7218" r="10.4471" transform="rotate(180 50.6164 52.7218)" fill="white"/>
<ellipse cx="6.51836" cy="7.64222" rx="6.51836" ry="7.64222" transform="matrix(-1 0 0 1 58.8843 44.5664)" fill="black"/>
<ellipse cx="6.51836" cy="7.64222" rx="6.51836" ry="7.64222" transform="matrix(-1 0 0 1 80.0366 44.5664)" fill="black"/>
<path d="M97.2795 66.0754C101.879 67.1004 111.729 65.6108 114.332 51.4527" stroke="black" stroke-width="4.49542" stroke-linecap="round"/>
<circle cx="5.84405" cy="5.84405" r="5.84405" transform="matrix(-0.896176 0.443698 0.443698 0.896176 116.444 39.4678)" fill="#00BB99"/>
<path d="M139.34 20.4116C139.493 20.304 139.668 20.2309 139.852 20.1973L150.468 18.2588C151.553 18.0607 152.371 19.2242 151.818 20.1779L146.406 29.5145C146.312 29.6762 146.184 29.8157 146.031 29.9233L123.012 46.1151C122.429 46.5256 121.623 46.3853 121.212 45.8016L116.008 38.4036C115.598 37.8199 115.738 37.0139 116.322 36.6034L139.34 20.4116Z" fill="black"/>
<path d="M138.251 21.178C138.835 20.7674 139.641 20.9077 140.052 21.4914L142.653 25.1904L145.255 28.8894C145.666 29.4731 145.526 30.2791 144.942 30.6897L122.748 46.3014C122.164 46.7119 121.358 46.5716 120.948 45.9879L115.744 38.5899C115.333 38.0062 115.474 37.2002 116.057 36.7896L138.251 21.178Z" fill="#5076FF"/>
<mask id="mask0_676_18" style="mask-type:alpha" maskUnits="userSpaceOnUse" x="115" y="18" width="37" height="29">
<path d="M139.34 20.4116C139.493 20.304 139.668 20.2309 139.852 20.1973L150.468 18.2588C151.553 18.0607 152.371 19.2242 151.818 20.1779L146.406 29.5145C146.312 29.6762 146.184 29.8157 146.031 29.9233L123.012 46.1151C122.429 46.5256 121.623 46.3853 121.212 45.8016L116.008 38.4036C115.598 37.8199 115.738 37.0139 116.322 36.6034L139.34 20.4116Z" fill="black"/>
</mask>
<g mask="url(#mask0_676_18)">
<path d="M168.372 -0.00976562L171.717 4.74609L175.062 9.50195L150.755 26.6004L144.064 17.0887L168.372 -0.00976562Z" fill="#5076FF"/>
</g>
<circle cx="63" cy="66" r="3" fill="#150101"/>
<path d="M30.9998 32.5C30.8331 33.8333 30.8998 36.5 32.4998 36.5C34.0998 36.5 34.1666 33.8333 34 32.5" stroke="white" stroke-linecap="round"/>
<path d="M85.0797 68C84.8664 69.6667 84.9517 73 86.9999 73C89.0481 73 89.1336 69.6667 88.9203 68" stroke="white" stroke-linecap="round"/>
</svg>
