<svg width="136" height="120" viewBox="0 0 136 120" fill="none" xmlns="http://www.w3.org/2000/svg">
<rect width="128" height="120" rx="60" fill="#D7E0FF"/>
<defs>
<linearGradient id="paint0_linear_676_16" x1="63.086" y1="56.0793" x2="63.086" y2="100.989" gradientUnits="userSpaceOnUse">
<stop stop-color="#00DDB5"/>
<stop offset="1" stop-color="#00BE9C"/>
</linearGradient>
</defs>
<path d="M71.4024 83.2461C76.1147 83.2461 85.4048 86.8424 84.8662 101.228" stroke="black" stroke-width="4.49542" stroke-linecap="round"/>
<path d="M43.9805 60.8255C40.3133 63.7849 30.8252 66.8203 22.2103 55.2873" stroke="black" stroke-width="4.49542" stroke-linecap="round"/>
<path d="M54.7695 83.2461C50.0571 83.2461 40.7671 86.8424 41.3056 101.228" stroke="black" stroke-width="4.49542" stroke-linecap="round"/>
<rect width="14.8349" height="8.99085" rx="4.49542" transform="matrix(-1 0 0 1 95.6777 98.0801)" fill="#00DDB5"/>
<rect width="14.8349" height="8.99085" rx="4.49542" transform="matrix(-1 0 0 1 43.531 98.0801)" fill="#00DDB5"/>
<circle cx="20.844" cy="51.3284" r="5.84405" fill="#00BB99"/>
<path d="M24.2006 71.4387C24.2006 67.1788 27.0041 64.4774 33.4418 62.6072C35.2164 62.0874 37.2256 60.7733 38.9579 59.0636C42.7771 55.2943 38.9116 50.6587 33.5456 50.6587V50.6587C27.9386 50.6587 24.2006 46.7105 24.2006 40.8921V31.8528C24.2006 25.9305 27.9386 22.0862 33.5456 22.0862H42.579C47.563 22.0862 47.3554 13.5664 52.3393 13.5664H74.5596C79.3359 13.5664 79.3359 22.0862 84.3198 22.0862H92.6265C98.2335 22.0862 101.971 25.9305 101.971 31.8528V40.8921C101.971 46.7105 98.2335 50.6587 92.6265 50.6587V50.6587C87.3135 50.6587 83.3917 55.182 87.1266 58.9606C88.8661 60.7204 90.9202 62.077 92.7303 62.6072C99.2718 64.4774 101.971 67.0749 101.971 71.4387V82.7638C101.971 88.686 98.1296 92.5304 92.6265 92.2187C85.4893 91.8055 79.0558 90.1517 73.6495 87.4669C67.3973 84.362 59.0463 84.3171 52.787 87.4076C47.2787 90.1274 40.7351 91.8025 33.5456 92.2187C28.0424 92.5304 24.2006 88.686 24.2006 82.7638V71.4387Z" fill="url(#paint0_linear_676_16)"/>
<path d="M64.8453 49.2743C64.5529 50.1645 65.0376 51.1231 65.9278 51.4155C66.818 51.7078 67.7766 51.2231 68.069 50.3329L64.8453 49.2743ZM68.069 50.3329C68.6809 48.4694 70.056 45.7967 72.1112 43.8844C74.1084 42.0261 76.6505 40.9483 79.8794 41.8543L80.7961 38.5874C76.1624 37.2872 72.4396 38.9441 69.7999 41.4003C67.2181 43.8026 65.5841 47.0243 64.8453 49.2743L68.069 50.3329Z" fill="white"/>
<circle cx="74.8913" cy="52.7218" r="10.4471" transform="rotate(180 74.8913 52.7218)" fill="white"/>
<path d="M40.5699 49.2743C40.2775 50.1645 40.7622 51.1231 41.6524 51.4155C42.5426 51.7078 43.5012 51.2231 43.7936 50.3329L40.5699 49.2743ZM43.7936 50.3329C44.4055 48.4694 45.7807 45.7967 47.8358 43.8844C49.833 42.0261 52.3751 40.9483 55.604 41.8543L56.5207 38.5874C51.887 37.2872 48.1642 38.9441 45.5245 41.4003C42.9427 43.8026 41.3087 47.0243 40.5699 49.2743L43.7936 50.3329Z" fill="white"/>
<circle cx="50.6159" cy="52.7218" r="10.4471" transform="rotate(180 50.6159 52.7218)" fill="white"/>
<ellipse cx="6.51836" cy="7.64222" rx="6.51836" ry="7.64222" transform="matrix(-1 0 0 1 58.8843 44.5664)" fill="black"/>
<ellipse cx="6.51836" cy="7.64222" rx="6.51836" ry="7.64222" transform="matrix(-1 0 0 1 80.0366 44.5664)" fill="black"/>
<path d="M66.991 62.5664C66.991 62.5664 64.5298 64.3646 62.4955 64.3646C60.4613 64.3646 58.0001 62.5664 58.0001 62.5664" stroke="black" stroke-width="3.1468" stroke-linecap="round"/>
<path d="M94.3623 64.5427C99.0616 64.1924 108.059 59.9153 106.452 45.6098" stroke="black" stroke-width="4.49542" stroke-linecap="round"/>
<circle cx="5.84405" cy="5.84405" r="5.84405" transform="matrix(-0.729367 0.684122 0.684122 0.729367 105.004 33.5264)" fill="#00BB99"/>
<path d="M119.091 13.7241C119.195 13.5685 119.331 13.4372 119.49 13.3393L128.684 7.68769C129.623 7.11042 130.807 7.89857 130.637 8.98772L128.973 19.6506C128.944 19.8354 128.876 20.0116 128.772 20.1673L113.18 43.596C112.784 44.1901 111.982 44.3512 111.388 43.9558L103.858 38.9445C103.264 38.5491 103.103 37.747 103.499 37.1529L119.091 13.7241Z" fill="black"/>
<path d="M118.353 14.8325C118.749 14.2384 119.551 14.0774 120.145 14.4727L123.91 16.9784L127.675 19.4841C128.269 19.8795 128.43 20.6816 128.034 21.2757L113 43.865C112.605 44.459 111.803 44.6201 111.209 44.2247L103.679 39.2134C103.085 38.818 102.924 38.0159 103.319 37.4218L118.353 14.8325Z" fill="#5076FF"/>
<mask id="mask0_676_16" style="mask-type:alpha" maskUnits="userSpaceOnUse" x="103" y="7" width="28" height="38">
<path d="M119.091 13.7241C119.195 13.5685 119.331 13.4372 119.49 13.3393L128.684 7.68769C129.623 7.11042 130.807 7.89857 130.637 8.98772L128.973 19.6506C128.944 19.8354 128.876 20.0116 128.772 20.1673L113.18 43.596C112.784 44.1901 111.982 44.3512 111.388 43.9558L103.858 38.9445C103.264 38.5491 103.103 37.747 103.499 37.1529L119.091 13.7241Z" fill="black"/>
</mask>
<g mask="url(#mask0_676_16)">
<path d="M138.756 -15.8242L143.597 -12.6026L148.437 -9.38107L131.972 15.3596L122.291 8.91644L138.756 -15.8242Z" fill="#5076FF"/>
</g>
</svg>
