<svg width="159" height="124" viewBox="0 0 159 124" fill="none" xmlns="http://www.w3.org/2000/svg">
<circle cx="97.5" cy="62.5" r="61.5" fill="#D7E0FF"/>
<defs>
<linearGradient id="paint0_linear_676_9" x1="101.086" y1="65.5129" x2="101.086" y2="110.423" gradientUnits="userSpaceOnUse">
<stop stop-color="#00DDB5"/>
<stop offset="1" stop-color="#00BE9C"/>
</linearGradient>
</defs>
<path d="M109.402 92.6792C114.115 92.6792 123.405 96.2755 122.866 110.661" stroke="black" stroke-width="4.49542" stroke-linecap="round"/>
<path d="M81.9805 70.2596C78.3133 73.219 68.8252 76.2544 60.2103 64.7213" stroke="black" stroke-width="4.49542" stroke-linecap="round"/>
<path d="M92.7695 92.6792C88.0571 92.6792 78.7671 96.2755 79.3056 110.661" stroke="black" stroke-width="4.49542" stroke-linecap="round"/>
<rect width="14.8349" height="8.99085" rx="4.49542" transform="matrix(-1 0 0 1 133.678 107.514)" fill="#00DDB5"/>
<rect width="14.8349" height="8.99085" rx="4.49542" transform="matrix(-1 0 0 1 81.5312 107.514)" fill="#00DDB5"/>
<circle cx="58.8441" cy="60.7615" r="5.84405" fill="#00BB99"/>
<path d="M62.2004 80.8723C62.2004 76.6124 65.0039 73.911 71.4415 72.0408C73.2161 71.521 75.2253 70.2069 76.9576 68.4972C80.7768 64.7279 76.9113 60.0923 71.5453 60.0923V60.0923C65.9384 60.0923 62.2004 56.1441 62.2004 50.3257V41.2864C62.2004 35.3641 65.9384 31.5198 71.5453 31.5198H80.5788C85.5628 31.5198 85.3551 23 90.3391 23H112.559C117.336 23 117.336 31.5198 122.32 31.5198H130.626C136.233 31.5198 139.971 35.3641 139.971 41.2864V50.3257C139.971 56.1441 136.233 60.0923 130.626 60.0923V60.0923C125.313 60.0923 121.391 64.6156 125.126 68.3942C126.866 70.154 128.92 71.5106 130.73 72.0408C137.272 73.911 139.971 76.5085 139.971 80.8723V92.1973C139.971 98.1196 136.129 101.964 130.626 101.652C123.489 101.239 117.056 99.5853 111.649 96.9005C105.397 93.7956 97.0461 93.7507 90.7868 96.8412C85.2784 99.561 78.7349 101.236 71.5453 101.652C66.0422 101.964 62.2004 98.1196 62.2004 92.1973V80.8723Z" fill="url(#paint0_linear_676_9)"/>
<path d="M102.845 58.7079C102.553 59.5981 103.038 60.5567 103.928 60.8491C104.818 61.1414 105.777 60.6567 106.069 59.7665L102.845 58.7079ZM106.069 59.7665C106.681 57.903 108.056 55.2303 110.111 53.318C112.108 51.4597 114.651 50.3819 117.879 51.2879L118.796 48.021C114.162 46.7208 110.44 48.3777 107.8 50.8339C105.218 53.2362 103.584 56.4579 102.845 58.7079L106.069 59.7665Z" fill="white"/>
<circle cx="112.891" cy="62.1549" r="10.4471" transform="rotate(180 112.891 62.1549)" fill="white"/>
<path d="M78.5699 58.7079C78.2775 59.5981 78.7622 60.5567 79.6524 60.8491C80.5426 61.1414 81.5012 60.6567 81.7936 59.7665L78.5699 58.7079ZM81.7936 59.7665C82.4055 57.903 83.7807 55.2303 85.8358 53.318C87.833 51.4597 90.3751 50.3819 93.604 51.2879L94.5207 48.021C89.887 46.7208 86.1642 48.3777 83.5245 50.8339C80.9427 53.2362 79.3087 56.4579 78.5699 58.7079L81.7936 59.7665Z" fill="white"/>
<circle cx="88.6159" cy="62.1549" r="10.4471" transform="rotate(180 88.6159 62.1549)" fill="white"/>
<ellipse cx="6.51836" cy="7.64222" rx="6.51836" ry="7.64222" transform="matrix(-1 0 0 1 96.8843 54.7544)" fill="black"/>
<path d="M107.437 62.9038C107.437 62.9038 109.898 61.1056 111.932 61.1056C113.966 61.1056 116.427 62.9038 116.427 62.9038" stroke="black" stroke-width="3.1468" stroke-linecap="round"/>
<path d="M105.991 72C105.991 72 103.53 73.7982 101.496 73.7982C99.4616 73.7982 97.0004 72 97.0004 72" stroke="black" stroke-width="3.1468" stroke-linecap="round"/>
<path d="M132.363 73.9763C137.062 73.626 146.059 69.3489 144.452 55.0434" stroke="black" stroke-width="4.49542" stroke-linecap="round"/>
<circle cx="5.84405" cy="5.84405" r="5.84405" transform="matrix(-0.729367 0.684122 0.684122 0.729367 143.004 42.96)" fill="#00BB99"/>
<path d="M58.4681 57.3751C59.2094 59.8239 56.742 62.0173 54.397 60.994L30.5753 50.5995C28.5683 49.7238 28.1454 47.0625 29.782 45.6077L46.0726 31.1265C47.7092 29.6717 50.3025 30.4036 50.937 32.4994L58.4681 57.3751Z" fill="#FFE072"/>
<mask id="mask0_676_9" style="mask-type:alpha" maskUnits="userSpaceOnUse" x="28" y="30" width="31" height="32">
<path d="M58.4681 57.3751C59.2094 59.8239 56.742 62.0173 54.397 60.994L30.5753 50.5995C28.5683 49.7238 28.1454 47.0625 29.782 45.6077L46.0726 31.1265C47.7092 29.6717 50.3025 30.4036 50.937 32.4994L58.4681 57.3751Z" fill="#FF5E5E"/>
</mask>
<g mask="url(#mask0_676_9)">
<rect x="46.0942" y="24" width="6" height="39" transform="rotate(15 46.0942 24)" fill="#FFA5A5"/>
<rect x="36.0942" y="24" width="6" height="39" transform="rotate(15 36.0942 24)" fill="#FFA5A5"/>
<rect x="53.0942" y="32" width="6" height="39" transform="rotate(15 53.0942 32)" fill="#FFA5A5"/>
</g>
<rect x="17.7676" y="36.7017" width="6" height="6" transform="rotate(-40.966 17.7676 36.7017)" fill="#5076FF"/>
<rect x="23.4131" y="13.3989" width="6" height="6" transform="rotate(19.6158 23.4131 13.3989)" fill="#FFE072"/>
<rect x="34.0142" y="30" width="6" height="6" transform="rotate(19.6158 34.0142 30)" fill="#FFA5A5"/>
<rect x="9.01416" width="6" height="6" transform="rotate(19.6158 9.01416 0)" fill="#01DEB6"/>
<path d="M2.68122 8.08323C2.68122 8.08323 1.33585 14.3034 7.14975 15.0183C12.9636 15.7332 11.6183 21.9533 11.6183 21.9533" stroke="#5076FF" stroke-width="5"/>
</svg>
