<svg width="142" height="123" viewBox="0 0 142 123" fill="none" xmlns="http://www.w3.org/2000/svg">
<circle cx="80.5" cy="61.5" r="61.5" fill="#D7E0FF"/>
<defs>
<linearGradient id="paint0_linear_761_2" x1="84.0863" y1="64.5129" x2="84.0863" y2="109.423" gradientUnits="userSpaceOnUse">
<stop stop-color="#00DDB5"/>
<stop offset="1" stop-color="#00BE9C"/>
</linearGradient>
</defs>
<path d="M92.4024 91.6797C97.1147 91.6797 106.405 95.276 105.866 109.661" stroke="black" stroke-width="4.49542" stroke-linecap="round"/>
<path d="M64.9805 69.2591C61.3133 72.2185 51.8252 75.2539 43.2103 63.7208" stroke="black" stroke-width="4.49542" stroke-linecap="round"/>
<path d="M75.7695 91.6797C71.0571 91.6797 61.7671 95.276 62.3056 109.661" stroke="black" stroke-width="4.49542" stroke-linecap="round"/>
<rect width="14.8349" height="8.99085" rx="4.49542" transform="matrix(-1 0 0 1 116.678 106.514)" fill="#00DDB5"/>
<rect width="14.8349" height="8.99085" rx="4.49542" transform="matrix(-1 0 0 1 64.5312 106.514)" fill="#00DDB5"/>
<circle cx="41.8441" cy="59.762" r="5.84405" fill="#00BB99"/>
<path d="M45.2009 79.8723C45.2009 75.6124 48.0044 72.911 54.442 71.0408C56.2166 70.521 58.2258 69.2069 59.9581 67.4972C63.7773 63.7279 59.9118 59.0923 54.5458 59.0923V59.0923C48.9389 59.0923 45.2009 55.1441 45.2009 49.3257V40.2864C45.2009 34.3641 48.9389 30.5198 54.5458 30.5198H63.5793C68.5633 30.5198 68.3556 22 73.3396 22H95.5598C100.336 22 100.336 30.5198 105.32 30.5198H113.627C119.234 30.5198 122.972 34.3641 122.972 40.2864V49.3257C122.972 55.1441 119.234 59.0923 113.627 59.0923V59.0923C108.314 59.0923 104.392 63.6156 108.127 67.3942C109.866 69.154 111.92 70.5106 113.731 71.0408C120.272 72.911 122.972 75.5085 122.972 79.8723V91.1973C122.972 97.1196 119.13 100.964 113.627 100.652C106.49 100.239 100.056 98.5853 94.6498 95.9005C88.3976 92.7956 80.0466 92.7507 73.7872 95.8412C68.2789 98.561 61.7354 100.236 54.5458 100.652C49.0427 100.964 45.2009 97.1196 45.2009 91.1973V79.8723Z" fill="url(#paint0_linear_761_2)"/>
<path d="M85.8457 57.7079C85.5534 58.5981 86.0381 59.5567 86.9283 59.8491C87.8185 60.1414 88.7771 59.6567 89.0694 58.7665L85.8457 57.7079ZM89.0694 58.7665C89.6814 56.903 91.0565 54.2303 93.1117 52.318C95.1089 50.4597 97.651 49.3819 100.88 50.2879L101.797 47.021C97.1629 45.7208 93.4401 47.3777 90.8004 49.8339C88.2186 52.2362 86.5846 55.4579 85.8457 57.7079L89.0694 58.7665Z" fill="white"/>
<circle cx="95.8917" cy="61.1554" r="10.4471" transform="rotate(180 95.8917 61.1554)" fill="white"/>
<path d="M61.5704 57.7079C61.278 58.5981 61.7627 59.5567 62.6529 59.8491C63.5431 60.1414 64.5017 59.6567 64.7941 58.7665L61.5704 57.7079ZM64.7941 58.7665C65.406 56.903 66.7811 54.2303 68.8363 52.318C70.8335 50.4597 73.3756 49.3819 76.6045 50.2879L77.5211 47.021C72.8875 45.7208 69.1647 47.3777 66.525 49.8339C63.9432 52.2362 62.3092 55.4579 61.5704 57.7079L64.7941 58.7665Z" fill="white"/>
<circle cx="71.6164" cy="61.1554" r="10.4471" transform="rotate(180 71.6164 61.1554)" fill="white"/>
<ellipse cx="6.51836" cy="7.64222" rx="6.51836" ry="7.64222" transform="matrix(-1 0 0 1 79.8848 53.7539)" fill="black"/>
<path d="M90.4365 61.9043C90.4365 61.9043 92.8977 60.1061 94.9319 60.1061C96.9662 60.1061 99.4274 61.9043 99.4274 61.9043" stroke="black" stroke-width="3.1468" stroke-linecap="round"/>
<path d="M88.9912 71C88.9912 71 86.53 72.7982 84.4958 72.7982C82.4616 72.7982 80.0004 71 80.0004 71" stroke="black" stroke-width="3.1468" stroke-linecap="round"/>
<path d="M115.363 72.9763C120.062 72.626 129.059 68.3489 127.452 54.0434" stroke="black" stroke-width="4.49542" stroke-linecap="round"/>
<circle cx="5.84405" cy="5.84405" r="5.84405" transform="matrix(-0.729367 0.684122 0.684122 0.729367 126.004 41.96)" fill="#00BB99"/>
<path d="M41.4686 56.3751C42.2099 58.8239 39.7425 61.0173 37.3975 59.994L13.5758 49.5995C11.5688 48.7238 11.1459 46.0625 12.7825 44.6077L29.0731 30.1265C30.7097 28.6717 33.303 29.4036 33.9375 31.4994L41.4686 56.3751Z" fill="#FFE072"/>
<mask id="mask0_761_2" style="mask-type:alpha" maskUnits="userSpaceOnUse" x="11" y="29" width="31" height="32">
<path d="M41.4686 56.3751C42.2099 58.8239 39.7425 61.0173 37.3975 59.994L13.5758 49.5995C11.5688 48.7238 11.1459 46.0625 12.7825 44.6077L29.0731 30.1265C30.7097 28.6717 33.303 29.4036 33.9375 31.4994L41.4686 56.3751Z" fill="#FF5E5E"/>
</mask>
<g mask="url(#mask0_761_2)">
<rect x="29.0938" y="23" width="6" height="39" transform="rotate(15 29.0938 23)" fill="#FFA5A5"/>
<rect x="19.0938" y="23" width="6" height="39" transform="rotate(15 19.0938 23)" fill="#FFA5A5"/>
<rect x="36.0938" y="31" width="6" height="39" transform="rotate(15 36.0938 31)" fill="#FFA5A5"/>
</g>
<rect x="4.01465" y="34" width="6" height="6" transform="rotate(19.6158 4.01465 34)" fill="#FFE072"/>
<path d="M24.0146 20L29.6664 22.0143L27.6522 27.6661L22.0004 25.6518L24.0146 20Z" fill="#FFA5A5"/>
<rect x="11.0146" y="9" width="6" height="6" transform="rotate(19.6158 11.0146 9)" fill="#01DEB6"/>
<path d="M6.68122 19.0837C6.68122 19.0837 5.33585 25.3038 11.1497 26.0188C16.9636 26.7337 15.6183 32.9538 15.6183 32.9538" stroke="#5076FF" stroke-width="5"/>
</svg>
