<svg width="128" height="120" viewBox="0 0 128 120" fill="none" xmlns="http://www.w3.org/2000/svg">
<rect width="128" height="120" rx="60" fill="#D7E0FF"/>
<defs>
<linearGradient id="paint0_linear_676_13" x1="65.086" y1="55.5129" x2="65.086" y2="100.423" gradientUnits="userSpaceOnUse">
<stop stop-color="#00DDB5"/>
<stop offset="1" stop-color="#00BE9C"/>
</linearGradient>
</defs>
<path d="M70.8299 80.9995C75.5372 81.2171 84.6513 85.2384 83.4493 99.5836" stroke="black" stroke-width="4.49542" stroke-linecap="round"/>
<path d="M42.9805 58.4694C39.3133 55.51 29.8252 52.4746 21.2103 64.0077" stroke="black" stroke-width="4.49542" stroke-linecap="round"/>
<path d="M59.1764 79.9997C54.4959 80.5464 45.6859 85.1964 47.8899 99.4221" stroke="black" stroke-width="4.49542" stroke-linecap="round"/>
<rect width="14.8349" height="8.99085" rx="4.49542" transform="matrix(-0.998934 -0.0461609 -0.0461609 0.998934 94.3945 96.9385)" fill="#00DDB5"/>
<rect width="14.8349" height="8.99085" rx="4.49542" transform="matrix(-0.993246 0.116028 0.116028 0.993246 49.7349 96.0371)" fill="#00DDB5"/>
<circle cx="5.84405" cy="5.84405" r="5.84405" transform="matrix(1 0 0 -1 14 73.8105)" fill="#00BB99"/>
<path d="M26.2006 70.8723C26.2006 66.6124 29.0041 63.911 35.4417 62.0408C37.2164 61.521 39.2256 60.2069 40.9579 58.4972C44.7771 54.7279 40.9116 50.0923 35.5456 50.0923C29.9386 50.0923 26.2006 46.1441 26.2006 40.3257V31.2864C26.2006 25.3641 29.9386 21.5198 35.5456 21.5198H44.579C49.563 21.5198 49.3554 13 54.3393 13H76.5596C81.3359 13 81.3359 21.5198 86.3198 21.5198H94.6265C100.233 21.5198 103.971 25.3641 103.971 31.2864V40.3257C103.971 46.1441 100.233 50.0923 94.6265 50.0923C89.3135 50.0923 85.3917 54.6156 89.1266 58.3942C90.8661 60.154 92.9202 61.5106 94.7303 62.0408C101.272 63.911 103.971 66.5085 103.971 70.8723V82.1973C103.971 88.1196 100.13 91.964 94.6265 91.6523C87.4893 91.2391 81.0558 89.5853 75.6495 86.9005C69.3973 83.7956 61.0463 83.7507 54.787 86.8412C49.2787 89.561 42.7351 91.2361 35.5456 91.6523C30.0424 91.964 26.2006 88.1196 26.2006 82.1973V70.8723Z" fill="url(#paint0_linear_676_13)"/>
<path d="M66.8453 48.7079C66.5529 49.5981 67.0376 50.5567 67.9278 50.8491C68.818 51.1414 69.7766 50.6567 70.069 49.7665L66.8453 48.7079ZM70.069 49.7665C70.6809 47.903 72.056 45.2303 74.1112 43.318C76.1084 41.4597 78.6505 40.3819 81.8794 41.2879L82.7961 38.021C78.1624 36.7208 74.4396 38.3777 71.7999 40.8339C69.2181 43.2362 67.5841 46.4579 66.8453 48.7079L70.069 49.7665Z" fill="white"/>
<circle cx="76.8913" cy="52.1554" r="10.4471" transform="rotate(180 76.8913 52.1554)" fill="white"/>
<path d="M42.5699 48.7079C42.2775 49.5981 42.7622 50.5567 43.6524 50.8491C44.5426 51.1414 45.5012 50.6567 45.7936 49.7665L42.5699 48.7079ZM45.7936 49.7665C46.4055 47.903 47.7807 45.2303 49.8358 43.318C51.833 41.4597 54.3751 40.3819 57.604 41.2879L58.5207 38.021C53.887 36.7208 50.1642 38.3777 47.5245 40.8339C44.9427 43.2362 43.3087 46.4579 42.5699 48.7079L45.7936 49.7665Z" fill="white"/>
<circle cx="52.6159" cy="52.1554" r="10.4471" transform="rotate(180 52.6159 52.1554)" fill="white"/>
<ellipse cx="52.5" cy="62.5" rx="3.5" ry="3.5" transform="rotate(180 52.5 62.5)" fill="white"/>
<ellipse cx="3.5" cy="3.5" rx="3.5" ry="3.5" transform="matrix(1 1.74846e-07 1.74846e-07 -1 73.9998 65.5)" fill="white"/>
<path d="M103.301 78.5089C104.3 73.9036 102.754 64.0624 88.5819 61.5392" stroke="black" stroke-width="4.49542" stroke-linecap="round"/>
<circle cx="5.84405" cy="5.84405" r="5.84405" transform="matrix(0.448762 0.893651 0.893651 -0.448762 76.5847 59.4951)" fill="#00BB99"/>
<path d="M81 49L71 52" stroke="black" stroke-width="3.15" stroke-linecap="round"/>
<path d="M81 55L71 52" stroke="black" stroke-width="3.15" stroke-linecap="round"/>
<path d="M45.8663 71.798C45.2741 73.9257 46.3464 76.0826 48.2613 76.6156C50.1762 77.1486 52.2087 75.8558 52.8008 73.7281C53.393 71.6004 50.7368 67.9056 50.7368 67.9056C50.7368 67.9056 46.4585 69.6704 45.8663 71.798Z" fill="white"/>
<path d="M83.2902 72.3703C83.8824 74.498 82.8101 76.6549 80.8952 77.1879C78.9803 77.7209 76.9478 76.4281 76.3556 74.3004C75.7635 72.1727 78.4197 68.4779 78.4197 68.4779C78.4197 68.4779 82.698 70.2426 83.2902 72.3703Z" fill="white"/>
<ellipse cx="5.4208" cy="6.35542" rx="5.4208" ry="6.35542" transform="matrix(-1 0 0 1 58.8416 46)" fill="black"/>
<path d="M68.4771 62.4951C68.4771 62.4951 66.4303 60.9997 64.7386 60.9997C63.0469 60.9997 61.0001 62.4951 61.0001 62.4951" stroke="black" stroke-width="3.46842" stroke-linecap="round"/>
</svg>
