<svg width="119" height="18" viewBox="0 0 119 18" fill="none" xmlns="http://www.w3.org/2000/svg">
<path d="M7.90039 4.04688V1.39062H5.38086V4.04688C5.37109 7.49414 3.85742 10.9023 0.751953 12.2109L2.25586 14.2812C4.42383 13.2949 5.87891 11.3613 6.67969 8.95898C7.49023 11.1562 8.89648 12.9336 10.9277 13.8516L12.3926 11.8594C9.375 10.5801 7.89062 7.30859 7.90039 4.04688ZM13.3496 17.8359H15.8691V0.0234375H13.3496V17.8359ZM28.3691 1.05859H18.6816V3.05078H22.3145C22.2852 5.26758 20.9375 7.55273 17.998 8.5L19.3262 10.4141C21.3867 9.74023 22.8125 8.35352 23.6035 6.625C24.375 8.20703 25.7324 9.47656 27.7051 10.1211L28.9746 8.1875C26.0938 7.26953 24.8438 5.13086 24.834 3.05078H28.3691V1.05859ZM20.4004 13.4805H29.873V17.7969H32.373V11.5078H20.4004V13.4805ZM29.873 10.7461H32.373V6.41016H34.7754V4.33984H32.373V0.0234375H29.873V10.7461ZM44.1309 2.73828H41.084V0.511719H38.623V2.73828H35.5371V4.71094H44.1309V2.73828ZM35.9473 9.73047C35.9473 12.2109 37.6074 13.9688 39.873 13.9688C42.1484 13.9688 43.7695 12.2109 43.7793 9.73047C43.7695 7.25977 42.1484 5.52148 39.873 5.51172C37.6074 5.52148 35.9473 7.25977 35.9473 9.73047ZM38.1348 9.73047C38.1348 8.39258 38.8379 7.58203 39.873 7.58203C40.8691 7.58203 41.582 8.39258 41.5918 9.73047C41.582 11.0879 40.8691 11.8594 39.873 11.8594C38.8379 11.8594 38.1348 11.0879 38.1348 9.73047ZM44.7949 17.0352H47.1191V9.24219H48.5645V17.7969H50.9277V0.0234375H48.5645V7.25H47.1191V0.375H44.7949V17.0352ZM61.9824 0.296875H59.5215V6.25391H64.2871V7.40625H57.4512V9.35938H73.6621V7.40625H66.748V6.25391H71.5918V0.296875H69.1113V1.52734H61.9824V0.296875ZM59.3262 12.1133H69.2285V13.0703H59.3457V17.6797H72.1582V15.8047H61.7871V14.7891H71.6895V10.2969H59.3262V12.1133ZM61.9824 4.39844V3.32422H69.1113V4.39844H61.9824ZM88.9746 0.0234375H86.4746V17.7969H88.9746V9.04688H91.3379V6.99609H88.9746V0.0234375ZM74.3848 12.6406L76.3379 14.0273C79.5215 10.5312 80.0293 6.72266 80.0488 1.83984H75.166V3.87109H77.666C77.5098 7.41602 76.8066 10.0137 74.3848 12.6406ZM79.4043 13.793L81.377 15.1797C84.5215 11.3125 84.9609 6.9082 84.9707 1.83984H80.6348V3.87109H82.6172C82.4805 7.77734 81.8164 10.8242 79.4043 13.793ZM108.291 13.6758H104.678V9.27148C106.016 8.44141 106.816 7.20117 106.826 5.66797C106.816 2.78711 103.975 0.892578 100.127 0.882812C96.2598 0.892578 93.4473 2.78711 93.4473 5.66797C93.4473 7.23047 94.2773 8.49023 95.6543 9.32031V13.6758H92.0215V15.7266H108.291V13.6758ZM95.9082 5.66797C95.9082 3.88086 97.5781 2.8457 100.127 2.85547C102.637 2.8457 104.355 3.88086 104.365 5.66797C104.355 7.40625 102.637 8.48047 100.127 8.48047C97.5781 8.48047 95.9082 7.40625 95.9082 5.66797ZM98.1152 13.6758V10.2285C98.7402 10.3457 99.4141 10.4141 100.127 10.4141C100.84 10.4141 101.523 10.3457 102.158 10.2188V13.6758H98.1152ZM112.412 11.5469V11.7617H114.99V11.5469C115 10.1797 115.488 9.54492 116.592 8.89062C117.871 8.11914 118.701 7.10352 118.701 5.49219C118.701 3.08008 116.777 1.66406 114.053 1.66406C111.553 1.66406 109.512 2.98242 109.463 5.72656H112.236C112.275 4.58398 113.125 3.97852 114.033 3.96875C114.98 3.97852 115.742 4.61328 115.732 5.58984C115.742 6.48828 115.088 7.09375 114.248 7.64062C113.076 8.37305 112.422 9.11523 112.412 11.5469ZM112.119 14.5352C112.1 15.4434 112.842 16.1758 113.76 16.1758C114.629 16.1758 115.381 15.4434 115.381 14.5352C115.381 13.6367 114.629 12.9043 113.76 12.9141C112.842 12.9043 112.1 13.6367 112.119 14.5352Z" fill="black"/>
</svg>
