<svg width="334" height="551" viewBox="0 0 334 551" fill="none" xmlns="http://www.w3.org/2000/svg">
<rect x="1" y="253.75" width="97.2" height="41.85" rx="20.925" fill="#5076FF"/>
<defs>
<filter id="filter0_b_504_172" x="224" y="302" width="119.2" height="63.8496" filterUnits="userSpaceOnUse" color-interpolation-filters="sRGB">
<feFlood flood-opacity="0" result="BackgroundImageFix"/>
<feGaussianBlur in="BackgroundImageFix" stdDeviation="5"/>
<feComposite in2="SourceAlpha" operator="in" result="effect1_backgroundBlur_504_172"/>
<feBlend mode="normal" in="SourceGraphic" in2="effect1_backgroundBlur_504_172" result="shape"/>
</filter>
<linearGradient id="paint0_linear_504_172" x1="206.139" y1="384.199" x2="206.139" y2="456.242" gradientUnits="userSpaceOnUse">
<stop stop-color="#00DDB5"/>
<stop offset="1" stop-color="#00BE9C"/>
</linearGradient>
<linearGradient id="paint1_linear_504_172" x1="233.5" y1="480.5" x2="242.5" y2="551" gradientUnits="userSpaceOnUse">
<stop stop-color="#505050"/>
<stop offset="1" stop-color="#505050" stop-opacity="0"/>
</linearGradient>
</defs>
<path d="M40.5851 278.9H41.2979L41.6202 276.947H42.6554L42.7726 276.244H41.7325L42.0255 274.486H43.0753L43.1925 273.783H42.1378L42.4601 271.83H41.7472L41.4249 273.783H39.6476L39.9698 271.83H39.2569L38.9347 273.783H37.8995L37.7921 274.486H38.8224L38.5294 276.244H37.4894L37.3722 276.947H38.4171L38.0948 278.9H38.8077L39.13 276.947H40.9073L40.5851 278.9ZM39.2423 276.244L39.5353 274.486H41.3126L41.0196 276.244H39.2423ZM46.0929 271.332C44.7794 271.337 43.8321 272.128 43.837 273.256C43.8321 274.389 44.7794 275.17 46.0929 275.17C47.3917 275.17 48.3341 274.389 48.339 273.256C48.3341 272.128 47.3917 271.337 46.0929 271.332ZM44.589 273.256C44.5792 272.504 45.2188 271.972 46.0929 271.977C46.9522 271.972 47.5968 272.504 47.5968 273.256C47.5968 274.018 46.9522 274.545 46.0929 274.545C45.2188 274.545 44.5792 274.018 44.589 273.256ZM45.1554 276.508H50.0382V277.406H45.1749V279.574H51.1124V278.959H45.9269V277.982H50.7999V275.893H45.1554V276.508ZM50.0382 275.473H50.7999V271.01H50.0382V275.473ZM59.4522 271.01H58.6808V279.691H59.4522V271.01ZM52.3819 277.436L52.8019 278.061C55.712 276.664 56.8741 274.452 56.8839 271.957H52.7823V272.582H56.1026C55.9317 274.657 54.7306 276.322 52.3819 277.436Z" fill="white"/>
<rect x="121.15" y="313.15" width="97.2" height="41.85" rx="20.925" fill="#D7E0FF"/>
<path d="M160.735 337.301H161.448L161.77 335.348H162.806L162.923 334.645H161.883L162.176 332.887H163.225L163.343 332.184H162.288L162.61 330.23H161.897L161.575 332.184H159.798L160.12 330.23H159.407L159.085 332.184H158.05L157.942 332.887H158.973L158.68 334.645H157.64L157.522 335.348H158.567L158.245 337.301H158.958L159.28 335.348H161.057L160.735 337.301ZM159.392 334.645L159.685 332.887H161.463L161.17 334.645H159.392ZM171.214 329.41H170.481V338.092H171.214V329.41ZM163.792 335.66L164.241 336.217C165.452 335.504 166.292 334.61 166.814 333.6H168.655V337.652H169.388V329.645H168.655V332.975H167.098C167.395 332.203 167.532 331.378 167.532 330.523H164.163V331.158H166.77C166.624 332.975 165.677 334.542 163.792 335.66ZM179.593 329.42H178.831V334.381H179.593V329.42ZM172.63 331.91C172.625 333.102 173.587 333.932 174.905 333.932C176.223 333.932 177.176 333.102 177.181 331.91C177.176 330.699 176.223 329.879 174.905 329.879C173.587 329.879 172.625 330.699 172.63 331.91ZM173.382 331.91C173.372 331.1 174.012 330.528 174.905 330.533C175.789 330.528 176.429 331.1 176.429 331.91C176.429 332.716 175.789 333.282 174.905 333.277C174.012 333.282 173.372 332.716 173.382 331.91ZM173.948 337.975H179.593V334.85H173.948V337.975ZM174.7 337.35V335.475H178.841V337.35H174.7Z" fill="#5076FF"/>
<rect x="118.45" y="253.75" width="97.2" height="41.85" rx="20.925" fill="#D7E0FF"/>
<path d="M144.396 278.9H145.109L145.432 276.947H146.467L146.584 276.244H145.544L145.837 274.486H146.887L147.004 273.783H145.949L146.271 271.83H145.558L145.236 273.783H143.459L143.781 271.83H143.068L142.746 273.783H141.711L141.603 274.486H142.634L142.341 276.244H141.301L141.183 276.947H142.228L141.906 278.9H142.619L142.941 276.947H144.719L144.396 278.9ZM143.054 276.244L143.347 274.486H145.124L144.831 276.244H143.054ZM151.965 271.869H147.951V277.514H151.965V271.869ZM148.703 276.889V272.484H151.213V276.889H148.703ZM153.83 279.711H154.601V271.01H153.83V279.711ZM162.805 271.01H162.043V279.711H162.805V275.111H164.26V274.467H162.805V271.01ZM156.428 272.455H159.611V274.291H156.447V277.611H157.141C158.815 277.602 159.973 277.538 161.34 277.289L161.262 276.654C159.948 276.898 158.82 276.962 157.209 276.957V274.926H160.373V271.82H156.428V272.455ZM171.633 271.439H165.734V272.064H170.871V272.094C170.871 272.348 170.876 272.616 170.861 272.899L165.529 273.061L165.627 273.676L170.827 273.451C170.793 273.788 170.744 274.159 170.651 274.574H164.738V275.199H172.639V274.574H171.423C171.633 273.544 171.633 272.763 171.633 272.094V271.439ZM165.666 276.635H170.939V277.455H165.685V279.574H172.004V278.959H166.447V278.041H171.701V276.039H165.666V276.635ZM181.32 277.934H177.697V275.814H180.334V271.742H174.308V275.814H176.945V277.934H173.371V278.578H181.32V277.934ZM175.06 275.199V272.357H179.592V275.199H175.06ZM189.162 271.01H188.4V276.225H189.162V271.01ZM182.56 275.443H183.264C184.86 275.453 186.14 275.355 187.56 275.053L187.453 274.408C186.1 274.701 184.865 274.794 183.332 274.799V271.586H182.56V275.443ZM183.332 277.982C183.332 279.047 184.46 279.672 186.271 279.672C188.078 279.672 189.196 279.047 189.201 277.982C189.196 276.903 188.078 276.269 186.271 276.273C184.46 276.269 183.332 276.903 183.332 277.982ZM184.103 277.982C184.099 277.299 184.929 276.903 186.271 276.908C187.609 276.903 188.43 277.299 188.439 277.982C188.43 278.646 187.609 279.052 186.271 279.057C184.929 279.052 184.099 278.646 184.103 277.982Z" fill="#5076FF"/>
<rect x="234.55" y="193" width="97.2" height="41.85" rx="20.925" fill="#D7E0FF"/>
<path d="M274.81 217.15H275.523L275.845 215.197H276.881L276.998 214.494H275.958L276.251 212.736H277.3L277.418 212.033H276.363L276.685 210.08H275.972L275.65 212.033H273.873L274.195 210.08H273.482L273.16 212.033H272.125L272.017 212.736H273.048L272.755 214.494H271.715L271.597 215.197H272.642L272.32 217.15H273.033L273.355 215.197H275.132L274.81 217.15ZM273.467 214.494L273.76 212.736H275.538L275.245 214.494H273.467ZM285.035 209.26H284.263V217.941H285.035V209.26ZM277.965 215.686L278.384 216.311C281.295 214.914 282.457 212.702 282.466 210.207H278.365V210.832H281.685C281.514 212.907 280.313 214.572 277.965 215.686ZM290.953 210.051H286.881V215.852H287.564C289.21 215.847 290.347 215.798 291.705 215.568L291.617 214.934C290.318 215.158 289.219 215.217 287.652 215.217V213.117H290.757V212.492H287.652V210.695H290.953V210.051ZM292.457 217.941H293.218V213.41H294.673V212.756H293.218V209.26H292.457V217.941Z" fill="#5076FF"/>
<rect x="1" y="313.15" width="97.2" height="41.85" rx="20.925" fill="#D7E0FF"/>
<path d="M41.9351 338.301H42.648L42.9703 336.348H44.0054L44.1226 335.645H43.0826L43.3755 333.887H44.4253L44.5425 333.184H43.4878L43.8101 331.23H43.0972L42.775 333.184H40.9976L41.3199 331.23H40.607L40.2847 333.184H39.2496L39.1421 333.887H40.1724L39.8794 335.645H38.8394L38.7222 336.348H39.7671L39.4449 338.301H40.1578L40.48 336.348H42.2574L41.9351 338.301ZM40.5923 335.645L40.8853 333.887H42.6626L42.3697 335.645H40.5923ZM51.7593 330.41H50.9878V337.207H51.7593V334.102H53.0582V333.457H51.7593V330.41ZM44.9429 335.576L45.0308 336.201C46.5494 336.187 48.6587 336.162 50.5191 335.811L50.4507 335.264C49.6939 335.381 48.8687 335.454 48.0582 335.503V334.873C49.064 334.775 49.6988 334.292 49.7085 333.564C49.6988 332.729 48.898 332.222 47.6675 332.227C46.4468 332.222 45.6314 332.729 45.6363 333.564C45.6314 334.297 46.2857 334.78 47.2964 334.873V335.537C46.4468 335.566 45.6314 335.576 44.9429 335.576ZM45.1578 331.846H50.1871V331.27H48.0582V330.391H47.2964V331.27H45.1578V331.846ZM46.2417 338.906H52.0718V338.262H47.0132V336.748H46.2417V338.906ZM46.3687 333.564C46.3638 333.071 46.8667 332.769 47.6675 332.773C48.4683 332.769 48.9761 333.071 48.9761 333.564C48.9761 334.038 48.4683 334.346 47.6675 334.346C46.8667 334.346 46.3638 334.038 46.3687 333.564ZM60.8218 330.42H60.0503V332.041H58.024C58.0972 331.733 58.1363 331.406 58.1363 331.064H54.1812V331.709H57.3013C57.15 333.213 55.8365 334.39 53.7417 335.01L54.064 335.615C55.9244 335.063 57.2623 334.053 57.8335 332.656H60.0503V333.828H57.7457V334.463H60.0503V335.635H60.8218V330.42ZM55.0796 337.383C55.0748 338.423 56.2027 339.053 57.98 339.053C59.7378 339.053 60.8707 338.423 60.8707 337.383C60.8707 336.348 59.7378 335.723 57.98 335.723C56.2027 335.723 55.0748 336.348 55.0796 337.383ZM55.8316 337.383C55.8365 336.729 56.6714 336.333 57.98 336.338C59.2691 336.333 60.1041 336.729 60.1089 337.383C60.1041 338.037 59.2691 338.433 57.98 338.428C56.6714 338.433 55.8365 338.037 55.8316 337.383Z" fill="#5076FF"/>
<rect x="1" y="194.35" width="97.2" height="41.85" rx="20.925" fill="#D7E0FF"/>
<path d="M40.5853 219.5H41.2981L41.6204 217.547H42.6556L42.7728 216.844H41.7327L42.0257 215.086H43.0755L43.1927 214.383H42.138L42.4603 212.43H41.7474L41.4251 214.383H39.6478L39.97 212.43H39.2571L38.9349 214.383H37.8997L37.7923 215.086H38.8226L38.5296 216.844H37.4896L37.3724 217.547H38.4173L38.095 219.5H38.8079L39.1302 217.547H40.9075L40.5853 219.5ZM39.2425 216.844L39.5354 215.086H41.3128L41.0198 216.844H39.2425ZM51.5716 216.023H43.6224V216.658H47.2747V218.436H48.0462V216.658H51.5716V216.023ZM44.5208 213.582C44.5159 214.651 45.7317 215.315 47.5872 215.311C49.4427 215.315 50.6438 214.651 50.6438 213.582C50.6438 212.503 49.4427 211.839 47.5872 211.834C45.7317 211.839 44.5159 212.503 44.5208 213.582ZM44.6478 220.105H50.6829V219.451H45.4192V217.566H44.6478V220.105ZM45.3411 213.582C45.3313 212.889 46.2347 212.464 47.5872 212.459C48.9349 212.464 49.8333 212.889 49.8333 213.582C49.8333 214.256 48.9349 214.686 47.5872 214.686C46.2347 214.686 45.3313 214.256 45.3411 213.582ZM60.1946 215.906H56.6009V214.891H59.2669V214.266H54.0325V212.635H59.2083V212.02H53.2806V214.891H55.8587V215.906H52.2747V216.521H60.1946V215.906ZM53.2317 218.719C53.2269 219.72 54.3548 220.281 56.2298 220.291C58.0901 220.281 59.2083 219.72 59.2181 218.719C59.2083 217.728 58.0901 217.161 56.2298 217.156C54.3548 217.161 53.2269 217.728 53.2317 218.719ZM54.013 218.719C54.0032 218.118 54.8382 217.762 56.2298 217.762C57.6067 217.762 58.4417 218.118 58.4466 218.719C58.4417 219.329 57.6067 219.681 56.2298 219.676C54.8382 219.681 54.0032 219.329 54.013 218.719Z" fill="#5076FF"/>
<rect x="118.45" y="194.35" width="97.2" height="41.85" rx="20.925" fill="#D7E0FF"/>
<path d="M158.035 219.5H158.748L159.07 217.547H160.105L160.223 216.844H159.183L159.475 215.086H160.525L160.642 214.383H159.588L159.91 212.43H159.197L158.875 214.383H157.098L157.42 212.43H156.707L156.385 214.383H155.35L155.242 215.086H156.272L155.979 216.844H154.939L154.822 217.547H155.867L155.545 219.5H156.258L156.58 217.547H158.357L158.035 219.5ZM156.692 216.844L156.985 215.086H158.763L158.47 216.844H156.692ZM165.008 217.098C163.147 217.098 161.966 217.684 161.971 218.689C161.966 219.686 163.147 220.271 165.008 220.271C166.868 220.271 168.05 219.686 168.055 218.689C168.05 217.684 166.868 217.098 165.008 217.098ZM161.092 216.287H168.992V215.662H165.115V213.982H164.363V215.662H161.092V216.287ZM162.029 212.684H167.225V212.791C167.225 213.47 167.225 214.114 166.99 215.008L167.742 215.096C167.981 214.197 167.981 213.494 167.986 212.791V212.059H162.029V212.684ZM162.732 218.689C162.727 218.069 163.626 217.688 165.008 217.684C166.394 217.688 167.283 218.069 167.293 218.689C167.283 219.295 166.394 219.666 165.008 219.666C163.626 219.666 162.727 219.295 162.732 218.689ZM177.664 216.766H169.715V217.391H173.289V220.291H174.041V217.391H177.664V216.766ZM170.73 215.711H176.639V211.971H175.867V213.172H171.492V211.971H170.73V215.711ZM171.492 215.086V213.797H175.867V215.086H171.492Z" fill="#5076FF"/>
<rect x="234.55" y="253.75" width="97.2" height="41.85" rx="20.925" fill="#D7E0FF"/>
<path d="M269.814 278.9H270.527L270.849 276.947H271.884L272.001 276.244H270.961L271.254 274.486H272.304L272.421 273.783H271.367L271.689 271.83H270.976L270.654 273.783H268.876L269.199 271.83H268.486L268.163 273.783H267.128L267.021 274.486H268.051L267.758 276.244H266.718L266.601 276.947H267.646L267.324 278.9H268.037L268.359 276.947H270.136L269.814 278.9ZM268.471 276.244L268.764 274.486H270.541L270.248 276.244H268.471ZM280.8 276.059H272.851V276.693H276.425V279.691H277.177V276.693H280.8V276.059ZM273.876 274.877H279.765V271.498H273.876V274.877ZM274.628 274.271V272.123H279.003V274.271H274.628ZM284.609 273.676V272.543H286.679V271.908H281.787V272.543H283.837V273.676C283.832 275.18 282.748 276.82 281.503 277.416L281.962 278.021C282.954 277.523 283.832 276.42 284.238 275.146C284.643 276.347 285.517 277.348 286.533 277.807L286.962 277.201C285.683 276.649 284.614 275.15 284.609 273.676ZM287.89 279.691H288.662V271.01H287.89V279.691ZM298.056 274.877H290.156V275.473H293.72V276.283H291.103V276.859H296.288V277.611H291.122V279.594H297.304V279.008H291.884V278.158H297.04V276.283H294.472V275.473H298.056V274.877ZM290.576 273.891L290.8 274.477C292.255 274.354 293.564 273.905 294.101 273.08C294.633 273.905 295.942 274.354 297.392 274.477L297.626 273.891C296.025 273.788 294.667 273.246 294.531 272.377H297.255V271.771H294.472V270.961H293.72V271.771H290.966V272.377H293.666C293.525 273.246 292.167 273.788 290.576 273.891Z" fill="#5076FF"/>
<rect x="1" y="254" width="97.2" height="41.85" rx="20.925" fill="#5076FF"/>
<path d="M37.8482 280.15H39.2574L39.6383 277.853H40.8951L41.1363 276.443H39.8668L40.1588 274.666H41.4156L41.6568 273.244H40.3937L40.7682 270.959H39.3463L38.9718 273.244H37.169L37.5436 270.959H36.1217L35.7472 273.244H34.484L34.2555 274.666H35.5123L35.2203 276.443H33.9635L33.7223 277.853H34.9918L34.6109 280.15H36.0328L36.4137 277.853H38.2228L37.8482 280.15ZM36.6422 276.443L36.9342 274.666H38.7433L38.4513 276.443H36.6422ZM45.3766 270.108C43.5929 270.102 42.2662 271.207 42.2662 272.749C42.2662 274.279 43.5929 275.371 45.3766 275.377C47.1349 275.371 48.4552 274.279 48.4615 272.749C48.4552 271.207 47.1349 270.102 45.3766 270.108ZM43.8404 272.749C43.8277 271.917 44.4879 271.429 45.3766 271.429C46.2525 271.429 46.8937 271.917 46.9 272.749C46.8937 273.574 46.2525 274.063 45.3766 274.069C44.4815 274.063 43.8277 273.574 43.8404 272.749ZM44.0055 277.281H50.15V277.992H44.0309V281.191H52.0797V279.922H45.6178V279.173H51.7623V276.037H44.0055V277.281ZM50.1373 275.555H51.7623V269.766H50.1373V275.555ZM63.0357 269.766H61.398V281.318H63.0357V269.766ZM53.3619 278.043L54.2125 279.338C58.3385 277.389 59.5636 274.476 59.5699 270.972H53.984V272.241H57.9195C57.6593 274.806 56.3453 276.634 53.3619 278.043Z" fill="white"/>
<rect x="121.15" y="313.148" width="97.2" height="41.85" rx="20.925" fill="#D7E0FF"/>
<path d="M157.998 338.299H159.408L159.788 336.001H161.045L161.286 334.592H160.017L160.309 332.814H161.566L161.807 331.393H160.544L160.918 329.107H159.496L159.122 331.393H157.319L157.694 329.107H156.272L155.897 331.393H154.634L154.406 332.814H155.662L155.37 334.592H154.114L153.872 336.001H155.142L154.761 338.299H156.183L156.564 336.001H158.373L157.998 338.299ZM156.792 334.592L157.084 332.814H158.893L158.601 334.592H156.792ZM172.255 327.914H170.732V339.467H172.255V327.914ZM162.099 335.925L163.013 337.067C164.657 336.115 165.73 334.973 166.39 333.652H168.282V338.959H169.792V328.168H168.282V332.37H166.891C167.171 331.418 167.291 330.39 167.291 329.285H162.734V330.593H165.685C165.463 332.859 164.435 334.541 162.099 335.925ZM183.148 327.927H181.523V334.452H183.148V327.927ZM173.652 331.24C173.652 332.827 175.01 333.995 176.813 333.995C178.609 333.995 179.968 332.827 179.974 331.24C179.968 329.59 178.609 328.447 176.813 328.447C175.01 328.447 173.652 329.59 173.652 331.24ZM175.239 331.24C175.226 330.333 175.886 329.806 176.813 329.806C177.714 329.806 178.368 330.333 178.374 331.24C178.368 332.097 177.714 332.637 176.813 332.637C175.886 332.637 175.226 332.097 175.239 331.24ZM175.404 339.34H183.148V334.973H175.404V339.34ZM177.003 338.045V336.255H181.561V338.045H177.003Z" fill="#5076FF"/>
<g filter="url(#filter0_b_504_172)">
<rect x="235" y="313" width="97.2" height="41.85" rx="20.925" fill="#5076FF"/>
<rect x="234.5" y="312.5" width="98.2" height="42.85" rx="21.425" stroke="#EFE585"/>
</g>
<path d="M271.848 338.15H273.257L273.638 335.853H274.895L275.136 334.443H273.867L274.159 332.666H275.416L275.657 331.244H274.394L274.768 328.959H273.346L272.972 331.244H271.169L271.544 328.959H270.122L269.747 331.244H268.484L268.255 332.666H269.512L269.22 334.443H267.963L267.722 335.853H268.992L268.611 338.15H270.033L270.414 335.853H272.223L271.848 338.15ZM270.642 334.443L270.934 332.666H272.743L272.451 334.443H270.642ZM286.105 327.766H284.582V339.318H286.105V327.766ZM275.949 335.776L276.863 336.919C278.507 335.967 279.58 334.824 280.24 333.504H282.131V338.811H283.642V328.02H282.131V332.222H280.741C281.021 331.27 281.141 330.241 281.141 329.137H276.584V330.444H279.535C279.313 332.71 278.285 334.393 275.949 335.776ZM296.998 327.778H295.373V334.304H296.998V327.778ZM287.502 331.092C287.502 332.679 288.86 333.847 290.663 333.847C292.459 333.847 293.817 332.679 293.824 331.092C293.817 329.441 292.459 328.299 290.663 328.299C288.86 328.299 287.502 329.441 287.502 331.092ZM289.088 331.092C289.076 330.184 289.736 329.657 290.663 329.657C291.564 329.657 292.218 330.184 292.224 331.092C292.218 331.949 291.564 332.488 290.663 332.488C289.736 332.488 289.076 331.949 289.088 331.092ZM289.254 339.191H296.998V334.824H289.254V339.191ZM290.853 337.896V336.106H295.411V337.896H290.853Z" fill="white"/>
<rect x="118.45" y="253.75" width="97.2" height="41.85" rx="20.925" fill="#D7E0FF"/>
<path d="M137.77 279.9H139.18L139.56 277.603H140.817L141.058 276.193H139.789L140.081 274.416H141.338L141.579 272.994H140.316L140.69 270.709H139.268L138.894 272.994H137.091L137.466 270.709H136.044L135.669 272.994H134.406L134.178 274.416H135.434L135.142 276.193H133.886L133.644 277.603H134.914L134.533 279.9H135.955L136.336 277.603H138.145L137.77 279.9ZM136.564 276.193L136.856 274.416H138.665L138.373 276.193H136.564ZM148.168 270.557H142.582V278.313H148.168V270.557ZM144.207 277.031V271.826H146.594V277.031H144.207ZM150.047 281.094H151.684V269.516H150.047V281.094ZM162.361 269.516H160.762V281.094H162.361V275.216H164.062V273.883H162.361V269.516ZM153.716 271.788H157.448V273.68H153.728V278.402H154.706C156.737 278.402 158.324 278.333 160.089 278.009L159.949 276.714C158.413 276.974 157.023 277.05 155.341 277.057V274.962H159.06V270.48H153.716V271.788ZM173.8 269.935H165.776V271.204H172.187C172.181 271.426 172.181 271.648 172.175 271.877L165.459 272.017L165.637 273.261L172.099 273.007C172.067 273.312 172.022 273.635 171.953 273.984H164.507V275.267H174.993V273.984H173.578C173.806 272.81 173.806 271.845 173.8 270.938V269.935ZM165.649 277.184H172.238V277.818H165.662V280.941H174.257V279.697H167.274V278.986H173.85V275.952H165.649V277.184ZM186.292 278.39H181.785V276.028H185.111V270.366H176.834V276.028H180.173V278.39H175.717V279.723H186.292V278.39ZM178.433 274.759V271.661H183.512V274.759H178.433ZM196.588 269.516H194.975V276.219H196.588V269.516ZM187.612 275.559H188.615C190.481 275.565 192.316 275.444 194.226 275.038L194.036 273.73C192.392 274.073 190.83 274.2 189.237 274.232V270.239H187.612V275.559ZM188.679 278.732C188.672 280.186 190.221 281.075 192.665 281.068C195.102 281.075 196.632 280.186 196.639 278.732C196.632 277.241 195.102 276.358 192.665 276.358C190.221 276.358 188.672 277.241 188.679 278.732ZM190.291 278.732C190.291 278.009 191.122 277.666 192.665 277.666C194.195 277.666 195.007 278.009 195.014 278.732C195.007 279.418 194.195 279.786 192.665 279.786C191.122 279.786 190.291 279.418 190.291 278.732Z" fill="#5076FF"/>
<rect x="234.55" y="193" width="97.2" height="41.85" rx="20.925" fill="#D7E0FF"/>
<path d="M272.073 218.15H273.483L273.863 215.853H275.12L275.361 214.443H274.092L274.384 212.666H275.641L275.882 211.244H274.619L274.993 208.959H273.571L273.197 211.244H271.394L271.769 208.959H270.347L269.972 211.244H268.709L268.481 212.666H269.737L269.445 214.443H268.189L267.947 215.853H269.217L268.836 218.15H270.258L270.639 215.853H272.448L272.073 218.15ZM270.867 214.443L271.159 212.666H272.968L272.676 214.443H270.867ZM286.026 207.766H284.388V219.318H286.026V207.766ZM276.352 216.043L277.202 217.338C281.328 215.389 282.553 212.476 282.56 208.972H276.974V210.241H280.909C280.649 212.806 279.335 214.634 276.352 216.043ZM293.478 208.718H288.006V216.69H288.984C291.002 216.69 292.576 216.64 294.341 216.373L294.189 215.065C292.646 215.307 291.294 215.376 289.644 215.396V213.212H293.313V211.942H289.644V210.038H293.478V208.718ZM295.039 219.318H296.664V213.504H298.365V212.146H296.664V207.766H295.039V219.318Z" fill="#5076FF"/>
<rect x="1" y="313.15" width="97.2" height="41.85" rx="20.925" fill="#D7E0FF"/>
<path d="M39.1983 339.301H40.6075L40.9883 337.003H42.2452L42.4864 335.594H41.2168L41.5088 333.816H42.7657L43.0069 332.395H41.7437L42.1182 330.109H40.6963L40.3218 332.395H38.5191L38.8936 330.109H37.4717L37.0972 332.395H35.834L35.6055 333.816H36.8624L36.5704 335.594H35.3135L35.0723 337.003H36.3418L35.961 339.301H37.3829L37.7637 337.003H39.5728L39.1983 339.301ZM37.9922 335.594L38.2842 333.816H40.0933L39.8013 335.594H37.9922ZM52.6807 328.916H51.0557V337.93H52.6807V334.045H54.1534V332.712H52.6807V328.916ZM43.3116 335.556L43.4766 336.8C45.4698 336.781 48.2056 336.749 50.6368 336.279L50.5225 335.162C49.6275 335.295 48.6753 335.384 47.7295 335.441V334.851C48.9673 334.667 49.7417 334.045 49.7481 333.144C49.7417 332.001 48.6182 331.334 46.917 331.341C45.2032 331.334 44.0796 332.001 44.086 333.144C44.0796 334.051 44.8604 334.673 46.1172 334.851V335.518C45.108 335.549 44.1431 335.556 43.3116 335.556ZM43.6163 331.011H50.2305V329.855H47.7295V328.878H46.1172V329.855H43.6163V331.011ZM44.9366 340.266H53.0743V338.971H46.5616V337.333H44.9366V340.266ZM45.6348 333.144C45.6285 332.655 46.0918 332.42 46.917 332.42C47.7295 332.42 48.1929 332.655 48.1993 333.144C48.1929 333.575 47.7295 333.823 46.917 333.816C46.0918 333.823 45.6285 333.575 45.6348 333.144ZM64.4112 328.929H62.7989V330.782H60.647C60.7042 330.439 60.7295 330.078 60.7295 329.703H55.3975V330.998H58.9649C58.7364 332.585 57.4288 333.861 54.7754 334.553L55.4102 335.835C57.9493 335.143 59.5933 333.88 60.3169 332.052H62.7989V333.156H60.1963V334.451H62.7989V335.581H64.4112V328.929ZM56.6163 338.057C56.6099 339.504 58.1905 340.418 60.5645 340.418C62.9068 340.418 64.4937 339.504 64.5 338.057C64.4937 336.628 62.9068 335.727 60.5645 335.721C58.1905 335.727 56.6099 336.628 56.6163 338.057ZM58.2286 338.057C58.2286 337.346 59.0982 336.978 60.5645 336.99C61.9991 336.978 62.8687 337.346 62.875 338.057C62.8687 338.774 61.9991 339.136 60.5645 339.136C59.0982 339.136 58.2286 338.774 58.2286 338.057Z" fill="#5076FF"/>
<rect x="1" y="194.35" width="97.2" height="41.85" rx="20.925" fill="#D7E0FF"/>
<path d="M37.8484 220.5H39.2576L39.6385 218.202H40.8953L41.1365 216.793H39.867L40.159 215.016H41.4158L41.657 213.594H40.3938L40.7684 211.309H39.3465L38.972 213.594H37.1692L37.5438 211.309H36.1219L35.7474 213.594H34.4842L34.2557 215.016H35.5125L35.2205 216.793H33.9637L33.7225 218.202H34.992L34.6111 220.5H36.033L36.4139 218.202H38.2229L37.8484 220.5ZM36.6424 216.793L36.9344 215.016H38.7435L38.4515 216.793H36.6424ZM52.6512 215.739H42.076V217.034H46.6336V219.04H48.2713V217.034H52.6512V215.739ZM43.1678 212.73C43.1678 214.203 44.8436 215.117 47.3572 215.117C49.8582 215.117 51.5276 214.203 51.534 212.73C51.5276 211.264 49.8582 210.344 47.3572 210.331C44.8436 210.344 43.1678 211.264 43.1678 212.73ZM43.3328 221.465H51.4832V220.157H44.9705V218.012H43.3328V221.465ZM44.9197 212.73C44.9134 211.994 45.8655 211.613 47.3572 211.613C48.8489 211.613 49.7947 211.994 49.7947 212.73C49.7947 213.435 48.8489 213.816 47.3572 213.822C45.8655 213.816 44.9134 213.435 44.9197 212.73ZM63.8865 215.574H59.4051V214.584H62.6805V213.314H56.2186V211.88H62.617V210.623H54.6063V214.584H57.8182V215.574H53.324V216.844H63.8865V215.574ZM54.5301 219.561C54.5301 220.913 56.0535 221.681 58.5799 221.681C61.0872 221.681 62.5916 220.913 62.6043 219.561C62.5916 218.189 61.0872 217.428 58.5799 217.428C56.0535 217.428 54.5301 218.189 54.5301 219.561ZM56.1805 219.561C56.1741 218.964 56.9803 218.659 58.5799 218.659C60.1478 218.659 60.9729 218.964 60.9793 219.561C60.9729 220.164 60.1478 220.449 58.5799 220.449C56.9803 220.449 56.1741 220.164 56.1805 219.561Z" fill="#5076FF"/>
<rect x="118.45" y="194.35" width="97.2" height="41.85" rx="20.925" fill="#D7E0FF"/>
<path d="M155.298 220.5H156.707L157.088 218.202H158.345L158.586 216.793H157.317L157.609 215.016H158.866L159.107 213.594H157.844L158.218 211.309H156.796L156.422 213.594H154.619L154.994 211.309H153.572L153.197 213.594H151.934L151.705 215.016H152.962L152.67 216.793H151.413L151.172 218.202H152.442L152.061 220.5H153.483L153.864 218.202H155.673L155.298 220.5ZM154.092 216.793L154.384 215.016H156.193L155.901 216.793H154.092ZM164.744 217.313C162.236 217.313 160.624 218.113 160.63 219.497C160.624 220.862 162.236 221.674 164.744 221.668C167.27 221.674 168.857 220.862 168.87 219.497C168.857 218.113 167.27 217.313 164.744 217.313ZM159.564 216.577H170.05V215.27H165.099V213.251H163.499V215.27H159.564V216.577ZM160.745 211.905H167.194C167.181 212.692 167.149 213.473 166.889 214.521L168.476 214.673C168.812 213.486 168.812 212.496 168.806 211.575V210.636H160.745V211.905ZM162.243 219.497C162.236 218.856 163.15 218.513 164.744 218.52C166.337 218.513 167.257 218.856 167.257 219.497C167.257 220.119 166.337 220.437 164.744 220.437C163.15 220.437 162.236 220.119 162.243 219.497ZM181.336 216.78H170.761V218.05H175.217V221.668H176.817V218.05H181.336V216.78ZM172.005 215.663H180.079V210.56H178.454V211.893H173.605V210.56H172.005V215.663ZM173.605 214.368V213.162H178.454V214.368H173.605Z" fill="#5076FF"/>
<rect x="234.55" y="253.75" width="97.2" height="41.85" rx="20.925" fill="#D7E0FF"/>
<path d="M265.781 279.9H267.19L267.571 277.603H268.828L269.069 276.193H267.799L268.091 274.416H269.348L269.589 272.994H268.326L268.701 270.709H267.279L266.904 272.994H265.101L265.476 270.709H264.054L263.68 272.994H262.416L262.188 274.416H263.445L263.153 276.193H261.896L261.655 277.603H262.924L262.543 279.9H263.965L264.346 277.603H266.155L265.781 279.9ZM264.575 276.193L264.867 274.416H266.676L266.384 276.193H264.575ZM280.583 275.978H270.008V277.272H274.464V281.056H276.064V277.272H280.583V275.978ZM271.252 274.733H279.314V270.074H271.252V274.733ZM272.852 273.464V271.356H277.702V273.464H272.852ZM285.738 272.664V271.953H288.15V270.633H281.624V271.953H284.075V272.664C284.075 274.619 283.084 276.758 281.167 277.615L282.094 278.897C283.459 278.269 284.417 277 284.938 275.482C285.458 276.879 286.398 278.028 287.756 278.605L288.632 277.336C286.696 276.53 285.731 274.53 285.738 272.664ZM289.292 281.068H290.93V269.516H289.292V281.068ZM303.003 274.441H292.517V275.622H296.948V276.346H293.71V277.501H300.147V278.072H293.723V280.992H302.051V279.799H295.31V279.164H301.746V276.346H298.56V275.622H303.003V274.441ZM292.923 272.931L293.368 274.124C295.532 274.016 297.017 273.477 297.747 272.607C298.477 273.477 299.969 274.016 302.115 274.124L302.584 272.931C300.255 272.829 299.074 272.277 298.744 271.61H302.013V270.417H298.547V269.503H296.948V270.417H293.507V271.61H296.745C296.408 272.277 295.234 272.829 292.923 272.931Z" fill="#5076FF"/>
<path d="M219.48 427.777C227.039 427.777 208 455.999 243 447.499" stroke="black" stroke-width="11.926" stroke-linecap="round"/>
<path d="M156.305 402.547C148.883 403.98 133.156 401.139 129.632 378.316" stroke="black" stroke-width="11.926" stroke-linecap="round"/>
<path d="M192.797 427.777C185.238 427.777 170.335 433.547 171.199 456.623" stroke="black" stroke-width="11.926" stroke-linecap="round"/>
<rect width="23.7979" height="14.423" rx="7.21149" transform="matrix(0.0186819 -0.999825 -0.999825 -0.0186819 253.42 464.062)" fill="#00DDB5"/>
<rect width="23.7979" height="14.423" rx="7.21149" transform="matrix(-1 0 0 1 174.769 451.576)" fill="#00DDB5"/>
<circle cx="130.678" cy="371.678" r="9.37494" transform="rotate(27.9811 130.678 371.678)" fill="#00BB99"/>
<path d="M250.242 402.876C257.791 402.476 268.218 382.5 276.218 359.001" stroke="black" stroke-width="11.926" stroke-linecap="round"/>
<circle cx="9.37494" cy="9.37494" r="9.37494" transform="matrix(-0.743946 0.66824 0.66824 0.743946 276.949 345)" fill="#00BB99"/>
<path d="M143.759 408.838C143.759 402.004 148.257 397.671 158.584 394.671C161.431 393.837 164.654 391.729 167.433 388.986C173.559 382.939 167.358 375.503 158.75 375.503V375.503C149.756 375.503 143.759 369.169 143.759 359.835V345.335C143.759 335.834 149.756 329.667 158.75 329.667H173.242C181.237 329.667 180.904 316 188.899 316H224.544C232.206 316 232.206 329.667 240.202 329.667H253.527C262.522 329.667 268.518 335.834 268.518 345.335V359.835C268.518 369.169 262.522 375.503 253.527 375.503V375.503C245.004 375.503 238.713 382.759 244.704 388.821C247.495 391.644 250.79 393.82 253.694 394.671C264.187 397.671 268.518 401.838 268.518 408.838V427.005C268.518 436.506 262.355 442.673 253.527 442.173C247.297 441.812 241.401 440.862 235.923 439.377C218.049 434.532 194.64 434.399 176.777 439.284C171.153 440.823 165.109 441.805 158.75 442.173C149.922 442.673 143.759 436.506 143.759 427.005V408.838Z" fill="url(#paint0_linear_504_172)"/>
<path fill-rule="evenodd" clip-rule="evenodd" d="M232.027 458.251C234.944 457.744 238.886 459.201 240.832 461.506L245.414 466.932C246.466 468.178 246.719 469.417 246.269 470.373C246.767 470.257 247.272 470.145 247.784 470.038C254.09 468.718 261.588 471.582 266.1 477.102L274.728 487.658C276.628 489.982 277.04 491.934 275.858 493.733C277.916 494.739 280.066 495.897 282.257 497.152C288.534 500.751 295.709 505.486 302.94 510.693C303.863 510.809 304.832 511.033 305.814 511.374C310.313 512.935 313.363 516.342 312.628 518.984C311.892 521.625 307.649 522.501 303.15 520.94C302.496 520.713 301.872 520.447 301.285 520.149L304.887 524.555C309.399 530.075 307.882 534.358 301.214 535.407L291.336 536.961C288.341 537.432 288.517 539.693 288.691 541.93C288.861 544.12 289.03 546.287 286.22 546.729L259.796 550.886C256.832 551.352 253.79 549.591 250.747 547.829C247.704 546.067 244.662 544.305 241.698 544.771L230.955 546.461C224.288 547.511 216.914 544.627 212.402 539.107L205.515 530.681C201.082 525.258 202.52 520.879 209.187 519.83C215.569 518.825 216.634 513.781 209.22 510.983C205.858 509.713 202.467 508.864 199.961 508.712C197.938 508.592 196.098 508.4 194.424 508.129C192.743 508.434 190.93 509.127 189.761 510.428C188.292 512.064 187.561 514.973 190.359 520.191C191.679 520.529 193.011 521.07 194.242 521.806C198.214 524.179 199.622 527.679 197.386 529.624C195.15 531.569 190.118 531.222 186.145 528.848C183.049 526.998 181.511 524.464 182.042 522.515C181.818 522.27 181.624 522.014 181.465 521.75C176.853 514.085 177.168 508.744 180.229 505.336C181.029 504.447 181.993 503.714 183.057 503.117C182.771 502.827 182.5 502.524 182.243 502.209L173.615 491.653C169.103 486.133 170.743 481.831 177.525 481.092C179.744 480.852 181.976 480.694 184.21 480.615C182.016 478.967 179.9 477.058 177.91 474.865L172.637 475.694C169.685 476.159 165.758 474.66 163.867 472.345C161.975 470.031 162.835 467.779 165.788 467.314L172.737 466.221C174.882 465.883 177.541 466.582 179.56 467.877C181.47 468.269 183.375 469.321 184.413 470.679C188.946 476.613 193.795 479.418 197.5 480.769C197.519 480.776 197.538 480.783 197.557 480.79C205.938 480.776 214.549 479.811 222.196 478.114C221.351 477.214 220.39 476.13 219.608 474.99C217.892 472.485 216.798 469.252 219.942 467.023C222.115 465.482 225.949 464.742 231.346 464.618L230.27 463.344C228.324 461.039 229.11 458.759 232.027 458.251ZM230.313 475.913C232.371 475.239 234.299 474.504 236.062 473.715C237.488 473.077 239.016 472.486 240.644 471.945C240.307 471.88 239.969 471.797 239.634 471.699C239.48 471.705 239.322 471.706 239.158 471.701C231.913 471.495 229.439 472.272 228.714 472.786C228.41 473.002 228.224 473.207 228.938 474.25C229.268 474.732 229.729 475.279 230.313 475.913ZM296.229 514.237C296.228 514.2 296.227 514.162 296.227 514.125C296.025 513.979 295.822 513.834 295.62 513.69C295.827 513.868 296.03 514.051 296.229 514.237ZM292.252 511.317C286.906 507.605 281.816 504.335 277.381 501.793C274.411 500.09 271.889 498.803 269.881 497.935C268.405 498.832 267.226 500.325 266.581 502.066C265.018 506.287 273.128 509.769 279.446 508.775C283.727 508.102 288.331 509.089 292.252 511.317Z" fill="url(#paint1_linear_504_172)"/>
<path d="M91.791 15.3125H82.6504V17.3438H89.3594C89.3398 18.4082 89.2617 19.707 88.9395 21.4062L91.3809 21.6406C91.791 19.4336 91.791 17.6562 91.791 16.4258V15.3125ZM81.5957 22.9297L81.8105 24.9219C84.9062 24.9121 89.0664 24.8438 92.7676 24.1602L92.6309 22.3633C90.9609 22.6074 89.1543 22.7441 87.377 22.8223V19.4141H84.8965V22.9004C83.7148 22.9297 82.5918 22.9297 81.5957 22.9297ZM84.2129 31.4844H96.6934V29.4922H86.7129V26.1328H84.2129V31.4844ZM93.5879 27.3242H96.1465V21.5234H98.2949V19.4336H96.1465V14.0234H93.5879V27.3242ZM113.998 14.043H111.498V24.0625H113.998V14.043ZM99.0566 21.7969L100.268 23.75C102.387 23.0859 103.832 21.7188 104.643 19.9902C105.443 21.582 106.85 22.8125 108.881 23.418L110.092 21.5234C107.221 20.6348 105.912 18.5645 105.932 16.4062V14.6875H103.334V16.4062C103.334 18.623 102.035 20.8984 99.0566 21.7969ZM102.084 31.6016H113.998V24.8828H102.084V31.6016ZM104.545 29.6094V26.8555H111.557V29.6094H104.545ZM130.717 15.7227H122.221V17.7148H128.227C128.148 18.5547 128.021 19.3555 127.807 20.0977L121.303 20.4883L121.615 22.5977L127.006 22.1191C125.932 24.1113 124.096 25.7715 121.166 27.2266L122.475 29.1406C129.193 25.8496 130.697 21.1914 130.717 15.7227ZM133.432 31.7969H135.951V14.0234H133.432V31.7969ZM153.471 14.043H150.932V25.9961H147.318V27.8711H150.932V31.7969H153.471V14.043ZM138.217 23.0469L138.529 25.0781C139.789 25.0781 141.195 25.0684 142.67 25.0195V31.2695H145.189V24.8926C146.771 24.7852 148.373 24.6094 149.936 24.3359L149.799 22.5195C145.961 23.0273 141.547 23.0469 138.217 23.0469ZM139.467 18.3984C139.457 20.5859 141.371 22.0312 144.037 22.0312C146.664 22.0312 148.598 20.5859 148.607 18.3984C148.598 16.2598 146.664 14.7559 144.037 14.7461C141.371 14.7559 139.457 16.2598 139.467 18.3984ZM141.811 18.3984C141.801 17.3145 142.709 16.6406 144.037 16.6406C145.326 16.6406 146.225 17.3145 146.244 18.3984C146.225 19.5117 145.316 20.1367 144.037 20.1367C142.709 20.1367 141.801 19.5117 141.811 18.3984ZM170.072 22.2461H159.955V17.5195H169.936V15.5078H157.494V24.2383H170.072V22.2461ZM155.58 29.6289H171.85V27.5781H155.58V29.6289ZM189.115 21.9922H172.846V23.8477H189.115V21.9922ZM174.701 26.4453H184.701V27.3438H174.721V31.6406H187.689V29.9414H177.201V28.9258H187.162V24.7266H174.701V26.4453ZM174.838 16.0352H184.643V16.9336H174.877V21.1523H187.455V19.4727H177.357V18.5156H187.143V14.3359H174.838V16.0352ZM201.42 17.0703V15.1172H198.9V17.0508C198.891 19.5996 197.611 22.0312 194.643 23.0078L195.99 24.9609C198.051 24.2188 199.438 22.7637 200.199 20.8984C200.951 22.5488 202.25 23.8574 204.135 24.5508L205.482 22.5977C202.65 21.6504 201.42 19.3652 201.42 17.0703ZM197.904 31.4844H210.111V29.4922H200.424V25.7812H197.904V31.4844ZM203.92 19.8242H207.26V27.168H209.74V14.043H207.26V17.8125H203.92V19.8242ZM219.701 15.2148H212.67V24.1797H213.881C216.566 24.1895 218.305 24.1211 220.385 23.75L220.131 21.7578C218.48 22.041 217.025 22.1191 215.053 22.1387V20.5664H219.525V18.6719H215.053V17.207H219.701V15.2148ZM215.033 27.6172H224.838V31.7969H227.318V25.625H215.033V27.6172ZM221.088 24.7461H223.412V20.3711H224.955V24.8828H227.318V14.043H224.955V18.3789H223.412V14.3555H221.088V24.7461ZM237.904 16.7383H234.857V14.5117H232.396V16.7383H229.311V18.7109H237.904V16.7383ZM229.721 23.7305C229.721 26.2109 231.381 27.9688 233.646 27.9688C235.922 27.9688 237.543 26.2109 237.553 23.7305C237.543 21.2598 235.922 19.5215 233.646 19.5117C231.381 19.5215 229.721 21.2598 229.721 23.7305ZM231.908 23.7305C231.908 22.3926 232.611 21.582 233.646 21.582C234.643 21.582 235.355 22.3926 235.365 23.7305C235.355 25.0879 234.643 25.8594 233.646 25.8594C232.611 25.8594 231.908 25.0879 231.908 23.7305ZM238.568 31.0352H240.893V23.2422H242.338V31.7969H244.701V14.0234H242.338V21.25H240.893V14.375H238.568V31.0352ZM67.8945 38.043H65.3945V48.3555H61.9961V50.0547H65.3945V51.4609H67.8945V38.043ZM52.7773 45.9141L53.0703 47.8867C54.418 47.8867 55.9316 47.877 57.5234 47.8184V50.1719H55.043V55.4844H68.2852V53.4922H57.5234V51.0508H60.0234V47.6719C61.459 47.5645 62.9141 47.3984 64.3203 47.1641L64.1836 45.3867C60.4238 45.8457 56.0293 45.8945 52.7773 45.9141ZM54.0859 41.832C54.0859 43.7363 55.9121 44.9668 58.5586 44.957C61.1367 44.9668 62.9824 43.7363 62.9922 41.832C62.9824 39.9375 61.1367 38.6387 58.5586 38.6484C55.9121 38.6387 54.0859 39.9375 54.0859 41.832ZM56.4492 41.832C56.4395 40.9531 57.2891 40.4648 58.5586 40.4648C59.75 40.4648 60.6094 40.9531 60.6289 41.832C60.6094 42.6914 59.75 43.1699 58.5586 43.1602C57.2891 43.1699 56.4395 42.6914 56.4492 41.832ZM84.1445 38.0234H81.6836V55.7969H84.1445V47.0273H86.7617V44.9766H84.1445V38.0234ZM70.0234 42.6719H80.4727V40.6797H76.5469V38.2969H74.0469V40.6797H70.0234V42.6719ZM70.7461 47.9062C70.7363 50.3867 72.6699 52.1348 75.2969 52.1445C77.8848 52.1348 79.8281 50.3867 79.8281 47.9062C79.8281 45.4258 77.8848 43.6582 75.2969 43.668C72.6699 43.6582 70.7363 45.4258 70.7461 47.9062ZM73.1289 47.9062C73.1289 46.5391 74.0371 45.6992 75.2969 45.6797C76.5371 45.6992 77.4453 46.5391 77.4453 47.9062C77.4453 49.2832 76.5371 50.1035 75.2969 50.0938C74.0371 50.1035 73.1289 49.2832 73.1289 47.9062ZM101.84 42.8672H91.8984V38.6484H89.418V44.8203H101.84V42.8672ZM87.3867 48.6875H103.656V46.7344H87.3867V48.6875ZM89.2617 55.4062H101.957V53.4141H91.7617V50.1328H89.2617V55.4062ZM117.641 39.7031H114.906V38.082H112.543V39.7031H109.789V41.6562H112.543C112.455 43.1211 111.371 44.7129 109.262 45.5039L110.355 47.3594C111.986 46.793 113.109 45.6895 113.744 44.3711C114.398 45.582 115.512 46.5586 117.152 47.0469L118.207 45.2305C116.059 44.5469 114.975 43.0918 114.906 41.6562H117.641V39.7031ZM112.406 49.8789H122.113V50.8555H112.426V55.6016H125.18V53.7656H114.906V52.6523H124.574V48.0039H112.406V49.8789ZM118.441 47.2422H120.785V43.6875H122.211V47.3594H124.574V38.043H122.211V41.7148H120.785V38.3555H118.441V47.2422ZM141.449 38.043H138.969V51.1289H141.449V38.043ZM127.504 41.1875H133.266V43.0234H127.523V48.8633H129.086C132.846 48.8633 135.15 48.7656 137.738 48.2773L137.465 46.2852C135.16 46.7246 133.148 46.8223 129.965 46.832V44.8594H135.746V39.1953H127.504V41.1875ZM129.496 55.4844H141.918V53.4922H131.977V50.0352H129.496V55.4844ZM150.766 42.8672V41.7734H154.477V39.7422H144.438V41.7734H148.207V42.8672C148.207 45.875 146.684 49.166 143.734 50.4844L145.16 52.457C147.26 51.4902 148.734 49.5371 149.535 47.2031C150.336 49.3516 151.781 51.1191 153.871 52.0078L155.219 50.0547C152.24 48.8145 150.756 45.7383 150.766 42.8672ZM156.234 55.7969H158.754V38.0234H156.234V55.7969ZM177.406 45.9922H161.137V47.8477H177.406V45.9922ZM162.992 50.4453H172.992V51.3438H163.012V55.6406H175.98V53.9414H165.492V52.9258H175.453V48.7266H162.992V50.4453ZM163.129 40.0352H172.934V40.9336H163.168V45.1523H175.746V43.4727H165.648V42.5156H175.434V38.3359H163.129V40.0352ZM188.207 53.6289V52.3789H195.512V53.6289H188.207ZM183.07 45.5039L183.363 47.4961C184.77 47.4961 186.342 47.4863 187.992 47.4277V49H185.746V55.6016H197.973V49H195.512V50.5039H188.207V49.3711H190.473V47.291C191.859 47.1836 193.266 47.0273 194.633 46.793L194.516 45.0352C190.717 45.5137 186.391 45.5137 183.07 45.5039ZM183.695 42.9062L184.789 44.8008C186.908 44.3516 188.344 43.2969 189.115 41.9004C189.906 43.1699 191.322 44.1172 193.363 44.5273L194.418 42.6523C191.664 42.125 190.365 40.6992 190.375 39.1953V38.4727H187.816V39.1953C187.797 40.8164 186.518 42.3301 183.695 42.9062ZM195.492 48.2773H197.973V38.043H195.492V48.2773ZM215.746 38.0234H213.402V55.7969H215.746V38.0234ZM200.121 50.3477L201.527 52.1055C204.057 50.6406 205.707 48.8828 206.723 46.8516H209.633V55.0156H211.957V38.4141H209.633V44.8789H207.494C207.924 43.4141 208.109 41.832 208.109 40.1328H201.098V42.1445H205.639C205.297 45.6309 203.715 48.2188 200.121 50.3477ZM232.367 39.7422H228.812V37.9453H226.293V39.7422H222.719V41.7148H226.293C226.254 43.6289 224.936 45.5137 222.094 46.2461L223.266 48.2188C225.346 47.6328 226.771 46.4023 227.562 44.8301C228.363 46.2559 229.779 47.3691 231.84 47.8867L232.934 45.9727C230.092 45.25 228.822 43.4727 228.773 41.7148H232.367V39.7422ZM223.812 53.8242L224.711 55.7188C227.543 55.3477 229.535 54.2344 230.551 52.7207C231.586 54.2441 233.588 55.377 236.449 55.7578L237.328 53.8633C234.232 53.4531 232.475 52.1836 232.016 50.875H236.547V48.9219H224.574V50.875H229.125C228.666 52.2129 226.928 53.4434 223.812 53.8242ZM233.832 48.1602H236.332V44.0586H238.734V42.0078H236.332V38.0234H233.832V48.1602ZM244.301 39.2734C241.576 39.2734 239.604 41.7246 239.613 45.6016C239.604 49.5078 241.576 51.9492 244.301 51.9492C247.016 51.9492 248.979 49.5078 248.988 45.6016C248.979 41.7246 247.016 39.2734 244.301 39.2734ZM242.016 45.6016C242.016 42.9648 242.943 41.5195 244.301 41.5195C245.688 41.5195 246.596 42.9648 246.605 45.6016C246.596 48.248 245.688 49.6934 244.301 49.6836C242.943 49.6934 242.016 48.248 242.016 45.6016ZM251.039 55.7969H253.539V46.793H256.156V44.7227H253.539V38.0234H251.039V55.7969ZM273.07 51.6758H269.457V47.2715C270.795 46.4414 271.596 45.2012 271.605 43.668C271.596 40.7871 268.754 38.8926 264.906 38.8828C261.039 38.8926 258.227 40.7871 258.227 43.668C258.227 45.2305 259.057 46.4902 260.434 47.3203V51.6758H256.801V53.7266H273.07V51.6758ZM260.688 43.668C260.688 41.8809 262.357 40.8457 264.906 40.8555C267.416 40.8457 269.135 41.8809 269.145 43.668C269.135 45.4062 267.416 46.4805 264.906 46.4805C262.357 46.4805 260.688 45.4062 260.688 43.668ZM262.895 51.6758V48.2285C263.52 48.3457 264.193 48.4141 264.906 48.4141C265.619 48.4141 266.303 48.3457 266.938 48.2188V51.6758H262.895ZM278.129 39.8594H275.121L275.375 49.7617H277.875L278.129 39.8594ZM275.004 52.5352C274.984 53.4434 275.727 54.1758 276.645 54.1758C277.514 54.1758 278.266 53.4434 278.266 52.5352C278.266 51.6367 277.514 50.9043 276.645 50.9141C275.727 50.9043 274.984 51.6367 275.004 52.5352Z" fill="black"/>
<defs>
<filter id="filter0_b_504_172" x="224" y="302" width="119.2" height="63.8496" filterUnits="userSpaceOnUse" color-interpolation-filters="sRGB">
<feFlood flood-opacity="0" result="BackgroundImageFix"/>
<feGaussianBlur in="BackgroundImageFix" stdDeviation="5"/>
<feComposite in2="SourceAlpha" operator="in" result="effect1_backgroundBlur_504_172"/>
<feBlend mode="normal" in="SourceGraphic" in2="effect1_backgroundBlur_504_172" result="shape"/>
</filter>
<linearGradient id="paint0_linear_504_172" x1="206.139" y1="384.199" x2="206.139" y2="456.242" gradientUnits="userSpaceOnUse">
<stop stop-color="#00DDB5"/>
<stop offset="1" stop-color="#00BE9C"/>
</linearGradient>
<linearGradient id="paint1_linear_504_172" x1="233.5" y1="480.5" x2="242.5" y2="551" gradientUnits="userSpaceOnUse">
<stop stop-color="#505050"/>
<stop offset="1" stop-color="#505050" stop-opacity="0"/>
</linearGradient>
</defs>
</svg>
