<svg width="332" height="513" viewBox="0 0 332 513" fill="none" xmlns="http://www.w3.org/2000/svg">
<path d="M261.466 474.533C268.876 474.533 283.486 480.189 282.639 502.811" stroke="black" stroke-width="11.926" stroke-linecap="round"/>
<path d="M212.461 445.941C206.694 450.595 191.773 455.368 178.225 437.232" stroke="black" stroke-width="11.926" stroke-linecap="round"/>
<path d="M235.309 474.533C227.899 474.533 213.289 480.189 214.136 502.811" stroke="black" stroke-width="11.926" stroke-linecap="round"/>
<rect width="23.329" height="14.1388" rx="7.0694" transform="matrix(-1 0 0 1 299.641 497.863)" fill="#009BDD"/>
<rect width="23.329" height="14.1388" rx="7.0694" transform="matrix(-1 0 0 1 217.636 497.863)" fill="#009BDD"/>
<circle cx="176.077" cy="431.005" r="9.19022" fill="#0093A7"/>
<defs>
<linearGradient id="paint0_linear_504_98" x1="248.388" y1="431.812" x2="248.388" y2="502.436" gradientUnits="userSpaceOnUse">
<stop stop-color="#64D2D9"/>
<stop offset="1" stop-color="#21BDD3"/>
</linearGradient>
<linearGradient id="paint1_linear_504_98" x1="169.963" y1="298.491" x2="169.963" y2="369.116" gradientUnits="userSpaceOnUse">
<stop stop-color="#00DDB5"/>
<stop offset="1" stop-color="#00BE9C"/>
</linearGradient>
<linearGradient id="paint2_linear_504_98" x1="87.6186" y1="431.812" x2="87.6186" y2="502.436" gradientUnits="userSpaceOnUse">
<stop stop-color="#8EE9B8"/>
<stop offset="1" stop-color="#63D760"/>
</linearGradient>
<linearGradient id="paint3_linear_504_98" x1="171.674" y1="151.252" x2="171.674" y2="200.699" gradientUnits="userSpaceOnUse">
<stop stop-color="#FFE146"/>
<stop offset="1" stop-color="#FFF1A5"/>
</linearGradient>
</defs>
<path d="M187.237 455.966C187.237 449.267 191.646 445.018 201.77 442.077C204.56 441.26 207.72 439.193 210.444 436.505C216.45 430.577 210.371 423.287 201.933 423.287V423.287C193.116 423.287 187.237 417.079 187.237 407.929V393.714C187.237 384.401 193.116 378.355 201.933 378.355H216.139C223.976 378.355 223.65 364.957 231.488 364.957H266.431C273.942 364.957 273.942 378.355 281.779 378.355H294.842C303.66 378.355 309.538 384.401 309.538 393.714V407.929C309.538 417.079 303.66 423.287 294.842 423.287V423.287C286.487 423.287 280.32 430.401 286.193 436.343C288.929 439.11 292.159 441.244 295.005 442.077C305.292 445.018 309.538 449.103 309.538 455.966V473.775C309.538 483.088 303.496 489.134 294.842 488.644C288.985 488.305 283.428 487.434 278.246 486.079C260.329 481.395 236.85 481.262 218.944 485.99C213.619 487.396 207.918 488.297 201.933 488.644C193.279 489.134 187.237 483.088 187.237 473.775V455.966Z" fill="url(#paint0_linear_504_98)"/>
<path d="M249.413 420.539C248.637 422.9 249.923 425.444 252.284 426.219C254.646 426.995 257.189 425.709 257.965 423.347L249.413 420.539ZM257.965 423.347C258.859 420.625 260.881 416.719 263.829 413.976C266.622 411.377 269.982 409.995 274.301 411.207L276.733 402.54C268.687 400.282 262.195 403.201 257.697 407.386C253.352 411.429 250.643 416.792 249.413 420.539L257.965 423.347Z" fill="white"/>
<circle cx="266.952" cy="426.532" r="16.4289" transform="rotate(180 266.952 426.532)" fill="white"/>
<path d="M211.238 420.539C210.462 422.9 211.748 425.444 214.11 426.219C216.471 426.995 219.015 425.709 219.79 423.347L211.238 420.539ZM219.79 423.347C220.684 420.625 222.707 416.719 225.654 413.976C228.448 411.377 231.808 409.995 236.126 411.207L238.558 402.54C230.513 400.282 224.02 403.201 219.522 407.386C215.178 411.429 212.468 416.792 211.238 420.539L219.79 423.347Z" fill="white"/>
<circle cx="228.777" cy="426.532" r="16.4289" transform="rotate(180 228.777 426.532)" fill="white"/>
<ellipse cx="10.2506" cy="12.018" rx="10.2506" ry="12.018" transform="matrix(-1 0 0 1 270.656 414.443)" fill="black"/>
<ellipse cx="10.2506" cy="12.018" rx="10.2506" ry="12.018" transform="matrix(-1 0 0 1 232.482 414.443)" fill="black"/>
<path d="M253.69 442.721C253.69 442.721 249.819 445.548 246.62 445.548C243.421 445.548 239.551 442.721 239.551 442.721" stroke="black" stroke-width="8.34822" stroke-linecap="round"/>
<path d="M290.2 438.81C297.601 438.418 311.891 431.999 309.85 409.453" stroke="black" stroke-width="11.926" stroke-linecap="round"/>
<circle cx="9.19022" cy="9.19022" r="9.19022" transform="matrix(-0.743946 0.66824 0.66824 0.743946 307.983 390.408)" fill="#0093A7"/>
<path d="M183.042 341.213C190.453 341.213 205.062 346.868 204.215 369.49" stroke="black" stroke-width="11.926" stroke-linecap="round"/>
<path d="M139.919 305.957C134.152 310.61 119.231 315.384 105.683 297.247" stroke="black" stroke-width="11.926" stroke-linecap="round"/>
<path d="M156.885 341.213C149.475 341.213 134.865 346.868 135.712 369.49" stroke="black" stroke-width="11.926" stroke-linecap="round"/>
<rect width="23.329" height="14.1388" rx="7.0694" transform="matrix(-1 0 0 1 221.217 364.543)" fill="#00DDB5"/>
<rect width="23.329" height="14.1388" rx="7.0694" transform="matrix(-1 0 0 1 139.212 364.543)" fill="#00DDB5"/>
<circle cx="103.535" cy="291.018" r="9.19022" fill="#00BB99"/>
<path d="M108.813 322.645C108.813 315.946 113.222 311.698 123.346 308.757C126.136 307.94 129.296 305.873 132.02 303.185C138.026 297.257 131.947 289.967 123.509 289.967V289.967C114.691 289.967 108.813 283.758 108.813 274.608V260.393C108.813 251.08 114.691 245.035 123.509 245.035H137.715C145.552 245.035 145.226 231.637 153.063 231.637H188.007C195.518 231.637 195.518 245.035 203.355 245.035H216.418C225.236 245.035 231.114 251.08 231.114 260.393V274.608C231.114 283.758 225.236 289.967 216.418 289.967V289.967C208.063 289.967 201.896 297.08 207.769 303.023C210.505 305.79 213.735 307.923 216.581 308.757C226.868 311.698 231.114 315.783 231.114 322.645V340.455C231.114 349.768 225.072 355.814 216.418 355.323C210.561 354.984 205.004 354.114 199.822 352.759C181.905 348.074 158.426 347.941 140.52 352.669C135.195 354.076 129.494 354.977 123.509 355.323C114.855 355.814 108.813 349.768 108.813 340.455V322.645Z" fill="url(#paint1_linear_504_98)"/>
<path d="M170.989 287.218C170.213 289.58 171.499 292.123 173.86 292.899C176.222 293.674 178.765 292.389 179.541 290.027L170.989 287.218ZM179.541 290.027C180.435 287.305 182.457 283.399 185.405 280.656C188.198 278.057 191.558 276.675 195.877 277.887L198.309 269.22C190.263 266.962 183.771 269.881 179.273 274.066C174.928 278.109 172.219 283.471 170.989 287.218L179.541 290.027Z" fill="white"/>
<circle cx="188.528" cy="293.212" r="16.4289" transform="rotate(180 188.528 293.212)" fill="white"/>
<path d="M132.814 287.218C132.038 289.58 133.324 292.123 135.686 292.899C138.047 293.674 140.59 292.389 141.366 290.027L132.814 287.218ZM141.366 290.027C142.26 287.305 144.283 283.399 147.23 280.656C150.024 278.057 153.384 276.675 157.702 277.887L160.134 269.22C152.089 266.962 145.596 269.881 141.098 274.066C136.754 278.109 134.044 283.471 132.814 287.218L141.366 290.027Z" fill="white"/>
<circle cx="150.353" cy="293.212" r="16.4289" transform="rotate(180 150.353 293.212)" fill="white"/>
<ellipse cx="10.2506" cy="12.018" rx="10.2506" ry="12.018" transform="matrix(-1 0 0 1 192.232 281.123)" fill="black"/>
<ellipse cx="10.2506" cy="12.018" rx="10.2506" ry="12.018" transform="matrix(-1 0 0 1 154.058 281.123)" fill="black"/>
<path d="M175.266 309.4C175.266 309.4 171.395 312.228 168.196 312.228C164.997 312.228 161.127 309.4 161.127 309.4" stroke="black" stroke-width="8.34822" stroke-linecap="round"/>
<path d="M211.776 305.49C219.177 305.098 233.467 298.679 231.426 276.133" stroke="black" stroke-width="11.926" stroke-linecap="round"/>
<circle cx="9.19022" cy="9.19022" r="9.19022" transform="matrix(-0.743946 0.66824 0.66824 0.743946 229.559 257.088)" fill="#00BB99"/>
<path d="M100.697 474.533C108.108 474.533 122.717 480.189 121.87 502.811" stroke="black" stroke-width="11.926" stroke-linecap="round"/>
<path d="M57.5738 439.277C51.8069 443.931 36.886 448.704 23.3384 430.568" stroke="black" stroke-width="11.926" stroke-linecap="round"/>
<path d="M74.5403 474.533C67.1298 474.533 52.5205 480.189 53.3674 502.811" stroke="black" stroke-width="11.926" stroke-linecap="round"/>
<rect width="23.329" height="14.1388" rx="7.0694" transform="matrix(-1 0 0 1 138.872 497.863)" fill="#B1DD00"/>
<rect width="23.329" height="14.1388" rx="7.0694" transform="matrix(-1 0 0 1 56.8669 497.863)" fill="#B1DD00"/>
<circle cx="21.1902" cy="424.339" r="9.19022" fill="#78CF4F"/>
<path d="M26.4684 455.966C26.4684 449.267 30.8771 445.018 41.0008 442.077C43.7915 441.26 46.9511 439.193 49.6753 436.505C55.6812 430.577 49.6025 423.287 41.164 423.287V423.287C32.3466 423.287 26.4684 417.079 26.4684 407.929V393.714C26.4684 384.401 32.3466 378.355 41.164 378.355H55.3698C63.2075 378.355 62.881 364.957 70.7186 364.957H105.662C113.173 364.957 113.173 378.355 121.01 378.355H134.073C142.891 378.355 148.769 384.401 148.769 393.714V407.929C148.769 417.079 142.891 423.287 134.073 423.287V423.287C125.718 423.287 119.551 430.401 125.424 436.343C128.16 439.11 131.39 441.244 134.237 442.077C144.524 445.018 148.769 449.103 148.769 455.966V473.775C148.769 483.088 142.727 489.134 134.073 488.644C128.216 488.305 122.66 487.434 117.477 486.079C99.5601 481.395 76.081 481.262 58.1754 485.99C52.8502 487.396 47.1495 488.297 41.164 488.644C32.5099 489.134 26.4684 483.088 26.4684 473.775V455.966Z" fill="url(#paint2_linear_504_98)"/>
<path d="M88.6437 420.539C87.8682 422.9 89.154 425.444 91.5156 426.219C93.8772 426.995 96.4204 425.709 97.196 423.347L88.6437 420.539ZM97.196 423.347C98.0898 420.625 100.112 416.719 103.06 413.976C105.854 411.377 109.213 409.995 113.532 411.207L115.964 402.54C107.919 400.282 101.426 403.201 96.9281 407.386C92.5835 411.429 89.8742 416.792 88.6437 420.539L97.196 423.347Z" fill="white"/>
<circle cx="106.183" cy="426.532" r="16.4289" transform="rotate(180 106.183 426.532)" fill="white"/>
<path d="M50.4689 420.539C49.6934 422.9 50.9792 425.444 53.3408 426.219C55.7024 426.995 58.2456 425.709 59.0212 423.347L50.4689 420.539ZM59.0212 423.347C59.915 420.625 61.9377 416.719 64.8851 413.976C67.6788 411.377 71.0387 409.995 75.3574 411.207L77.7893 402.54C69.7437 400.282 63.2516 403.201 58.7533 407.386C54.4087 411.429 51.6994 416.792 50.4689 420.539L59.0212 423.347Z" fill="white"/>
<circle cx="68.0086" cy="426.532" r="16.4289" transform="rotate(180 68.0086 426.532)" fill="white"/>
<ellipse cx="10.2506" cy="12.018" rx="10.2506" ry="12.018" transform="matrix(-1 0 0 1 109.887 414.443)" fill="black"/>
<ellipse cx="10.2506" cy="12.018" rx="10.2506" ry="12.018" transform="matrix(-1 0 0 1 71.7126 414.443)" fill="black"/>
<path d="M92.9208 442.721C92.9208 442.721 89.0504 445.548 85.8514 445.548C82.6524 445.548 78.782 442.721 78.782 442.721" stroke="black" stroke-width="8.34822" stroke-linecap="round"/>
<path d="M128.655 440.954C133.721 446.363 147.835 453.16 163.768 437.078" stroke="black" stroke-width="11.926" stroke-linecap="round"/>
<circle cx="9.19022" cy="9.19022" r="9.19022" transform="matrix(-0.990331 -0.138721 -0.138721 0.990331 177.135 423.383)" fill="#78CF4F"/>
<path d="M152.062 234.248C152.062 224.684 160.174 216.932 170.18 216.932C180.186 216.932 188.297 224.684 188.297 234.248C188.297 243.811 188.297 234.248 170.18 234.248C150.377 234.248 152.062 243.811 152.062 234.248Z" fill="#FFE146"/>
<ellipse cx="170.162" cy="239.478" rx="18.1355" ry="6.86207" transform="rotate(-180 170.162 239.478)" fill="#FFE146"/>
<rect x="163.79" y="200.268" width="13.7241" height="19.6059" fill="#F6D942"/>
<path d="M187.284 197.877C187.284 203.528 179.83 208.109 170.636 208.109C161.441 208.109 153.987 203.528 153.987 197.877C153.987 192.226 153.987 197.877 170.636 197.877C188.833 197.877 187.284 192.226 187.284 197.877Z" fill="#E0CA55"/>
<path d="M213.785 160.997C213.785 182.924 194.913 200.699 171.632 200.699C148.352 200.699 129.48 182.924 129.48 160.997C129.48 139.07 129.48 160.997 171.632 160.998C217.706 160.997 213.785 139.07 213.785 160.997Z" fill="url(#paint3_linear_504_98)"/>
<ellipse cx="172.123" cy="152.722" rx="41.6626" ry="12.2537" fill="#FFF1A7"/>
<ellipse cx="170.652" cy="220.853" rx="6.86207" ry="4.90148" fill="#F6D942"/>
<ellipse cx="172.123" cy="152.723" rx="38.7217" ry="10.2931" fill="#A77F51"/>
<path d="M169.211 169.865C169.51 168.943 170.814 168.943 171.113 169.865L173.129 176.068C173.263 176.48 173.647 176.759 174.08 176.759H180.603C181.572 176.759 181.974 177.999 181.191 178.568L175.913 182.403C175.563 182.657 175.416 183.109 175.55 183.521L177.566 189.724C177.865 190.646 176.811 191.412 176.027 190.842L170.75 187.008C170.399 186.754 169.925 186.754 169.574 187.008L164.297 190.842C163.513 191.412 162.459 190.646 162.758 189.724L164.774 183.521C164.908 183.109 164.761 182.657 164.411 182.403L159.133 178.568C158.35 177.999 158.752 176.759 159.721 176.759H166.244C166.677 176.759 167.061 176.48 167.195 176.068L169.211 169.865Z" fill="#9C56F6"/>
<circle cx="130.46" cy="163.996" r="2.94089" fill="#FFF1A7"/>
<circle cx="138.302" cy="170.859" r="2.94089" fill="#FFF1A7"/>
<circle cx="150.066" cy="174.779" r="2.94089" fill="#FFF1A7"/>
<circle cx="188.297" cy="174.779" r="2.94089" fill="#FFF1A7"/>
<circle cx="202.022" cy="170.859" r="2.94089" fill="#FFF1A7"/>
<path d="M142.224 188.013C135.361 190.3 120.363 191.444 115.265 177.72C108.893 160.564 127.519 154.192 131.93 159.584" stroke="#FFE145" stroke-width="6" stroke-linecap="round"/>
<path d="M201.041 188.407C207.903 190.695 222.902 191.838 227.999 178.114C234.371 160.959 215.746 154.587 211.334 159.979" stroke="#FFE145" stroke-width="6" stroke-linecap="round"/>
<circle cx="213.785" cy="162.035" r="2.94089" fill="#FFF1A7"/>
<path d="M227.924 396.898C230.327 395.172 236.431 392.134 241.62 393.792" stroke="#0A0A0A" stroke-width="6" stroke-linecap="round"/>
<path d="M92.3843 401.094C94.4487 398.974 99.9273 394.915 105.326 395.64" stroke="#0A0A0A" stroke-width="6" stroke-linecap="round"/>
<path d="M260.015 395.516C262.942 395.085 269.759 395.187 273.609 399.041" stroke="#0A0A0A" stroke-width="6" stroke-linecap="round"/>
<rect x="109.049" y="139.617" width="5.88177" height="5.88177" transform="rotate(-58.8043 109.049 139.617)" fill="#5076FF"/>
<rect x="161.985" y="145.5" width="5.88177" height="5.88177" transform="rotate(-58.8043 161.985 145.5)" fill="#5076FF"/>
<rect width="5.88177" height="5.88177" transform="matrix(0.973322 0.229445 0.229445 -0.973322 265.896 163.838)" fill="#5076FF"/>
<rect width="5.88177" height="5.88177" transform="matrix(0.973322 0.229445 0.229445 -0.973322 134.537 262.848)" fill="#5076FF"/>
<rect x="140.601" y="114" width="5.88177" height="5.88177" transform="rotate(1.77744 140.601 114)" fill="#FFE072"/>
<rect width="5.88177" height="5.88177" transform="matrix(0.677937 -0.73512 -0.73512 -0.677937 240.811 216.42)" fill="#FFE072"/>
<rect width="9.9033" height="9.9033" transform="matrix(0.677937 -0.73512 -0.73512 -0.677937 128.575 287.953)" fill="#FFE072"/>
<rect x="107.406" y="150.27" width="10.2524" height="10.2524" transform="rotate(1.77744 107.406 150.27)" fill="#FFA5A5"/>
<rect width="10.2524" height="10.2524" transform="matrix(0.677937 -0.73512 -0.73512 -0.677937 185.207 162.797)" fill="#FFA5A5"/>
<rect width="6.69302" height="6.69302" transform="matrix(0.677937 -0.73512 -0.73512 -0.677937 231.077 339.121)" fill="#FFA5A5"/>
<rect x="89.6257" y="210.07" width="5.88177" height="5.88177" transform="rotate(1.77744 89.6257 210.07)" fill="#01DEB6"/>
<rect x="273.404" y="354.172" width="11.9061" height="11.9061" transform="rotate(61.3535 273.404 354.172)" fill="#01DEB6"/>
<rect width="5.88177" height="5.88177" transform="matrix(0.677937 -0.73512 -0.73512 -0.677937 252.575 171.326)" fill="#01DEB6"/>
<rect width="10.7525" height="10.7525" transform="matrix(0.677937 -0.73512 -0.73512 -0.677937 196.977 202.717)" fill="#01DEB6"/>
<path d="M68.5085 305.145C68.5085 305.145 74.7317 305.583 74.6148 299.842C74.4979 294.101 80.721 294.539 80.721 294.539" stroke="#5076FF" stroke-width="5"/>
<path d="M240.859 142.048C240.859 142.048 236.073 138.047 240.14 133.993C244.207 129.939 239.421 125.938 239.421 125.938" stroke="#5076FF" stroke-width="5"/>
<path d="M30.8438 26.043H28.3438V39.0312H30.8438V26.043ZM16.1172 35.2227L17.3086 37.1562C19.418 36.5605 20.8633 35.252 21.6641 33.6016C22.4746 35.1152 23.8906 36.2969 25.9414 36.8633L27.1328 34.9102C24.2031 34.1191 22.8555 32.1465 22.875 30.1641V30.0273H26.5078V28.0938H22.8945V26.1211H20.3555V28.0938H16.7227V30.0273H20.3555V30.1641C20.3652 32.2734 19.0566 34.3633 16.1172 35.2227ZM18.9297 43.4844H31.3125V41.4922H21.4492V37.8789H18.9297V43.4844ZM47.5625 27.0586H35.1016V29.0508H45.082C45.0723 30.584 45.0332 32.332 44.5742 34.6172H33.2461V36.6289H40.0234V43.8164H42.5234V36.6289H49.457V34.6172H47.1035C47.5527 32.127 47.5527 30.3203 47.5625 28.6602V27.0586ZM66.7812 32.957H50.5312V34.9102H66.7812V32.957ZM52.4062 37.8398H62.3086V38.8359H52.4258V43.6406H65.2383V41.707H54.8672V40.6133H64.7695V35.9648H52.4062V37.8398ZM52.5625 31.9805H64.8477V30.0273H55.043V28.3672H64.7109V26.375H52.5625V31.9805ZM75.9219 26.2773C71.8203 26.2773 69.4375 27.3516 69.4375 29.3047C69.4375 31.2871 71.8203 32.3516 75.9219 32.3516C80.0137 32.3516 82.377 31.2871 82.3867 29.3047C82.377 27.3516 80.0137 26.2773 75.9219 26.2773ZM67.8164 35.1641H84.0273V33.1914H67.8164V35.1641ZM69.6914 38.0156H79.5938V38.9922H69.7109V43.6797H82.5234V41.8047H72.1523V40.7305H82.0547V36.1992H69.6914V38.0156ZM72.0547 29.3047C72.0449 28.5137 73.3145 28.0938 75.9219 28.0938C78.5488 28.0938 79.8086 28.5137 79.8086 29.3047C79.8086 30.1738 78.5488 30.5156 75.9219 30.5156C73.3145 30.5156 72.0449 30.1738 72.0547 29.3047ZM105.98 39.6758H99.0469V36.043H104.164V27.332H91.4297V36.043H96.5664V39.6758H89.7109V41.7266H105.98V39.6758ZM93.8906 34.0898V29.3242H101.703V34.0898H93.8906ZM111.781 27.2734C109.057 27.2734 107.084 29.7246 107.094 33.6016C107.084 37.5078 109.057 39.9492 111.781 39.9492C114.496 39.9492 116.459 37.5078 116.469 33.6016C116.459 29.7246 114.496 27.2734 111.781 27.2734ZM109.496 33.6016C109.496 30.9648 110.424 29.5195 111.781 29.5195C113.168 29.5195 114.076 30.9648 114.086 33.6016C114.076 36.248 113.168 37.6934 111.781 37.6836C110.424 37.6934 109.496 36.248 109.496 33.6016ZM118.52 43.7969H121.02V34.793H123.637V32.7227H121.02V26.0234H118.52V43.7969ZM142.992 26.0234H140.492V36.7461H142.992V32.4883H145.395V30.3984H142.992V26.0234ZM128.891 29.5977H139.438V27.625H135.414V25.9258H132.934V27.625H128.891V29.5977ZM129.75 33.3281C129.75 35.252 131.547 36.541 134.164 36.5508C136.752 36.541 138.539 35.252 138.539 33.3281C138.539 31.4531 136.752 30.1445 134.164 30.1445C131.547 30.1445 129.75 31.4531 129.75 33.3281ZM131.371 43.6016H142.992V37.5273H131.371V43.6016ZM132.191 33.3281C132.182 32.4785 132.973 32.0098 134.164 32.0195C135.365 32.0098 136.176 32.4785 136.176 33.3281C136.176 34.2363 135.365 34.7051 134.164 34.7148C132.973 34.7051 132.182 34.2363 132.191 33.3281ZM133.832 41.6094V39.4805H140.531V41.6094H133.832ZM150.551 28.0547H146.488V30.0664H148.393C148.275 33.5039 147.729 36.209 145.902 38.9727L147.836 39.9883C150.102 36.4727 150.531 32.498 150.551 28.0547ZM149.926 39.832L151.82 40.8867C153.061 38.9629 153.734 36.873 154.105 34.6953H155.883V43.0156H158.227V26.4141H155.883V32.6836H154.359C154.496 31.1699 154.535 29.6172 154.535 28.0547H151.059V30.0664H152.406C152.318 33.6699 151.918 36.8047 149.926 39.832ZM159.34 43.7969H161.723V26.0234H159.34V43.7969ZM176.41 27.7031H173.676V26.082H171.312V27.7031H168.559V29.6562H171.312C171.225 31.1211 170.141 32.7129 168.031 33.5039L169.125 35.3594C170.756 34.793 171.879 33.6895 172.514 32.3711C173.168 33.582 174.281 34.5586 175.922 35.0469L176.977 33.2305C174.828 32.5469 173.744 31.0918 173.676 29.6562H176.41V27.7031ZM171.176 37.8789H180.883V38.8555H171.195V43.6016H183.949V41.7656H173.676V40.6523H183.344V36.0039H171.176V37.8789ZM177.211 35.2422H179.555V31.6875H180.98V35.3594H183.344V26.043H180.98V29.7148H179.555V26.3555H177.211V35.2422ZM200.219 26.043H197.738V39.1289H200.219V26.043ZM186.273 29.1875H192.035V31.0234H186.293V36.8633H187.855C191.615 36.8633 193.92 36.7656 196.508 36.2773L196.234 34.2852C193.93 34.7246 191.918 34.8223 188.734 34.832V32.8594H194.516V27.1953H186.273V29.1875ZM188.266 43.4844H200.688V41.4922H190.746V38.0352H188.266V43.4844ZM209.535 30.8672V29.7734H213.246V27.7422H203.207V29.7734H206.977V30.8672C206.977 33.875 205.453 37.166 202.504 38.4844L203.93 40.457C206.029 39.4902 207.504 37.5371 208.305 35.2031C209.105 37.3516 210.551 39.1191 212.641 40.0078L213.988 38.0547C211.01 36.8145 209.525 33.7383 209.535 30.8672ZM215.004 43.7969H217.523V26.0234H215.004V43.7969ZM236.176 33.9922H219.906V35.8477H236.176V33.9922ZM221.762 38.4453H231.762V39.3438H221.781V43.6406H234.75V41.9414H224.262V40.9258H234.223V36.7266H221.762V38.4453ZM221.898 28.0352H231.703V28.9336H221.938V33.1523H234.516V31.4727H224.418V30.5156H234.203V26.3359H221.898V28.0352ZM250.434 26.9414H242.445V34.4414H243.93C247.758 34.4512 249.926 34.3926 252.23 33.8555L251.977 31.9219C249.896 32.3516 248.021 32.4883 244.926 32.5078V28.9141H250.434V26.9414ZM244.125 37.5664H253.441V38.6211H244.164V43.6016H256.43V41.6094H246.605V40.4961H255.922V35.5938H244.125V37.5664ZM253.422 34.8711H255.922V31.4141H258.324V29.3828H255.922V26.0234H253.422V34.8711ZM265.824 28.4453V26.9414H263.305V28.5625C263.295 31.043 261.986 33.4258 258.949 34.4023L260.258 36.3945C262.396 35.6719 263.832 34.2168 264.613 32.3613C265.365 33.9629 266.664 35.1836 268.578 35.8477L269.887 33.8945C267.035 33.0156 265.814 30.8184 265.824 28.4453ZM261.898 40.3594C261.898 42.5566 264.223 43.8066 268.012 43.7969C271.811 43.8066 274.135 42.5566 274.145 40.3594C274.135 38.1719 271.811 36.8926 268.012 36.9023C264.223 36.8926 261.898 38.1719 261.898 40.3594ZM264.379 40.3594C264.379 39.3438 265.658 38.8359 268.012 38.8359C270.375 38.8359 271.654 39.3438 271.664 40.3594C271.654 41.3457 270.375 41.8633 268.012 41.8633C265.658 41.8633 264.379 41.3457 264.379 40.3594ZM268.266 31.3164H271.605V36.4336H274.086V26.0234H271.605V29.2852H268.266V31.3164ZM284.965 28.7383H281.918V26.5117H279.457V28.7383H276.371V30.7109H284.965V28.7383ZM276.781 35.7305C276.781 38.2109 278.441 39.9688 280.707 39.9688C282.982 39.9688 284.604 38.2109 284.613 35.7305C284.604 33.2598 282.982 31.5215 280.707 31.5117C278.441 31.5215 276.781 33.2598 276.781 35.7305ZM278.969 35.7305C278.969 34.3926 279.672 33.582 280.707 33.582C281.703 33.582 282.416 34.3926 282.426 35.7305C282.416 37.0879 281.703 37.8594 280.707 37.8594C279.672 37.8594 278.969 37.0879 278.969 35.7305ZM285.629 43.0352H287.953V35.2422H289.398V43.7969H291.762V26.0234H289.398V33.25H287.953V26.375H285.629V43.0352ZM309.945 39.6758H306.332V35.2715C307.67 34.4414 308.471 33.2012 308.48 31.668C308.471 28.7871 305.629 26.8926 301.781 26.8828C297.914 26.8926 295.102 28.7871 295.102 31.668C295.102 33.2305 295.932 34.4902 297.309 35.3203V39.6758H293.676V41.7266H309.945V39.6758ZM297.562 31.668C297.562 29.8809 299.232 28.8457 301.781 28.8555C304.291 28.8457 306.01 29.8809 306.02 31.668C306.01 33.4062 304.291 34.4805 301.781 34.4805C299.232 34.4805 297.562 33.4062 297.562 31.668ZM299.77 39.6758V36.2285C300.395 36.3457 301.068 36.4141 301.781 36.4141C302.494 36.4141 303.178 36.3457 303.812 36.2188V39.6758H299.77ZM315.004 27.8594H311.996L312.25 37.7617H314.75L315.004 27.8594ZM311.879 40.5352C311.859 41.4434 312.602 42.1758 313.52 42.1758C314.389 42.1758 315.141 41.4434 315.141 40.5352C315.141 39.6367 314.389 38.9043 313.52 38.9141C312.602 38.9043 311.859 39.6367 311.879 40.5352Z" fill="black"/>

</svg>
