<svg width="113" height="78" viewBox="0 0 113 78" fill="none" xmlns="http://www.w3.org/2000/svg">
<defs>
<linearGradient id="paint0_linear_686_49" x1="63.9893" y1="35.3545" x2="63.9893" y2="72.7025" gradientUnits="userSpaceOnUse">
<stop stop-color="#00DDB5"/>
<stop offset="1" stop-color="#00BE9C"/>
</linearGradient>
</defs>
<path d="M70.9052 57.9463C74.824 57.9463 82.5498 60.9371 82.1019 72.9002" stroke="black" stroke-width="4.95488" stroke-linecap="round"/>
<path d="M57.0729 57.9463C53.154 57.9463 45.4282 60.9371 45.8761 72.9002" stroke="black" stroke-width="4.95488" stroke-linecap="round"/>
<rect width="12.337" height="7.47696" rx="3.73848" transform="matrix(-1 0 0 1 91.0933 70.2842)" fill="#00DDB5"/>
<rect width="12.337" height="7.47696" rx="3.73848" transform="matrix(-1 0 0 1 47.7266 70.2842)" fill="#00DDB5"/>
<path d="M42.0961 41.6099C38.433 43.0026 30.1487 42.9527 26.3158 31.6114" stroke="black" stroke-width="4.95488" stroke-linecap="round"/>
<circle cx="26.2586" cy="28.1286" r="4.86002" transform="rotate(18.0856 26.2586 28.1286)" fill="#00BB99"/>
<path d="M31.6514 48.1277C31.6514 44.5851 33.9829 42.3385 39.3365 40.7833C40.8124 40.351 42.4832 39.2582 43.9238 37.8364C47.1 34.7017 43.8854 30.8467 39.4229 30.8467C34.76 30.8467 31.6514 27.5633 31.6514 22.7246V15.2073C31.6514 10.2822 34.76 7.08523 39.4229 7.08523H46.9353C51.0801 7.08523 50.9074 0 55.0521 0H73.5309C77.503 0 77.503 7.08523 81.6477 7.08523H88.5557C93.2186 7.08523 96.3271 10.2822 96.3271 15.2073V22.7246C96.3271 27.5633 93.2186 30.8467 88.5557 30.8467C84.1373 30.8467 80.8759 34.6083 83.9819 37.7507C85.4285 39.2142 87.1367 40.3424 88.6421 40.7833C94.0821 42.3385 96.3271 44.4987 96.3271 48.1277V57.5459C96.3271 62.471 93.1322 65.6679 88.5557 65.4087C83.9923 65.1446 79.7748 64.2705 76.0255 62.8658C68.8204 60.1664 59.3762 60.1123 52.1716 62.8132C48.3424 64.2487 44.043 65.1413 39.4229 65.4087C34.8464 65.6679 31.6514 62.471 31.6514 57.5459V48.1277Z" fill="url(#paint0_linear_686_49)"/>
<path d="M65.4526 27.2648C65.1747 28.2594 65.7557 29.2911 66.7503 29.569C67.7449 29.847 68.7766 29.266 69.0545 28.2714L65.4526 27.2648ZM69.0545 28.2714C69.4787 26.7534 70.4899 24.5575 72.0579 22.9617C73.5647 21.4281 75.4805 20.5235 78.0044 21.1111L78.8525 17.4687C74.7623 16.5163 71.5751 18.1169 69.3903 20.3405C67.2666 22.5019 65.9975 25.3151 65.4526 27.2648L69.0545 28.2714Z" fill="white"/>
<circle cx="73.8759" cy="29.3637" r="8.68802" transform="rotate(180 73.8759 29.3637)" fill="white"/>
<path d="M45.3348 27.1928C45.1267 28.2044 45.778 29.1931 46.7895 29.4012C47.8011 29.6093 48.7898 28.958 48.9979 27.9464L45.3348 27.1928ZM48.9979 27.9464C49.3155 26.4026 50.1716 24.1417 51.6248 22.4407C53.0213 20.8061 54.8695 19.7705 57.4282 20.1812L58.021 16.4886C53.8744 15.823 50.8063 17.6413 48.7814 20.0115C46.8131 22.3153 45.7427 25.2099 45.3348 27.1928L48.9979 27.9464Z" fill="white"/>
<circle cx="53.688" cy="29.3637" r="8.68802" transform="rotate(180 53.688 29.3637)" fill="white"/>
<ellipse cx="5.4208" cy="6.35542" rx="5.4208" ry="6.35542" transform="matrix(-1 0 0 1 76.8418 20)" fill="black"/>
<path d="M45.4997 26.9999C45.4997 30.5099 47.9267 33.3554 50.9205 33.3554C53.9143 33.3554 56.3413 30.5099 56.3413 26.9999C56.3413 23.4899 53.9143 20.6445 50.9205 20.6445C47.9267 20.6445 45.4997 23.4899 45.4997 26.9999Z" fill="black"/>
<path d="M66.793 41.123C66.793 41.123 64.7462 42.6184 63.0545 42.6184C61.3628 42.6184 59.316 41.123 59.316 41.123" stroke="black" stroke-width="3.46842" stroke-linecap="round"/>
<path d="M87.7193 42.6317C91.368 44.0615 99.6524 44.0956 103.6 32.7937" stroke="black" stroke-width="4.95488" stroke-linecap="round"/>
<circle cx="4.86002" cy="4.86002" r="4.86002" transform="matrix(-0.953694 0.300778 0.300778 0.953694 106.866 23.2148)" fill="#00BB99"/>
<path d="M14.5335 12.2278L21.9878 20L29.4665 12.2278C31.1108 10.5316 31.9878 8.41772 32 6.10127C31.9878 2.70886 29.5396 0 26.3971 0C24.5822 0 23.0353 0.848101 21.9878 2.20253C20.9769 0.848101 19.4178 0 17.6273 0C14.4604 0 12.0244 2.70886 12 6.10127C12.0244 8.41772 12.9013 10.5316 14.5335 12.2278Z" fill="#F06E6E"/>
<path d="M2.5335 33.2278L9.98782 41L17.4665 33.2278C19.1108 31.5316 19.9878 29.4177 20 27.1013C19.9878 23.7089 17.5396 21 14.3971 21C12.5822 21 11.0353 21.8481 9.98782 23.2025C8.97686 21.8481 7.41778 21 5.62728 21C2.46041 21 0.0243605 23.7089 0 27.1013C0.0243605 29.4177 0.90134 31.5316 2.5335 33.2278Z" fill="#F06E6E"/>
</svg>
