<svg width="124" height="126" viewBox="0 0 124 126" fill="none" xmlns="http://www.w3.org/2000/svg">
<path d="M63 47.0806C63 43.6151 60.729 41.4174 55.514 39.8959C52.0654 38.8816 47.5234 34.1482 47.6075 30.1755H55.4299C59.972 30.1755 63 26.9636 63 22.2302V14.8765C63 10.0585 59.972 6.93107 55.4299 6.93107H48.1121C44.0748 6.93107 44.243 0 40.2056 0H22.2056C18.3364 0 18.3364 6.93107 14.2991 6.93107H7.57009C3.02804 6.93107 0 10.0585 0 14.8765V22.2302C0 26.9636 3.02804 30.1755 7.57009 30.1755H15.2243C15.4766 34.1482 10.9346 38.8816 7.48598 39.8959C2.18692 41.4174 0 43.5305 0 47.0806V56.2938C0 61.1118 3.11215 64.2392 7.57009 63.9856C17.7477 63.394 26.1589 59.6749 31.3738 53.7581C36.6729 59.6749 45.2523 63.394 55.4299 63.9856C59.8878 64.2392 63 61.1118 63 56.2938V47.0806Z" fill="#00DDB5"/>
<path d="M124 105.663C124 102.065 121.979 99.9227 118.778 100.265C107.913 101.379 98.0588 101.122 86.8569 99.6657V95.382C98.0588 96.8385 107.913 97.0955 118.778 95.9817C121.894 95.7247 124 92.9831 124 89.3848V62.9972C124 59.3989 121.894 57 118.694 57H66.3061C63.1056 57 61 59.3989 61 62.9972V69.3371C61 72.9354 63.0214 75.0772 66.2219 74.7345C77.0869 73.6208 86.9412 73.8778 98.143 75.3343V79.361C86.9412 77.9045 77.0869 77.6475 66.2219 78.7612C63.1056 79.0183 61 81.7598 61 85.3581V112.003C61 115.601 63.1056 118 66.3061 118H118.694C121.894 118 124 115.601 124 112.003V105.663Z" fill="#00DDB5"/>
<path d="M114 22.5C114 34.3741 104.374 44 92.5 44C80.6259 44 71 34.3741 71 22.5C71 10.6259 80.6259 1 92.5 1C104.374 1 114 10.6259 114 22.5Z" fill="#3E3E3E"/>
<path fill-rule="evenodd" clip-rule="evenodd" d="M110.719 25.5344C112.542 26.1332 113.535 28.0967 112.936 29.92C111.423 34.5285 108.076 41.1274 102.788 46.0478C97.3811 51.0787 89.7559 54.4724 80.2651 51.8093L82.1427 45.1178C88.7561 46.9736 93.9629 44.7661 98.0537 40.9598C102.263 37.043 105.08 31.5686 106.333 27.7517C106.932 25.9283 108.896 24.9356 110.719 25.5344Z" fill="#3E3E3E"/>
<path d="M8 90.5C8 102.374 17.6259 112 29.5 112C41.3741 112 51 102.374 51 90.5C51 78.6259 41.3741 69 29.5 69C17.6259 69 8 78.6259 8 90.5Z" fill="#3E3E3E"/>
<path fill-rule="evenodd" clip-rule="evenodd" d="M11.452 92.8381C9.62867 93.4369 8.63596 95.4004 9.23473 97.2238C10.7481 101.832 14.0948 108.431 19.383 113.352C24.7898 118.382 32.415 121.776 41.9058 119.113L40.0282 112.422C33.4148 114.277 28.208 112.07 24.1172 108.264C19.9077 104.347 17.0911 98.8723 15.8377 95.0554C15.2389 93.2321 13.2754 92.2393 11.452 92.8381Z" fill="#3E3E3E"/>
</svg>
