<svg width="165" height="141" viewBox="0 0 165 141" fill="none" xmlns="http://www.w3.org/2000/svg">
<circle cx="94.5" cy="70.5" r="70.5" fill="#D7E0FF"/>
<defs>
<linearGradient id="paint0_linear_684_28" x1="110.621" y1="75.5005" x2="110.621" y2="125" gradientUnits="userSpaceOnUse">
<stop stop-color="#00DDB5"/>
<stop offset="1" stop-color="#00BE9C"/>
</linearGradient>
</defs>
<path d="M19.3998 22.5195L72.784 22.5195V102.596L46.0919 86.3485L19.3998 102.596L19.3998 22.5195Z" fill="#5076FF"/>
<path d="M119.788 105.443C124.982 105.443 135.222 109.407 134.628 125.263" stroke="black" stroke-width="4.95488" stroke-linecap="round"/>
<path d="M89.5635 80.7324C85.5214 83.9942 75.0636 87.3399 65.5682 74.6281" stroke="black" stroke-width="4.95488" stroke-linecap="round"/>
<path d="M101.455 105.443C96.2611 105.443 86.0216 109.407 86.6152 125.263" stroke="black" stroke-width="4.95488" stroke-linecap="round"/>
<rect width="16.3511" height="9.90976" rx="4.95488" transform="matrix(-1 0 0 1 146.544 121.795)" fill="#00DDB5"/>
<rect width="16.3511" height="9.90976" rx="4.95488" transform="matrix(-1 0 0 1 89.0679 121.795)" fill="#00DDB5"/>
<circle cx="64.0623" cy="70.2636" r="6.44134" fill="#00BB99"/>
<path d="M67.7618 92.4297C67.7618 87.7344 70.8518 84.7569 77.9474 82.6956C79.9034 82.1227 82.118 80.6742 84.0273 78.7898C88.2368 74.6353 83.9763 69.5259 78.0619 69.5259V69.5259C71.8818 69.5259 67.7618 65.1742 67.7618 58.7611V48.7979C67.7618 42.2703 71.8818 38.0331 78.0619 38.0331H88.0186C93.512 38.0331 93.2831 28.6426 98.7764 28.6426H123.268C128.532 28.6426 128.532 38.0331 134.026 38.0331H143.181C149.361 38.0331 153.481 42.2703 153.481 48.7979V58.7611C153.481 65.1742 149.361 69.5259 143.181 69.5259V69.5259C137.325 69.5259 133.002 74.5115 137.119 78.6763C139.036 80.616 141.3 82.1113 143.296 82.6956C150.506 84.7569 153.481 87.6199 153.481 92.4297V104.912C153.481 111.44 149.247 115.677 143.181 115.334C135.315 114.878 128.223 113.055 122.265 110.096C115.373 106.674 106.169 106.624 99.2699 110.031C93.1985 113.029 85.9862 114.875 78.0619 115.334C71.9963 115.677 67.7618 111.44 67.7618 104.912V92.4297Z" fill="url(#paint0_linear_684_28)"/>
<path d="M112.56 67.9995C112.238 68.9807 112.772 70.0373 113.754 70.3595C114.735 70.6817 115.791 70.1475 116.114 69.1663L112.56 67.9995ZM116.114 69.1663C116.788 67.1123 118.304 64.1664 120.569 62.0587C122.77 60.0105 125.572 58.8226 129.131 59.8212L130.142 56.2204C125.034 54.7873 120.931 56.6135 118.021 59.3208C115.176 61.9686 113.375 65.5196 112.56 67.9995L116.114 69.1663Z" fill="white"/>
<circle cx="123.633" cy="71.7996" r="11.5149" transform="rotate(180 123.633 71.7996)" fill="white"/>
<path d="M85.8041 67.9995C85.4819 68.9807 86.0161 70.0373 86.9973 70.3595C87.9785 70.6817 89.0351 70.1475 89.3573 69.1663L85.8041 67.9995ZM89.3573 69.1663C90.0318 67.1123 91.5475 64.1664 93.8127 62.0587C96.014 60.0105 98.816 58.8226 102.375 59.8212L103.385 56.2204C98.2779 54.7873 94.1747 56.6135 91.2651 59.3208C88.4195 61.9686 86.6185 65.5196 85.8041 67.9995L89.3573 69.1663Z" fill="white"/>
<circle cx="96.8771" cy="71.7996" r="11.5149" transform="rotate(180 96.8771 71.7996)" fill="white"/>
<ellipse cx="7.18457" cy="8.4233" rx="7.18457" ry="8.4233" transform="matrix(-1 0 0 1 126.229 63.3271)" fill="black"/>
<ellipse cx="7.18457" cy="8.4233" rx="7.18457" ry="8.4233" transform="matrix(-1 0 0 1 99.4733 63.3271)" fill="black"/>
<path d="M114.338 83.1465C114.338 83.1465 111.625 85.1284 109.383 85.1284C107.141 85.1284 104.428 83.1465 104.428 83.1465" stroke="black" stroke-width="3.46842" stroke-linecap="round"/>
<path d="M139.928 80.4055C145.115 80.1311 155.13 75.6317 153.7 59.8296" stroke="black" stroke-width="4.95488" stroke-linecap="round"/>
<circle cx="6.44134" cy="6.44134" r="6.44134" transform="matrix(-0.743946 0.66824 0.66824 0.743946 152.391 46.4805)" fill="#00BB99"/>
<path d="M12.2543 13.9109C12.797 12.2826 13.0684 11.4685 13.5816 11.4601C14.0949 11.4518 14.3926 12.2567 14.988 13.8664L15.6146 15.5606C15.7284 15.8682 15.7852 16.022 15.8974 16.1342C16.0096 16.2464 16.1634 16.3032 16.471 16.417L18.1652 17.0436C19.7749 17.639 20.5798 17.9367 20.5715 18.4499C20.5631 18.9632 19.749 19.2346 18.1207 19.7773L16.3637 20.363C16.0264 20.4754 15.8577 20.5316 15.7368 20.6526C15.6159 20.7735 15.5597 20.9422 15.4472 21.2794L14.9326 22.8234C14.3643 24.5283 14.0801 25.3808 13.5579 25.3808C13.0357 25.3808 12.7516 24.5283 12.1833 22.8234L11.6686 21.2794C11.5562 20.9422 11.5 20.7735 11.379 20.6526C11.2581 20.5316 11.0894 20.4754 10.7522 20.363L9.20815 19.8483C7.50325 19.28 6.6508 18.9959 6.6508 18.4737C6.6508 17.9515 7.50325 17.6673 9.20815 17.099L10.7522 16.5844C11.0894 16.4719 11.2581 16.4157 11.379 16.2948C11.5 16.1739 11.5562 16.0052 11.6686 15.6679L12.2543 13.9109Z" fill="#FFE145"/>
<path d="M5.36585 28.419C5.77427 27.1121 5.97848 26.4586 6.37379 26.4525C6.7691 26.4464 6.99339 27.0933 7.44198 28.387L7.90668 29.7271C7.98762 29.9606 8.02809 30.0773 8.11082 30.1636C8.19355 30.2498 8.30846 30.2952 8.53829 30.3858L9.99835 30.9619C11.1373 31.4112 11.7068 31.6359 11.7003 32.0146C11.6939 32.3934 11.117 32.5985 9.96338 33.0086L8.45841 33.5437C8.20601 33.6335 8.07981 33.6784 7.99046 33.7712C7.90111 33.8641 7.86116 33.992 7.78126 34.2476L7.39861 35.4721C6.97093 36.8407 6.75708 37.525 6.35526 37.525C5.95344 37.525 5.7396 36.8407 5.31192 35.4721L4.92927 34.2476C4.84937 33.992 4.80942 33.8641 4.72007 33.7712C4.63072 33.6784 4.50452 33.6335 4.25212 33.5437L2.8967 33.0618C1.68884 32.6324 1.0849 32.4176 1.0849 32.0319C1.0849 31.6461 1.68884 31.4314 2.89671 31.0019L4.25212 30.52C4.50452 30.4303 4.63072 30.3854 4.72007 30.2925C4.80942 30.1996 4.84937 30.0718 4.92927 29.8161L5.36585 28.419Z" fill="#FFE145"/>
<path d="M54.731 101.076C55.1404 99.8479 55.3452 99.2338 55.7323 99.2275C56.1195 99.2212 56.3441 99.8284 56.7932 101.043L57.9995 104.304C58.0853 104.536 58.1282 104.652 58.2128 104.737C58.2975 104.821 58.4135 104.864 58.6455 104.95L61.9069 106.156C63.1212 106.606 63.7284 106.83 63.7221 107.217C63.7158 107.604 63.1017 107.809 61.8733 108.219L58.5102 109.34C58.2558 109.424 58.1286 109.467 58.0374 109.558C57.9461 109.649 57.9037 109.777 57.8189 110.031L56.7514 113.233C56.3227 114.52 56.1084 115.163 55.7144 115.163C55.3205 115.163 55.1061 114.52 54.6774 113.233L53.61 110.031C53.5252 109.777 53.4827 109.649 53.3915 109.558C53.3003 109.467 53.1731 109.424 52.9186 109.34L49.7163 108.272C48.4301 107.843 47.787 107.629 47.787 107.235C47.787 106.841 48.4301 106.627 49.7163 106.198L52.9186 105.131C53.1731 105.046 53.3003 105.004 53.3915 104.912C53.4827 104.821 53.5252 104.694 53.61 104.439L54.731 101.076Z" fill="#FFE145"/>
<path d="M34.2864 60.4414C37.3166 60.4414 39.1471 58.5698 39.1403 55.4641C39.1471 52.3721 37.3166 50.5142 34.3275 50.5142H30.7899V60.4414H34.2864ZM32.8466 58.6726V52.283H34.2178C36.0963 52.283 37.0835 53.2565 37.0835 55.4641C37.0835 57.6922 36.0963 58.6726 34.2041 58.6726H32.8466ZM45.2145 54.6688H40.6897V56.2868H45.2145V54.6688ZM51.1654 50.5142H49.2183L46.7639 52.0773V53.901L49.0401 52.475H49.0949V60.4414H51.1654V50.5142ZM53.4689 60.4414H60.5715V58.7412H56.3346V58.6863L57.8429 57.2192C59.886 55.3681 60.4344 54.4426 60.4344 53.3114C60.4344 51.5906 59.0221 50.3771 56.8968 50.3771C54.8058 50.3771 53.3661 51.618 53.3729 53.5582H55.3337C55.3268 52.6052 55.937 52.0156 56.8694 52.0225C57.7812 52.0156 58.4462 52.5641 58.4462 53.4485C58.4462 54.2369 57.9458 54.7854 57.0202 55.6698L53.4552 58.9468L53.4689 60.4414Z" fill="white"/>
</svg>
