<svg width="154" height="157" viewBox="0 0 154 157" fill="none" xmlns="http://www.w3.org/2000/svg">
<defs>
<linearGradient id="paint0_linear_291_2" x1="75.1665" y1="59.7003" x2="75.1665" y2="103.752" gradientUnits="userSpaceOnUse">
<stop stop-color="#00DDB5"/>
<stop offset="1" stop-color="#00BE9C"/>
</linearGradient>
</defs>
<path d="M11.7578 122.062H10.1172V129.796H11.7578V126.646H13.5889V125.313H11.7578V122.062ZM1.81152 128.961H2.88086C5.81787 128.961 7.37793 128.902 9.0918 128.536L8.93066 127.232C7.37061 127.555 5.95703 127.635 3.42285 127.643V124.317H7.74414V122.999H1.81152V128.961ZM2.9541 132.652C2.9541 134.322 4.69727 135.289 7.43652 135.289C10.1538 135.289 11.8677 134.322 11.875 132.652C11.8677 131.012 10.1538 130.045 7.43652 130.045C4.69727 130.045 2.9541 131.012 2.9541 132.652ZM4.56543 132.652C4.55811 131.81 5.62012 131.341 7.43652 131.349C9.21631 131.341 10.2856 131.81 10.293 132.652C10.2856 133.509 9.21631 133.985 7.43652 133.985C5.62012 133.985 4.55811 133.509 4.56543 132.652ZM25.293 122.076H23.6523V131.744H25.293V122.076ZM14.2773 128.624L15.127 129.913C16.687 129.349 17.7856 128.192 18.3716 126.742C18.9575 128.097 20.0342 129.151 21.543 129.679L22.3779 128.39C20.2759 127.687 19.1919 125.943 19.1992 124.098V122.809H17.5146V124.098C17.522 126.002 16.4233 127.87 14.2773 128.624ZM16.5332 135.04H25.6592V133.722H18.1738V130.821H16.5332V135.04ZM38.2422 122.062H36.6016V135.318H38.2422V122.062ZM27.6514 127.701C27.644 130.58 29.1016 132.389 31.1084 132.389C33.0933 132.389 34.5581 130.58 34.5654 127.701C34.5581 124.845 33.0933 123.028 31.1084 123.028C29.1016 123.028 27.644 124.845 27.6514 127.701ZM29.2188 127.701C29.2188 125.68 29.9878 124.493 31.1084 124.493C32.2217 124.493 32.9834 125.68 32.9834 127.701C32.9834 129.737 32.2217 130.917 31.1084 130.924C29.9878 130.917 29.2188 129.737 29.2188 127.701ZM51.1475 123.043H44.3945V124.391H49.5435C49.5288 125.204 49.4775 126.222 49.2139 127.584L50.8252 127.73C51.1328 126.053 51.1328 124.735 51.1475 123.834V123.043ZM43.6035 128.785L43.75 130.089C46.0718 130.082 49.1992 130.03 51.9531 129.532L51.8652 128.36C50.5835 128.543 49.1772 128.646 47.8076 128.705V126.061H46.1963V128.756C45.2661 128.771 44.3872 128.778 43.6035 128.785ZM45.5811 135.04H54.7363V133.722H47.2217V131.1H45.5811V135.04ZM52.6416 131.979H54.3115V127.555H56.0254V126.192H54.3115V122.062H52.6416V131.979ZM67.7441 122.076H66.1035V129.562H67.7441V122.076ZM56.7139 128.009L57.5195 129.298C59.1089 128.771 60.2295 127.679 60.8228 126.317C61.4233 127.584 62.522 128.558 64.0527 129.034L64.8438 127.789C62.771 127.13 61.6431 125.555 61.6504 123.863V122.574H59.9658V123.863C59.9731 125.606 58.8599 127.328 56.7139 128.009ZM58.9551 135.143H67.7441V130.221H58.9551V135.143ZM60.5664 133.824V131.51H66.1475V133.824H60.5664ZM77.9395 130.675V130.133H76.3574V130.675C76.3501 131.964 75.5225 133.312 73.8086 133.912L74.6143 135.099C75.8374 134.659 76.6797 133.832 77.1558 132.813C77.5732 133.861 78.3643 134.754 79.624 135.216C80.8252 134.732 81.6016 133.81 82.0337 132.762C82.4951 133.824 83.3447 134.667 84.6338 135.099L85.4248 133.912C83.689 133.363 82.8687 132.059 82.876 130.675V130.133H81.2793V130.675C81.272 131.678 80.7373 132.879 79.5801 133.663C78.4448 132.931 77.9395 131.781 77.9395 130.675ZM73.4717 125.929C73.4717 127.767 74.9951 129.071 77.0459 129.063C79.0894 129.071 80.6128 127.767 80.6055 125.929C80.6128 124.068 79.0894 122.779 77.0459 122.779C74.9951 122.779 73.4717 124.068 73.4717 125.929ZM75.0684 125.929C75.061 124.845 75.8887 124.149 77.0459 124.156C78.1812 124.149 79.0088 124.845 79.0088 125.929C79.0088 127.013 78.1812 127.708 77.0459 127.716C75.8887 127.708 75.061 127.013 75.0684 125.929ZM82.627 129.576H84.2676V122.076H82.627V129.576ZM96.9238 125.812H89.3652V122.545H87.7539V127.101H96.9238V125.812ZM86.1865 129.928H98.2861V128.639H86.1865V129.928ZM87.6367 134.996H97.0117V133.678H89.2627V131.1H87.6367V134.996ZM109.902 123.365H103.662V124.684H108.276C108.218 125.372 108.108 126.031 107.925 126.646L102.988 126.954L103.193 128.346L107.405 127.965C106.592 129.554 105.178 130.88 102.9 131.993L103.765 133.253C108.687 130.843 109.888 127.357 109.902 123.365ZM112.144 135.304H113.784V122.062H112.144V135.304ZM126.865 122.076H125.21V131.026H122.397V132.257H125.21V135.289H126.865V122.076ZM115.63 128.873L115.835 130.206C116.816 130.206 117.915 130.206 119.072 130.162V134.894H120.713V130.082C121.936 130.001 123.188 129.869 124.404 129.664L124.302 128.463C121.431 128.858 118.12 128.866 115.63 128.873ZM116.582 125.328C116.582 126.939 117.988 127.987 119.98 127.994C121.929 127.987 123.35 126.939 123.35 125.328C123.35 123.753 121.929 122.647 119.98 122.647C117.988 122.647 116.582 123.753 116.582 125.328ZM118.12 125.328C118.113 124.464 118.867 123.893 119.98 123.893C121.042 123.893 121.797 124.464 121.797 125.328C121.797 126.214 121.035 126.749 119.98 126.749C118.867 126.749 118.113 126.214 118.12 125.328ZM139.404 128.272H131.729V124.537H139.302V123.219H130.117V129.576H139.404V128.272ZM128.652 133.619H140.752V132.271H128.652V133.619ZM153.701 128.067H141.602V129.298H153.701V128.067ZM143.008 131.231H150.625V132.052H143.022V135.157H152.632V134.029H144.648V133.106H152.236V130.089H143.008V131.231ZM143.096 123.482H150.581V124.288H143.14V127.32H152.441V126.207H144.751V125.343H152.207V122.354H143.096V123.482ZM53.7988 143.062H52.1729V149.712H53.7988V147.075H55.6445V145.728H53.7988V143.062ZM43.501 146.475C43.4937 148.203 45.0024 149.441 47.0166 149.434C49.0308 149.441 50.5249 148.203 50.5322 146.475C50.5249 144.709 49.0308 143.501 47.0166 143.501C45.0024 143.501 43.4937 144.709 43.501 146.475ZM45.0977 146.475C45.083 145.471 45.896 144.819 47.0166 144.819C48.1299 144.819 48.9429 145.471 48.9502 146.475C48.9429 147.478 48.1299 148.145 47.0166 148.145C45.896 148.145 45.083 147.478 45.0977 146.475ZM45.1416 151.543H52.1729V152.568H45.1562V156.143H54.209V154.854H46.7676V153.755H53.7988V150.283H45.1416V151.543ZM67.4072 143.062H65.7812V145.947H63.4082V147.28H65.7812V149.551H63.3643V150.884H65.7812V156.318H67.4072V143.062ZM56.7578 145.508H61.0645V147.881H56.8018V153.315H57.8271C59.8853 153.315 61.5698 153.271 63.5986 152.949L63.4668 151.616C61.6797 151.88 60.1636 151.96 58.4131 151.968V149.155H62.6611V144.204H56.7578V145.508ZM81.3525 150.444H69.2822V151.763H74.4824V156.289H76.0938V151.763H81.3525V150.444ZM69.9121 148.276L70.5273 149.551C72.7612 149.229 74.5044 148.196 75.3174 146.768C76.123 148.196 77.8809 149.229 80.1367 149.551L80.7227 148.276C78.1006 147.947 76.3721 146.548 76.2622 145.098H80.2393V143.809H70.3955V145.098H74.3726C74.2554 146.548 72.5122 147.947 69.9121 148.276ZM86.377 146.533V144.233H84.8096V146.606C84.8022 148.862 83.9526 151.199 82.0264 152.363L83.0371 153.579C84.2822 152.817 85.1318 151.47 85.6079 149.88C86.0474 151.323 86.8237 152.554 88.0176 153.271L88.9111 152.026C87.1167 150.898 86.3843 148.672 86.377 146.533ZM87.4902 148.965H89.3799V155.659H90.918V143.296H89.3799V147.617H87.4902V148.965ZM92.1045 156.304H93.6719V143.062H92.1045V156.304ZM107.31 153.359H104.526V149.976C105.552 149.368 106.174 148.438 106.167 147.28C106.174 145.171 104.094 143.779 101.23 143.779C98.3813 143.779 96.3159 145.171 96.3232 147.28C96.3159 148.452 96.9531 149.404 98.0078 150.012V153.359H95.21V154.692H107.31V153.359ZM97.9199 147.28C97.9126 145.903 99.2529 145.061 101.23 145.068C103.201 145.061 104.57 145.903 104.57 147.28C104.57 148.635 103.201 149.5 101.23 149.492C99.2529 149.5 97.9126 148.635 97.9199 147.28ZM99.6191 153.359V150.605C100.117 150.708 100.659 150.767 101.23 150.767C101.816 150.767 102.366 150.708 102.871 150.598V153.359H99.6191ZM110.898 144.395H108.906L109.082 151.88H110.737L110.898 144.395ZM108.774 153.975C108.767 154.604 109.287 155.117 109.917 155.117C110.525 155.117 111.045 154.604 111.045 153.975C111.045 153.359 110.525 152.854 109.917 152.847C109.287 152.854 108.767 153.359 108.774 153.975Z" fill="black"/>
<path d="M11.3069 20.7873L23.9793 34L36.6931 20.7873C39.4884 17.9038 40.9793 14.3101 41 10.3722C40.9793 4.60506 36.8173 0 31.475 0C28.3898 0 25.76 1.44177 23.9793 3.7443C22.2607 1.44177 19.6102 0 16.5664 0C11.1827 0 7.04141 4.60506 7 10.3722C7.04141 14.3101 8.53228 17.9038 11.3069 20.7873Z" fill="#F06E6E"/>
<path d="M2.5335 49.2278L9.98782 57L17.4665 49.2278C19.1108 47.5316 19.9878 45.4177 20 43.1013C19.9878 39.7089 17.5396 37 14.3971 37C12.5822 37 11.0353 37.8481 9.98782 39.2025C8.97686 37.8481 7.41778 37 5.62728 37C2.46041 37 0.0243605 39.7089 0 43.1013C0.0243605 45.4177 0.90134 47.5316 2.5335 49.2278Z" fill="#F06E6E"/>
<path d="M83.3242 86.3477C87.9465 86.3477 97.059 89.8753 96.5307 103.986" stroke="black" stroke-width="4.4095" stroke-linecap="round"/>
<path d="M56.4264 64.3566C52.8293 67.2593 43.5225 70.2368 35.0723 58.9241" stroke="black" stroke-width="4.4095" stroke-linecap="round"/>
<path d="M67.0091 86.3477C62.3869 86.3477 53.2744 89.8753 53.8026 103.986" stroke="black" stroke-width="4.4095" stroke-linecap="round"/>
<rect width="14.5513" height="8.81899" rx="4.4095" transform="matrix(-1 0 0 1 107.135 100.898)" fill="#00DDB5"/>
<rect width="14.5513" height="8.81899" rx="4.4095" transform="matrix(-1 0 0 1 55.9854 100.898)" fill="#00DDB5"/>
<circle cx="33.7322" cy="55.04" r="5.73234" fill="#00BB99"/>
<path d="M37.0243 74.7661C37.0243 70.5876 39.7742 67.9378 46.0888 66.1034C47.8295 65.5936 49.8003 64.3045 51.4995 62.6276C55.2457 58.9303 51.4541 54.3833 46.1907 54.3833V54.3833C40.6909 54.3833 37.0243 50.5106 37.0243 44.8034V35.9369C37.0243 30.1278 40.6909 26.3569 46.1907 26.3569H55.0515C59.9402 26.3569 59.7365 18 64.6252 18H86.4207C91.1057 18 91.1057 26.3569 95.9944 26.3569H104.142C109.642 26.3569 113.309 30.1278 113.309 35.9369V44.8034C113.309 50.5106 109.642 54.3833 104.142 54.3833V54.3833C98.9308 54.3833 95.084 58.8201 98.7475 62.5265C100.454 64.2527 102.469 65.5834 104.244 66.1034C110.661 67.9378 113.309 70.4857 113.309 74.7661V85.8747C113.309 91.6838 109.54 95.4546 104.142 95.1489C97.1415 94.7436 90.831 93.1214 85.528 90.4879C79.3954 87.4423 71.204 87.3983 65.0643 90.4298C59.6612 93.0976 53.2428 94.7406 46.1907 95.1489C40.7927 95.4546 37.0243 91.6838 37.0243 85.8747V74.7661Z" fill="url(#paint0_linear_291_2)"/>
<path d="M76.8915 53.024C76.6048 53.8972 77.0802 54.8375 77.9534 55.1243C78.8266 55.411 79.7669 54.9356 80.0536 54.0624L76.8915 53.024ZM80.0536 54.0624C80.6539 52.2345 82.0027 49.6129 84.0186 47.7372C85.9777 45.9143 88.4712 44.8572 91.6383 45.7459L92.5374 42.5414C87.9924 41.2661 84.3408 42.8913 81.7515 45.3006C79.219 47.6569 77.6163 50.8171 76.8915 53.024L80.0536 54.0624Z" fill="white"/>
<circle cx="86.746" cy="56.4059" r="10.2474" transform="rotate(180 86.746 56.4059)" fill="white"/>
<path d="M53.081 53.024C52.7942 53.8972 53.2696 54.8375 54.1428 55.1243C55.016 55.411 55.9563 54.9356 56.2431 54.0624L53.081 53.024ZM56.2431 54.0624C56.8433 52.2345 58.1922 49.6129 60.2081 47.7372C62.1671 45.9143 64.6606 44.8572 67.8277 45.7459L68.7269 42.5414C64.1818 41.2661 60.5302 42.8913 57.9409 45.3006C55.4085 47.6569 53.8057 50.8171 53.081 53.024L56.2431 54.0624Z" fill="white"/>
<circle cx="62.9349" cy="56.4059" r="10.2474" transform="rotate(180 62.9349 56.4059)" fill="white"/>
<ellipse cx="6.39377" cy="7.49614" rx="6.39377" ry="7.49614" transform="matrix(-1 0 0 1 89.0566 48.8672)" fill="black"/>
<ellipse cx="6.39377" cy="7.49614" rx="6.39377" ry="7.49614" transform="matrix(-1 0 0 1 65.2452 48.8672)" fill="black"/>
<path d="M78.4736 66.5039C78.4736 66.5039 76.0595 68.2677 74.0641 68.2677C72.0688 68.2677 69.6546 66.5039 69.6546 66.5039" stroke="black" stroke-width="3.08665" stroke-linecap="round"/>
<path d="M101.247 64.0651C105.863 63.8209 114.776 59.8168 113.503 45.754" stroke="black" stroke-width="4.4095" stroke-linecap="round"/>
<circle cx="5.73234" cy="5.73234" r="5.73234" transform="matrix(-0.743946 0.66824 0.66824 0.743946 112.339 33.874)" fill="#00BB99"/>

</svg>
