<svg width="239" height="152" viewBox="0 0 239 152" fill="none" xmlns="http://www.w3.org/2000/svg">
<defs>
<linearGradient id="paint0_linear_677_938" x1="114.94" y1="77.8337" x2="114.94" y2="143.154" gradientUnits="userSpaceOnUse">
<stop stop-color="#00DDB5"/>
<stop offset="1" stop-color="#00BE9C"/>
</linearGradient>
</defs>
<path d="M127.036 117.347C133.889 117.347 147.402 122.577 146.618 143.5" stroke="black" stroke-width="4.49542" stroke-linecap="round"/>
<path d="M78.5 91.5C73.1662 95.8043 45.0002 104 55.4874 76.6821" stroke="black" stroke-width="4.49542" stroke-linecap="round"/>
<path d="M102.843 117.347C95.9894 117.347 82.4774 122.577 83.2607 143.5" stroke="black" stroke-width="4.49542" stroke-linecap="round"/>
<rect width="21.5769" height="13.0769" rx="6.53845" transform="matrix(-1 0 0 1 162.343 138.923)" fill="#00DDB5"/>
<rect width="21.5769" height="13.0769" rx="6.53845" transform="matrix(-1 0 0 1 86.4976 138.923)" fill="#00DDB5"/>
<circle cx="53.5" cy="70.9238" r="8.49999" fill="#00BB99"/>
<path d="M58.3821 100.173C58.3821 93.9775 62.4597 90.0484 71.823 87.3283C75.0341 86.3878 78.7733 83.6591 81.6081 80.2591C85.6799 75.3756 80.9352 69.9496 74.5768 69.9496H71.974C63.8189 69.9496 58.3821 64.207 58.3821 55.7444V42.597C58.3821 33.9832 63.8189 28.3918 71.974 28.3918H85.1129C92.362 28.3918 92.0599 16 99.3089 16H131.628C138.575 16 138.575 28.3918 145.824 28.3918H157.905C166.061 28.3918 171.497 33.9832 171.497 42.597V55.7444C171.497 64.207 166.061 69.9496 157.905 69.9496H155.129C148.962 69.9496 144.226 75.1218 148.063 79.9488C150.879 83.4924 154.748 86.3594 158.056 87.3283C167.571 90.0484 171.497 93.8264 171.497 100.173V116.645C171.497 125.259 165.91 130.851 157.905 130.397C145.138 129.658 133.919 126.19 125.123 120.558C119.244 116.794 111.048 116.755 105.151 120.491C96.1992 126.162 84.7926 129.655 71.974 130.397C63.9699 130.851 58.3821 125.259 58.3821 116.645V100.173Z" fill="url(#paint0_linear_677_938)"/>
<path d="M118.231 68.1764C117.939 69.0666 118.423 70.0253 119.313 70.3176C120.204 70.61 121.162 70.1253 121.455 69.2351L118.231 68.1764ZM121.455 69.2351C122.374 66.4368 124.432 62.4247 127.541 59.532C130.592 56.6933 134.558 54.9941 139.573 56.4015L140.49 53.1346C134.07 51.333 128.923 53.6113 125.23 57.0479C121.594 60.4306 119.277 64.9918 118.231 68.1764L121.455 69.2351Z" fill="white"/>
<circle cx="132.11" cy="72.9505" r="15.195" transform="rotate(180 132.11 72.9505)" fill="white"/>
<path d="M82.923 68.1764C82.6307 69.0666 83.1154 70.0253 84.0056 70.3176C84.8958 70.61 85.8544 70.1253 86.1467 69.2351L82.923 68.1764ZM86.1467 69.2351C87.0657 66.4368 89.1246 62.4247 92.2334 59.532C95.2843 56.6933 99.25 54.9941 104.265 56.4015L105.182 53.1346C98.7619 51.333 93.6155 53.6113 89.9221 57.0479C86.2866 60.4306 83.9689 64.9918 82.923 68.1764L86.1467 69.2351Z" fill="white"/>
<circle cx="96.8023" cy="72.9505" r="15.195" transform="rotate(180 96.8023 72.9505)" fill="white"/>
<ellipse cx="9.48076" cy="11.1154" rx="9.48076" ry="11.1154" transform="matrix(-1 0 0 1 108.828 62.1855)" fill="black"/>
<path d="M124.176 74.04C124.176 74.04 127.756 71.4247 130.715 71.4247C133.673 71.4247 137.253 74.04 137.253 74.04" stroke="black" stroke-width="3.1468" stroke-linecap="round"/>
<path d="M122.074 87.2686C122.074 87.2686 118.494 89.8839 115.535 89.8839C112.577 89.8839 108.997 87.2686 108.997 87.2686" stroke="black" stroke-width="3.1468" stroke-linecap="round"/>
<path d="M155 94.9997C163 92 174.5 87 184.907 77.7903" stroke="black" stroke-width="4.49542" stroke-linecap="round"/>
<circle cx="8.49999" cy="8.49999" r="8.49999" transform="matrix(-0.986368 0.164555 0.164555 0.986368 192.905 62)" fill="#00BB99"/>
<path d="M54.5 71.5C59.3333 82.5 84.5 106.5 120 106.5C155.5 106.5 187 91 187 71.5" stroke="#A87CDF" stroke-width="4" stroke-linecap="round"/>
<path d="M57.1135 108.304L61.662 80.0494L82.6433 95.3721L57.1135 108.304Z" fill="#FFDB96"/>
<path d="M93.5007 125.706L87.467 97.7313L112.583 104.379L93.5007 125.706Z" fill="white"/>
<path d="M137.312 128.668L121.103 105.083L146.861 101.69L137.312 128.668Z" fill="#0874A2"/>
<path d="M178.031 116.082L154.715 99.488L177.747 87.4652L178.031 116.082Z" fill="#F4B46A"/>
<rect x="45" y="45.1328" width="6" height="6" transform="rotate(-58.8043 45 45.1328)" fill="#5076FF"/>
<rect width="6" height="6" transform="matrix(0.973322 0.229445 0.229445 -0.973322 214.994 5.83984)" fill="#5076FF"/>
<rect x="33.186" y="6" width="6" height="6" transform="rotate(1.77744 33.186 6)" fill="#FFE072"/>
<rect width="6" height="6" transform="matrix(0.677937 -0.73512 -0.73512 -0.677937 234.65 41.6807)" fill="#FFE072"/>
<rect x="32.3245" y="21" width="10.4585" height="10.4585" transform="rotate(1.77744 32.3245 21)" fill="#FFA5A5"/>
<rect width="10.4585" height="10.4585" transform="matrix(0.677937 -0.73512 -0.73512 -0.677937 223.341 31.7891)" fill="#FFA5A5"/>
<rect x="0.186035" y="37" width="6" height="6" transform="rotate(1.77744 0.186035 37)" fill="#01DEB6"/>
<rect width="6" height="6" transform="matrix(0.677937 -0.73512 -0.73512 -0.677937 189.411 43.5215)" fill="#01DEB6"/>
<path d="M15.5222 27.2974C15.5222 27.2974 15.0162 33.6412 20.8736 33.5764C26.7309 33.5115 26.225 39.8553 26.225 39.8553" stroke="#5076FF" stroke-width="5"/>
<path d="M207.077 39.3711C207.077 39.3711 202.195 35.2889 206.344 31.1537C210.493 27.0186 205.611 22.9364 205.611 22.9364" stroke="#5076FF" stroke-width="5"/>
</svg>
