<svg width="393" height="284" viewBox="0 0 393 284" fill="none" xmlns="http://www.w3.org/2000/svg">
<rect width="393" height="284" fill="#EAEAEA"/>
<defs>
<linearGradient id="paint0_linear_291_2" x1="252.707" y1="215.313" x2="252.707" y2="344.736" gradientUnits="userSpaceOnUse">
<stop stop-color="#00DDB5"/>
<stop offset="1" stop-color="#00BE9C"/>
</linearGradient>
</defs>
<path d="M147.06 169.73V178.79H147.89V169.73H147.06ZM143.12 170.43C141.79 170.43 140.83 171.66 140.83 173.58C140.83 175.51 141.79 176.74 143.12 176.74C144.46 176.74 145.42 175.51 145.42 173.58C145.42 171.66 144.46 170.43 143.12 170.43ZM143.12 171.18C144.01 171.18 144.62 172.12 144.62 173.58C144.62 175.05 144.01 176.01 143.12 176.01C142.24 176.01 141.62 175.05 141.62 173.58C141.62 172.12 142.24 171.18 143.12 171.18ZM150.209 170.62V176.51H154.369V170.62H150.209ZM153.559 171.29V175.84H151.019V171.29H153.559ZM156.259 169.73V178.79H157.089V169.73H156.259ZM161.288 171.03V172.5C161.288 174.06 160.198 175.76 158.888 176.38L159.368 177.04C160.808 176.33 161.958 174.41 161.958 172.5V171.03H161.288ZM161.448 171.03V172.5C161.448 174.38 162.608 176.14 164.068 176.82L164.538 176.16C163.208 175.59 162.118 174.03 162.118 172.5V171.03H161.448ZM159.188 170.66V171.36H164.238V170.66H159.188ZM165.458 169.74V178.78H166.288V169.74H165.458ZM168.088 173.94V174.57H176.288V173.94H168.088ZM169.058 175.3V175.89H174.448V176.66H169.088V178.29H169.908V177.23H175.258V175.3H169.058ZM169.088 178.07V178.67H175.548V178.07H169.088ZM169.128 170V170.59H174.418V171.32H169.148V172.86H169.968V171.88H175.228V170H169.128ZM169.148 172.66V173.26H175.398V172.66H169.148ZM184.649 171.89V172.58H187.079V171.89H184.649ZM182.569 170.15C181.219 170.15 180.239 171.01 180.239 172.25C180.239 173.49 181.219 174.34 182.569 174.34C183.919 174.34 184.899 173.49 184.899 172.25C184.899 171.01 183.919 170.15 182.569 170.15ZM182.569 170.85C183.459 170.85 184.099 171.42 184.099 172.25C184.099 173.07 183.459 173.65 182.569 173.65C181.679 173.65 181.039 173.07 181.039 172.25C181.039 171.42 181.679 170.85 182.569 170.85ZM186.709 169.74V174.59H187.539V169.74H186.709ZM181.749 175.04V178.66H187.539V175.04H186.719V176.18H182.579V175.04H181.749ZM182.579 176.84H186.719V177.99H182.579V176.84ZM189.309 176.98V177.67H197.499V176.98H189.309ZM192.969 175.04V177.27H193.799V175.04H192.969ZM190.299 170.41V171.08H195.669V172.48H190.329V174.96H191.149V173.15H196.489V170.41H190.299ZM190.329 174.61V175.29H196.699V174.61H190.329ZM199.538 174.07V174.75H205.748V174.07H199.538ZM198.508 176.87V177.56H206.698V176.87H198.508ZM199.538 170.57V174.37H200.368V171.26H205.658V170.57H199.538ZM207.687 171.28V171.96H212.167V171.28H207.687ZM209.927 172.56C208.807 172.56 207.987 173.41 207.987 174.63C207.987 175.84 208.807 176.69 209.927 176.69C211.057 176.69 211.877 175.84 211.877 174.63C211.877 173.41 211.057 172.56 209.927 172.56ZM209.927 173.27C210.627 173.27 211.137 173.83 211.137 174.63C211.137 175.43 210.627 175.99 209.927 175.99C209.237 175.99 208.737 175.43 208.737 174.63C208.737 173.83 209.237 173.27 209.927 173.27ZM214.557 169.74V178.78H215.357V169.74H214.557ZM213.117 173.54V174.23H214.827V173.54H213.117ZM212.627 169.94V178.34H213.407V169.94H212.627ZM209.527 170V171.7H210.347V170H209.527ZM220.526 170.63V171.01C220.526 172.2 218.976 173.24 217.386 173.47L217.706 174.13C219.526 173.82 221.246 172.63 221.246 171.01V170.63H220.526ZM220.736 170.63V171.01C220.736 172.63 222.446 173.82 224.276 174.13L224.586 173.47C223.006 173.24 221.446 172.2 221.446 171.01V170.63H220.736ZM220.556 175.33V178.78H221.376V175.33H220.556ZM216.906 174.89V175.57H225.076V174.89H216.906ZM217.666 170.3V170.97H224.286V170.3H217.666ZM229.665 172.97V173.66H231.395V172.97H229.665ZM227.975 170.59V172.31C227.975 173.86 227.235 175.48 225.995 176.21L226.515 176.84C227.835 176.03 228.625 174.2 228.625 172.31V170.59H227.975ZM228.135 170.59V172.28C228.135 174.04 228.865 175.84 230.165 176.64L230.645 175.99C229.455 175.27 228.775 173.73 228.775 172.28V170.59H228.135ZM232.985 169.74V178.78H233.785V169.74H232.985ZM231.155 169.93V178.33H231.935V169.93H231.155ZM237.305 174.39V177.1H238.125V174.39H237.305ZM240.645 174.39V177.1H241.475V174.39H240.645ZM235.305 176.94V177.63H243.495V176.94H235.305ZM239.385 170.31C237.465 170.31 236.095 171.22 236.095 172.64C236.095 174.05 237.465 174.96 239.385 174.96C241.295 174.96 242.665 174.05 242.665 172.64C242.665 171.22 241.295 170.31 239.385 170.31ZM239.385 170.97C240.835 170.97 241.865 171.63 241.865 172.64C241.865 173.64 240.835 174.3 239.385 174.3C237.935 174.3 236.895 173.64 236.895 172.64C236.895 171.63 237.935 170.97 239.385 170.97ZM245.382 178.057C245.207 178.057 245.056 177.994 244.931 177.869C244.805 177.743 244.743 177.593 244.743 177.418C244.743 177.242 244.805 177.092 244.931 176.967C245.056 176.841 245.207 176.778 245.382 176.778C245.557 176.778 245.707 176.841 245.833 176.967C245.958 177.092 246.021 177.242 246.021 177.418C246.021 177.534 245.991 177.64 245.932 177.737C245.875 177.834 245.798 177.912 245.701 177.972C245.607 178.028 245.5 178.057 245.382 178.057Z" fill="#323232"/>
<circle cx="196" cy="128" r="26" fill="#8C8C8C"/>
<path d="M196.575 117L196.575 140" stroke="white" stroke-width="3.15" stroke-linecap="square"/>
<path d="M208 128.575L185 128.575" stroke="white" stroke-width="3.15" stroke-linecap="square"/>
<g style="mix-blend-mode:luminosity" opacity="0.2">
<mask id="mask0_291_2" style="mask-type:alpha" maskUnits="userSpaceOnUse" x="-126" y="49" width="515" height="235">
<rect x="-126" y="49" width="515" height="234.091" rx="15.1026" fill="#EAEAEA"/>
</mask>
<g mask="url(#mask0_291_2)">
<path d="M197.649 228.992C187.08 237.52 159.737 246.268 134.911 213.031" stroke="black" stroke-width="12.955" stroke-linecap="round"/>
<circle cx="130.974" cy="201.62" r="16.8416" fill="#00BB99"/>
<path d="M140.646 259.576C140.646 247.3 148.725 239.515 167.277 234.125C172.391 232.627 178.181 228.84 183.174 223.913C194.18 213.051 183.04 199.692 167.576 199.692V199.692C151.418 199.692 140.646 188.313 140.646 171.546V145.496C140.646 128.429 151.418 117.35 167.576 117.35H193.609C207.972 117.35 207.374 92.7979 221.737 92.7979H285.772C299.536 92.7979 299.536 117.35 313.899 117.35H337.837C353.996 117.35 364.768 128.429 364.768 145.496V171.546C364.768 188.313 353.996 199.692 337.837 199.692V199.692C322.526 199.692 311.224 212.727 321.988 223.616C327.001 228.688 332.92 232.597 338.137 234.125C356.988 239.515 364.768 247 364.768 259.576V292.213C364.768 309.28 353.697 320.359 337.837 319.46C317.269 318.27 298.729 313.504 283.149 305.767C265.131 296.819 241.065 296.689 223.027 305.596C207.153 313.434 188.295 318.261 167.576 319.46C151.717 320.359 140.646 309.28 140.646 292.213V259.576Z" fill="url(#paint0_linear_291_2)"/>
<path d="M257.777 195.702C256.935 198.267 258.331 201.03 260.897 201.873C263.462 202.715 266.225 201.318 267.067 198.753L257.777 195.702ZM267.067 198.753C268.831 193.383 272.794 185.68 278.717 180.169C284.472 174.814 291.798 171.708 301.103 174.319L303.745 164.904C290.391 161.157 279.663 165.932 272.056 173.011C264.615 179.934 259.907 189.218 257.777 195.702L267.067 198.753Z" fill="white"/>
<circle cx="286.729" cy="205.636" r="30.1068" transform="rotate(180 286.729 205.636)" fill="white"/>
<path d="M187.819 195.702C186.977 198.267 188.373 201.03 190.939 201.873C193.504 202.715 196.267 201.318 197.109 198.753L187.819 195.702ZM197.109 198.753C198.873 193.383 202.836 185.68 208.759 180.169C214.514 174.814 221.84 171.708 231.145 174.319L233.787 164.904C220.433 161.157 209.705 165.932 202.098 173.011C194.657 179.934 189.949 189.218 187.819 195.702L197.109 198.753Z" fill="white"/>
<circle cx="216.771" cy="205.636" r="30.1068" transform="rotate(180 216.771 205.636)" fill="white"/>
<path d="M271.008 207.795C271.008 207.795 278.101 202.613 283.963 202.613C289.826 202.613 296.918 207.795 296.918 207.795" stroke="black" stroke-width="9.06853" stroke-linecap="round"/>
<path d="M209.232 207.488C209.232 207.488 216.325 202.306 222.187 202.306C228.049 202.306 235.142 207.488 235.142 207.488" stroke="black" stroke-width="9.06853" stroke-linecap="round"/>
<path d="M266.843 234.007C266.843 234.007 259.751 239.189 253.888 239.189C248.026 239.189 240.933 234.007 240.933 234.007" stroke="black" stroke-width="9.06853" stroke-linecap="round"/>
<path d="M342.842 239.703C356.384 238.693 382.312 226.368 377.682 185.142" stroke="black" stroke-width="12.955" stroke-linecap="round"/>
<circle cx="16.8416" cy="16.8416" r="16.8416" transform="matrix(-0.729367 0.684122 0.684122 0.729367 373.508 150.319)" fill="#00BB99"/>
</g>
</g>
</svg>
